<svg version="1.1" xmlns="http://www.w3.org/2000/svg" viewBox="0 0 854.4529011275131 1058.4" width="854.4529011275131" height="1058.4">
  <!-- svg-source:excalidraw -->
  
  <defs>
    <style class="style-fonts">
      @font-face {
        font-family: "Virgil";
        src: url("https://file%2B.vscode-resource.vscode-cdn.net/home/aiorio/.vscode/extensions/pomdtr.excalidraw-editor-3.7.4/public//dist/excalidraw-assets/Virgil.woff2");
      }
      @font-face {
        font-family: "Cascadia";
        src: url("https://file%2B.vscode-resource.vscode-cdn.net/home/aiorio/.vscode/extensions/pomdtr.excalidraw-editor-3.7.4/public//dist/excalidraw-assets/Cascadia.woff2");
      }
      @font-face {
        font-family: "Assistant";
        src: url("https://file%2B.vscode-resource.vscode-cdn.net/home/aiorio/.vscode/extensions/pomdtr.excalidraw-editor-3.7.4/public//dist/excalidraw-assets/Assistant-Regular.woff2");
      }
    </style>
    
  </defs>
  <rect x="0" y="0" width="854.4529011275131" height="1058.4" fill="#ffffff"></rect><g stroke-linecap="round" transform="translate(141.12448403824942 10) rotate(0 240 30)"><path d="M15 0 C119.78 0, 224.56 0, 465 0 C475 0, 480 5, 480 15 C480 21.74, 480 28.49, 480 45 C480 55, 475 60, 465 60 C337.77 60, 210.53 60, 15 60 C5 60, 0 55, 0 45 C0 33.75, 0 22.51, 0 15 C0 5, 5 0, 15 0" stroke="none" stroke-width="0" fill="#ffffff"></path><path d="M15 0 C107.81 0, 200.62 0, 465 0 M15 0 C123.49 0, 231.98 0, 465 0 M465 0 C475 0, 480 5, 480 15 M465 0 C475 0, 480 5, 480 15 M480 15 C480 23.42, 480 31.84, 480 45 M480 15 C480 21.98, 480 28.95, 480 45 M480 45 C480 55, 475 60, 465 60 M480 45 C480 55, 475 60, 465 60 M465 60 C314.54 60, 164.08 60, 15 60 M465 60 C345.24 60, 225.49 60, 15 60 M15 60 C5 60, 0 55, 0 45 M15 60 C5 60, 0 55, 0 45 M0 45 C0 37.28, 0 29.55, 0 15 M0 45 C0 34.21, 0 23.42, 0 15 M0 15 C0 5, 5 0, 15 0 M0 15 C0 5, 5 0, 15 0" stroke="#1971c2" stroke-width="2" fill="none"></path></g><g transform="translate(206.03756997574942 19.299999999999955) rotate(0 175.0869140625 20.700000000000045)"><text x="175.0869140625" y="0" font-family="Helvetica, Segoe UI Emoji" font-size="36px" fill="#1971c2" text-anchor="middle" style="white-space: pre;" direction="ltr" dominant-baseline="text-before-edge">read_access: process</text></g><g stroke-linecap="round"><g transform="translate(403.11747958926367 179.37778279270924) rotate(0 0 60)"><path d="M0 0 C0 20, 0 100, 0 120 M0 0 C0 20, 0 100, 0 120" stroke="#1e1e1e" stroke-width="2" fill="none"></path></g></g><mask></mask><g stroke-linecap="round"><g transform="translate(403.11747958926367 179.37778279270924) rotate(0 50 30)"><path d="M0 0 C16.67 10, 83.33 50, 100 60 M0 0 C16.67 10, 83.33 50, 100 60" stroke="#1e1e1e" stroke-width="2" fill="none"></path></g></g><mask></mask><g stroke-linecap="round"><g transform="translate(503.11747958926367 239.37778279270935) rotate(0 -50 30)"><path d="M0 0 C-16.67 10, -83.33 50, -100 60 M0 0 C-16.67 10, -83.33 50, -100 60" stroke="#1e1e1e" stroke-width="2" fill="none"></path></g></g><mask></mask><g transform="translate(78.90573403824942 228.30444516626721) rotate(0 152.09375 9.199999999999989)"><text x="304.1875" y="0" font-family="Helvetica, Segoe UI Emoji" font-size="16px" fill="#1e1e1e" text-anchor="end" style="white-space: pre;" direction="ltr" dominant-baseline="text-before-edge">char_1_i &amp; char_2_i &amp; char_3_i &amp; char_4_i</text></g><g stroke-linecap="round"><g transform="translate(403.11747958926367 219.37778279270935) rotate(0 -170 0)"><path d="M0 0 C-56.67 0, -283.33 0, -340 0 M0 0 C-56.67 0, -283.33 0, -340 0" stroke="#1e1e1e" stroke-width="2" fill="none"></path></g></g><mask></mask><g stroke-linecap="round"><g transform="translate(403.11747958926367 259.37778279270935) rotate(0 -170 0)"><path d="M0 0 C-56.67 0, -283.33 0, -340 0 M0 0 C-56.67 0, -283.33 0, -340 0" stroke="#1e1e1e" stroke-width="2" fill="none"></path></g></g><mask></mask><g stroke-linecap="round"><g transform="translate(470.7764117979891 219.37778279270935) rotate(0 86.17053389563725 0)"><path d="M0 0 C28.72 0, 143.62 0, 172.34 0 M0 0 C28.72 0, 143.62 0, 172.34 0" stroke="#1e1e1e" stroke-width="2" fill="none"></path></g></g><mask></mask><g stroke-linecap="round"><g transform="translate(470.4883218210832 259.37778279270935) rotate(0 86.31457888409022 0)"><path d="M0 0 C28.77 0, 143.86 0, 172.63 0 M0 0 C28.77 0, 143.86 0, 172.63 0" stroke="#1e1e1e" stroke-width="2" fill="none"></path></g></g><mask></mask><g transform="translate(519.2812365884843 229.3575000209123) rotate(0 55.15625 9.199999999999989)"><text x="110.3125" y="0" font-family="Helvetica, Segoe UI Emoji" font-size="16px" fill="#1e1e1e" text-anchor="end" style="white-space: pre;" direction="ltr" dominant-baseline="text-before-edge">avl_readdata_o</text></g><g stroke-linecap="round"><g transform="translate(443.11747958926367 203.28464147797035) rotate(0 0 -21.953429342630557)"><path d="M0 0 C0 -7.32, 0 -36.59, 0 -43.91 M0 0 C0 -7.32, 0 -36.59, 0 -43.91" stroke="#1e1e1e" stroke-width="2" fill="none"></path></g></g><mask></mask><g stroke-linecap="round"><g transform="translate(443.11747958926367 159.37778279270924) rotate(0 -20 0)"><path d="M0 0 C-6.67 0, -33.33 0, -40 0 M0 0 C-6.67 0, -33.33 0, -40 0" stroke="#1e1e1e" stroke-width="2" fill="none"></path></g></g><mask></mask><g transform="translate(256.6249999999998 150) rotate(0 67.15625 9.200000000000045)"><text x="134.3125" y="0" font-family="Helvetica, Segoe UI Emoji" font-size="16px" fill="#1e1e1e" text-anchor="end" style="white-space: pre;" direction="ltr" dominant-baseline="text-before-edge">*cs_r_char_1_to_4</text></g><g stroke-linecap="round"><g transform="translate(144.9060261275131 359.37778279270935) rotate(0 0 60)"><path d="M0 0 C0 20, 0 100, 0 120 M0 0 C0 20, 0 100, 0 120" stroke="#1e1e1e" stroke-width="2" fill="none"></path></g></g><mask></mask><g stroke-linecap="round"><g transform="translate(144.9060261275131 359.37778279270935) rotate(0 50 30)"><path d="M0 0 C16.67 10, 83.33 50, 100 60 M0 0 C16.67 10, 83.33 50, 100 60" stroke="#1e1e1e" stroke-width="2" fill="none"></path></g></g><mask></mask><g stroke-linecap="round"><g transform="translate(244.9060261275131 419.37778279270935) rotate(0 -50 30)"><path d="M0 0 C-16.67 10, -83.33 50, -100 60 M0 0 C-16.67 10, -83.33 50, -100 60" stroke="#1e1e1e" stroke-width="2" fill="none"></path></g></g><mask></mask><g transform="translate(42.14740557649884 408.3044451662672) rotate(0 41.3671875 9.199999999999989)"><text x="82.734375" y="0" font-family="Helvetica, Segoe UI Emoji" font-size="16px" fill="#1e1e1e" text-anchor="end" style="white-space: pre;" direction="ltr" dominant-baseline="text-before-edge">0x1234cafe</text></g><g stroke-linecap="round"><g transform="translate(144.9060261275131 399.37778279270935) rotate(0 -50.99649777550712 0)"><path d="M0 0 C-17 0, -84.99 0, -101.99 0 M0 0 C-17 0, -84.99 0, -101.99 0" stroke="#1e1e1e" stroke-width="2" fill="none"></path></g></g><mask></mask><g stroke-linecap="round"><g transform="translate(144.9060261275131 439.37778279270935) rotate(0 -50.99649777550712 0)"><path d="M0 0 C-17 0, -84.99 0, -101.99 0 M0 0 C-17 0, -84.99 0, -101.99 0" stroke="#1e1e1e" stroke-width="2" fill="none"></path></g></g><mask></mask><g stroke-linecap="round"><g transform="translate(212.56495833623853 399.37778279270935) rotate(0 86.17053389563725 0)"><path d="M0 0 C28.72 0, 143.62 0, 172.34 0 M0 0 C28.72 0, 143.62 0, 172.34 0" stroke="#1e1e1e" stroke-width="2" fill="none"></path></g></g><mask></mask><g stroke-linecap="round"><g transform="translate(212.27686835933264 439.37778279270935) rotate(0 86.31457888409022 0)"><path d="M0 0 C28.77 0, 143.86 0, 172.63 0 M0 0 C28.77 0, 143.86 0, 172.63 0" stroke="#1e1e1e" stroke-width="2" fill="none"></path></g></g><mask></mask><g transform="translate(261.0697831267337 409.3575000209122) rotate(0 55.15625 9.199999999999989)"><text x="110.3125" y="0" font-family="Helvetica, Segoe UI Emoji" font-size="16px" fill="#1e1e1e" text-anchor="end" style="white-space: pre;" direction="ltr" dominant-baseline="text-before-edge">avl_readdata_o</text></g><g stroke-linecap="round"><g transform="translate(184.9060261275131 383.28464147797035) rotate(0 0 -21.9534293426305)"><path d="M0 0 C0 -7.32, 0 -36.59, 0 -43.91 M0 0 C0 -7.32, 0 -36.59, 0 -43.91" stroke="#1e1e1e" stroke-width="2" fill="none"></path></g></g><mask></mask><g stroke-linecap="round"><g transform="translate(184.9060261275131 339.37778279270935) rotate(0 -20 0)"><path d="M0 0 C-6.67 0, -33.33 0, -40 0 M0 0 C-6.67 0, -33.33 0, -40 0" stroke="#1e1e1e" stroke-width="2" fill="none"></path></g></g><mask></mask><g transform="translate(41.12448403824942 330) rotate(0 45.80078125 9.199999999999989)"><text x="91.6015625" y="0" font-family="Helvetica, Segoe UI Emoji" font-size="16px" fill="#1e1e1e" text-anchor="end" style="white-space: pre;" direction="ltr" dominant-baseline="text-before-edge">cs_r_user_id</text></g><g stroke-linecap="round"><g transform="translate(589.4919636275131 359.37778279270935) rotate(0 0 60)"><path d="M0 0 C0 20, 0 100, 0 120 M0 0 C0 20, 0 100, 0 120" stroke="#1e1e1e" stroke-width="2" fill="none"></path></g></g><mask></mask><g stroke-linecap="round"><g transform="translate(589.4919636275131 359.37778279270935) rotate(0 50 30)"><path d="M0 0 C16.67 10, 83.33 50, 100 60 M0 0 C16.67 10, 83.33 50, 100 60" stroke="#1e1e1e" stroke-width="2" fill="none"></path></g></g><mask></mask><g stroke-linecap="round"><g transform="translate(689.4919636275131 419.37778279270935) rotate(0 -50 30)"><path d="M0 0 C-16.67 10, -83.33 50, -100 60 M0 0 C-16.67 10, -83.33 50, -100 60" stroke="#1e1e1e" stroke-width="2" fill="none"></path></g></g><mask></mask><g transform="translate(508.08490557649884 408.3044451662672) rotate(0 30.69140625 9.199999999999989)"><text x="61.3828125" y="0" font-family="Helvetica, Segoe UI Emoji" font-size="16px" fill="#1e1e1e" text-anchor="end" style="white-space: pre;" direction="ltr" dominant-baseline="text-before-edge">button_s</text></g><g stroke-linecap="round"><g transform="translate(589.4919636275131 399.37778279270935) rotate(0 -50.99649777550712 0)"><path d="M0 0 C-17 0, -84.99 0, -101.99 0 M0 0 C-17 0, -84.99 0, -101.99 0" stroke="#1e1e1e" stroke-width="2" fill="none"></path></g></g><mask></mask><g stroke-linecap="round"><g transform="translate(589.4919636275131 439.37778279270935) rotate(0 -50.99649777550712 0)"><path d="M0 0 C-17 0, -84.99 0, -101.99 0 M0 0 C-17 0, -84.99 0, -101.99 0" stroke="#1e1e1e" stroke-width="2" fill="none"></path></g></g><mask></mask><g stroke-linecap="round"><g transform="translate(657.1508958362385 399.37778279270935) rotate(0 86.17053389563725 0)"><path d="M0 0 C28.72 0, 143.62 0, 172.34 0 M0 0 C28.72 0, 143.62 0, 172.34 0" stroke="#1e1e1e" stroke-width="2" fill="none"></path></g></g><mask></mask><g stroke-linecap="round"><g transform="translate(656.8628058593326 439.37778279270935) rotate(0 86.31457888409022 0)"><path d="M0 0 C28.77 0, 143.86 0, 172.63 0 M0 0 C28.77 0, 143.86 0, 172.63 0" stroke="#1e1e1e" stroke-width="2" fill="none"></path></g></g><mask></mask><g transform="translate(705.6557206267337 409.3575000209122) rotate(0 55.15625 9.199999999999989)"><text x="110.3125" y="0" font-family="Helvetica, Segoe UI Emoji" font-size="16px" fill="#1e1e1e" text-anchor="end" style="white-space: pre;" direction="ltr" dominant-baseline="text-before-edge">avl_readdata_o</text></g><g stroke-linecap="round"><g transform="translate(629.4919636275131 383.28464147797035) rotate(0 0 -21.9534293426305)"><path d="M0 0 C0 -7.32, 0 -36.59, 0 -43.91 M0 0 C0 -7.32, 0 -36.59, 0 -43.91" stroke="#1e1e1e" stroke-width="2" fill="none"></path></g></g><mask></mask><g stroke-linecap="round"><g transform="translate(629.4919636275131 339.37778279270935) rotate(0 -20 0)"><path d="M0 0 C-6.67 0, -33.33 0, -40 0 M0 0 C-6.67 0, -33.33 0, -40 0" stroke="#1e1e1e" stroke-width="2" fill="none"></path></g></g><mask></mask><g transform="translate(515.9447965382494 330) rotate(0 30.68359375 9.199999999999989)"><text x="61.3671875" y="0" font-family="Helvetica, Segoe UI Emoji" font-size="16px" fill="#1e1e1e" text-anchor="end" style="white-space: pre;" direction="ltr" dominant-baseline="text-before-edge">cs_r_btn</text></g><g stroke-linecap="round"><g transform="translate(144.9060261275131 539.3777827927094) rotate(0 0 60)"><path d="M0 0 C0 20, 0 100, 0 120 M0 0 C0 20, 0 100, 0 120" stroke="#1e1e1e" stroke-width="2" fill="none"></path></g></g><mask></mask><g stroke-linecap="round"><g transform="translate(144.9060261275131 539.3777827927094) rotate(0 50 30)"><path d="M0 0 C16.67 10, 83.33 50, 100 60 M0 0 C16.67 10, 83.33 50, 100 60" stroke="#1e1e1e" stroke-width="2" fill="none"></path></g></g><mask></mask><g stroke-linecap="round"><g transform="translate(244.9060261275131 599.3777827927094) rotate(0 -50 30)"><path d="M0 0 C-16.67 10, -83.33 50, -100 60 M0 0 C-16.67 10, -83.33 50, -100 60" stroke="#1e1e1e" stroke-width="2" fill="none"></path></g></g><mask></mask><g transform="translate(63.53021807649884 588.3044451662672) rotate(0 30.67578125 9.199999999999989)"><text x="61.3515625" y="0" font-family="Helvetica, Segoe UI Emoji" font-size="16px" fill="#1e1e1e" text-anchor="end" style="white-space: pre;" direction="ltr" dominant-baseline="text-before-edge">switch_s</text></g><g stroke-linecap="round"><g transform="translate(144.9060261275131 579.3777827927094) rotate(0 -50.99649777550712 0)"><path d="M0 0 C-17 0, -84.99 0, -101.99 0 M0 0 C-17 0, -84.99 0, -101.99 0" stroke="#1e1e1e" stroke-width="2" fill="none"></path></g></g><mask></mask><g stroke-linecap="round"><g transform="translate(144.9060261275131 619.3777827927094) rotate(0 -50.99649777550712 0)"><path d="M0 0 C-17 0, -84.99 0, -101.99 0 M0 0 C-17 0, -84.99 0, -101.99 0" stroke="#1e1e1e" stroke-width="2" fill="none"></path></g></g><mask></mask><g stroke-linecap="round"><g transform="translate(212.56495833623853 579.3777827927094) rotate(0 86.17053389563725 0)"><path d="M0 0 C28.72 0, 143.62 0, 172.34 0 M0 0 C28.72 0, 143.62 0, 172.34 0" stroke="#1e1e1e" stroke-width="2" fill="none"></path></g></g><mask></mask><g stroke-linecap="round"><g transform="translate(212.27686835933264 619.3777827927094) rotate(0 86.31457888409022 0)"><path d="M0 0 C28.77 0, 143.86 0, 172.63 0 M0 0 C28.77 0, 143.86 0, 172.63 0" stroke="#1e1e1e" stroke-width="2" fill="none"></path></g></g><mask></mask><g transform="translate(261.0697831267337 589.3575000209122) rotate(0 55.15625 9.199999999999989)"><text x="110.3125" y="0" font-family="Helvetica, Segoe UI Emoji" font-size="16px" fill="#1e1e1e" text-anchor="end" style="white-space: pre;" direction="ltr" dominant-baseline="text-before-edge">avl_readdata_o</text></g><g stroke-linecap="round"><g transform="translate(184.9060261275131 563.2846414779704) rotate(0 0 -21.9534293426305)"><path d="M0 0 C0 -7.32, 0 -36.59, 0 -43.91 M0 0 C0 -7.32, 0 -36.59, 0 -43.91" stroke="#1e1e1e" stroke-width="2" fill="none"></path></g></g><mask></mask><g stroke-linecap="round"><g transform="translate(184.9060261275131 519.3777827927094) rotate(0 -20 0)"><path d="M0 0 C-6.67 0, -33.33 0, -40 0 M0 0 C-6.67 0, -33.33 0, -40 0" stroke="#1e1e1e" stroke-width="2" fill="none"></path></g></g><mask></mask><g transform="translate(49.14792153824942 510) rotate(0 41.7890625 9.199999999999989)"><text x="83.578125" y="0" font-family="Helvetica, Segoe UI Emoji" font-size="16px" fill="#1e1e1e" text-anchor="end" style="white-space: pre;" direction="ltr" dominant-baseline="text-before-edge">cs_r_switch</text></g><g stroke-linecap="round"><g transform="translate(589.4919636275131 539.3777827927094) rotate(0 0 60)"><path d="M0 0 C0 20, 0 100, 0 120 M0 0 C0 20, 0 100, 0 120" stroke="#1e1e1e" stroke-width="2" fill="none"></path></g></g><mask></mask><g stroke-linecap="round"><g transform="translate(589.4919636275131 539.3777827927094) rotate(0 50 30)"><path d="M0 0 C16.67 10, 83.33 50, 100 60 M0 0 C16.67 10, 83.33 50, 100 60" stroke="#1e1e1e" stroke-width="2" fill="none"></path></g></g><mask></mask><g stroke-linecap="round"><g transform="translate(689.4919636275131 599.3777827927094) rotate(0 -50 30)"><path d="M0 0 C-16.67 10, -83.33 50, -100 60 M0 0 C-16.67 10, -83.33 50, -100 60" stroke="#1e1e1e" stroke-width="2" fill="none"></path></g></g><mask></mask><g transform="translate(523.2177180764988 588.3044451662672) rotate(0 23.125 9.199999999999989)"><text x="46.25" y="0" font-family="Helvetica, Segoe UI Emoji" font-size="16px" fill="#1e1e1e" text-anchor="end" style="white-space: pre;" direction="ltr" dominant-baseline="text-before-edge">leds_s</text></g><g stroke-linecap="round"><g transform="translate(589.4919636275131 579.3777827927094) rotate(0 -50.99649777550712 0)"><path d="M0 0 C-17 0, -84.99 0, -101.99 0 M0 0 C-17 0, -84.99 0, -101.99 0" stroke="#1e1e1e" stroke-width="2" fill="none"></path></g></g><mask></mask><g stroke-linecap="round"><g transform="translate(589.4919636275131 619.3777827927094) rotate(0 -50.99649777550712 0)"><path d="M0 0 C-17 0, -84.99 0, -101.99 0 M0 0 C-17 0, -84.99 0, -101.99 0" stroke="#1e1e1e" stroke-width="2" fill="none"></path></g></g><mask></mask><g stroke-linecap="round"><g transform="translate(657.1508958362385 579.3777827927094) rotate(0 86.17053389563725 0)"><path d="M0 0 C28.72 0, 143.62 0, 172.34 0 M0 0 C28.72 0, 143.62 0, 172.34 0" stroke="#1e1e1e" stroke-width="2" fill="none"></path></g></g><mask></mask><g stroke-linecap="round"><g transform="translate(656.8628058593326 619.3777827927094) rotate(0 86.31457888409022 0)"><path d="M0 0 C28.77 0, 143.86 0, 172.63 0 M0 0 C28.77 0, 143.86 0, 172.63 0" stroke="#1e1e1e" stroke-width="2" fill="none"></path></g></g><mask></mask><g transform="translate(705.6557206267337 589.3575000209122) rotate(0 55.15625 9.199999999999989)"><text x="110.3125" y="0" font-family="Helvetica, Segoe UI Emoji" font-size="16px" fill="#1e1e1e" text-anchor="end" style="white-space: pre;" direction="ltr" dominant-baseline="text-before-edge">avl_readdata_o</text></g><g stroke-linecap="round"><g transform="translate(629.4919636275131 563.2846414779704) rotate(0 0 -21.9534293426305)"><path d="M0 0 C0 -7.32, 0 -36.59, 0 -43.91 M0 0 C0 -7.32, 0 -36.59, 0 -43.91" stroke="#1e1e1e" stroke-width="2" fill="none"></path></g></g><mask></mask><g stroke-linecap="round"><g transform="translate(629.4919636275131 519.3777827927094) rotate(0 -20 0)"><path d="M0 0 C-6.67 0, -33.33 0, -40 0 M0 0 C-6.67 0, -33.33 0, -40 0" stroke="#1e1e1e" stroke-width="2" fill="none"></path></g></g><mask></mask><g transform="translate(516.8354215382494 510) rotate(0 30.23828125 9.199999999999989)"><text x="60.4765625" y="0" font-family="Helvetica, Segoe UI Emoji" font-size="16px" fill="#1e1e1e" text-anchor="end" style="white-space: pre;" direction="ltr" dominant-baseline="text-before-edge">cs_r_led</text></g><g stroke-linecap="round"><g transform="translate(143.11747958926367 719.3777827927092) rotate(0 0 60)"><path d="M0 0 C0 20, 0 100, 0 120 M0 0 C0 20, 0 100, 0 120" stroke="#1e1e1e" stroke-width="2" fill="none"></path></g></g><mask></mask><g stroke-linecap="round"><g transform="translate(143.11747958926367 719.3777827927092) rotate(0 50 30)"><path d="M0 0 C16.67 10, 83.33 50, 100 60 M0 0 C16.67 10, 83.33 50, 100 60" stroke="#1e1e1e" stroke-width="2" fill="none"></path></g></g><mask></mask><g stroke-linecap="round"><g transform="translate(243.11747958926367 779.3777827927092) rotate(0 -50 30)"><path d="M0 0 C-16.67 10, -83.33 50, -100 60 M0 0 C-16.67 10, -83.33 50, -100 60" stroke="#1e1e1e" stroke-width="2" fill="none"></path></g></g><mask></mask><g transform="translate(98.18698403824942 768.3044451662672) rotate(0 12.453125 9.199999999999989)"><text x="24.90625" y="0" font-family="Helvetica, Segoe UI Emoji" font-size="16px" fill="#1e1e1e" text-anchor="end" style="white-space: pre;" direction="ltr" dominant-baseline="text-before-edge">null</text></g><g stroke-linecap="round"><g transform="translate(143.11747958926367 759.3777827927092) rotate(0 -50.99649777550712 0)"><path d="M0 0 C-17 0, -84.99 0, -101.99 0 M0 0 C-17 0, -84.99 0, -101.99 0" stroke="#1e1e1e" stroke-width="2" fill="none"></path></g></g><mask></mask><g stroke-linecap="round"><g transform="translate(143.11747958926367 799.3777827927092) rotate(0 -50.99649777550712 0)"><path d="M0 0 C-17 0, -84.99 0, -101.99 0 M0 0 C-17 0, -84.99 0, -101.99 0" stroke="#1e1e1e" stroke-width="2" fill="none"></path></g></g><mask></mask><g stroke-linecap="round"><g transform="translate(210.7764117979891 759.3777827927092) rotate(0 86.17053389563725 0)"><path d="M0 0 C28.72 0, 143.62 0, 172.34 0 M0 0 C28.72 0, 143.62 0, 172.34 0" stroke="#1e1e1e" stroke-width="2" fill="none"></path></g></g><mask></mask><g stroke-linecap="round"><g transform="translate(210.48832182108322 799.3777827927092) rotate(0 86.31457888409022 0)"><path d="M0 0 C28.77 0, 143.86 0, 172.63 0 M0 0 C28.77 0, 143.86 0, 172.63 0" stroke="#1e1e1e" stroke-width="2" fill="none"></path></g></g><mask></mask><g transform="translate(259.28123658848426 769.3575000209121) rotate(0 55.15625 9.199999999999989)"><text x="110.3125" y="0" font-family="Helvetica, Segoe UI Emoji" font-size="16px" fill="#1e1e1e" text-anchor="end" style="white-space: pre;" direction="ltr" dominant-baseline="text-before-edge">avl_readdata_o</text></g><g stroke-linecap="round"><g transform="translate(183.11747958926367 743.2846414779704) rotate(0 0 -21.9534293426305)"><path d="M0 0 C0 -7.32, 0 -36.59, 0 -43.91 M0 0 C0 -7.32, 0 -36.59, 0 -43.91" stroke="#1e1e1e" stroke-width="2" fill="none"></path></g></g><mask></mask><g stroke-linecap="round"><g transform="translate(183.11747958926367 699.3777827927092) rotate(0 -20 0)"><path d="M0 0 C-6.67 0, -33.33 0, -40 0 M0 0 C-6.67 0, -33.33 0, -40 0" stroke="#1e1e1e" stroke-width="2" fill="none"></path></g></g><mask></mask><g transform="translate(10 690) rotate(0 60.46875 9.199999999999989)"><text x="120.9375" y="0" font-family="Helvetica, Segoe UI Emoji" font-size="16px" fill="#1e1e1e" text-anchor="end" style="white-space: pre;" direction="ltr" dominant-baseline="text-before-edge">cs_r_status_cmd</text></g><g stroke-linecap="round"><g transform="translate(348.82060458926367 879.3777827927092) rotate(0 0 60)"><path d="M0 0 C0 20, 0 100, 0 120 M0 0 C0 20, 0 100, 0 120" stroke="#1e1e1e" stroke-width="2" fill="none"></path></g></g><mask></mask><g stroke-linecap="round"><g transform="translate(348.82060458926367 879.3777827927092) rotate(0 50 30)"><path d="M0 0 C16.67 10, 83.33 50, 100 60 M0 0 C16.67 10, 83.33 50, 100 60" stroke="#1e1e1e" stroke-width="2" fill="none"></path></g></g><mask></mask><g stroke-linecap="round"><g transform="translate(448.82060458926367 939.3777827927092) rotate(0 -50 30)"><path d="M0 0 C-16.67 10, -83.33 50, -100 60 M0 0 C-16.67 10, -83.33 50, -100 60" stroke="#1e1e1e" stroke-width="2" fill="none"></path></g></g><mask></mask><g transform="translate(106.54494082059341 929.3885365227361) rotate(0 113.8359375 9.199999999999989)"><text x="227.671875" y="0" font-family="Helvetica, Segoe UI Emoji" font-size="16px" fill="#1e1e1e" text-anchor="end" style="white-space: pre;" direction="ltr" dominant-baseline="text-before-edge">`0..0` &amp; auto_s &amp; `00` &amp; delay_s</text></g><g stroke-linecap="round"><g transform="translate(348.82060458926367 919.3777827927092) rotate(0 -50.99649777550712 0)"><path d="M0 0 C-17 0, -84.99 0, -101.99 0 M0 0 C-17 0, -84.99 0, -101.99 0" stroke="#1e1e1e" stroke-width="2" fill="none"></path></g></g><mask></mask><g stroke-linecap="round"><g transform="translate(348.82060458926367 959.3777827927092) rotate(0 -50.99649777550712 0)"><path d="M0 0 C-17 0, -84.99 0, -101.99 0 M0 0 C-17 0, -84.99 0, -101.99 0" stroke="#1e1e1e" stroke-width="2" fill="none"></path></g></g><mask></mask><g stroke-linecap="round"><g transform="translate(416.4795367979891 919.3777827927092) rotate(0 86.17053389563725 0)"><path d="M0 0 C28.72 0, 143.62 0, 172.34 0 M0 0 C28.72 0, 143.62 0, 172.34 0" stroke="#1e1e1e" stroke-width="2" fill="none"></path></g></g><mask></mask><g stroke-linecap="round"><g transform="translate(416.1914468210832 959.3777827927092) rotate(0 86.31457888409022 0)"><path d="M0 0 C28.77 0, 143.86 0, 172.63 0 M0 0 C28.77 0, 143.86 0, 172.63 0" stroke="#1e1e1e" stroke-width="2" fill="none"></path></g></g><mask></mask><g transform="translate(464.98436158848426 929.3575000209121) rotate(0 55.15625 9.199999999999989)"><text x="110.3125" y="0" font-family="Helvetica, Segoe UI Emoji" font-size="16px" fill="#1e1e1e" text-anchor="end" style="white-space: pre;" direction="ltr" dominant-baseline="text-before-edge">avl_readdata_o</text></g><g stroke-linecap="round"><g transform="translate(388.82060458926367 903.2846414779704) rotate(0 0 -21.9534293426305)"><path d="M0 0 C0 -7.32, 0 -36.59, 0 -43.91 M0 0 C0 -7.32, 0 -36.59, 0 -43.91" stroke="#1e1e1e" stroke-width="2" fill="none"></path></g></g><mask></mask><g stroke-linecap="round"><g transform="translate(388.82060458926367 859.3777827927092) rotate(0 -20 0)"><path d="M0 0 C-6.67 0, -33.33 0, -40 0 M0 0 C-6.67 0, -33.33 0, -40 0" stroke="#1e1e1e" stroke-width="2" fill="none"></path></g></g><mask></mask><g transform="translate(174.75 850) rotate(0 80.9453125 9.199999999999989)"><text x="161.890625" y="0" font-family="Helvetica, Segoe UI Emoji" font-size="16px" fill="#1e1e1e" text-anchor="end" style="white-space: pre;" direction="ltr" dominant-baseline="text-before-edge">cs_r_mode_delay_gen</text></g><g stroke-linecap="round"><g transform="translate(604.4529011275131 719.3777827927092) rotate(0 0 60)"><path d="M0 0 C0 20, 0 100, 0 120 M0 0 C0 20, 0 100, 0 120" stroke="#1e1e1e" stroke-width="2" fill="none"></path></g></g><mask></mask><g stroke-linecap="round"><g transform="translate(604.4529011275131 719.3777827927092) rotate(0 50 30)"><path d="M0 0 C16.67 10, 83.33 50, 100 60 M0 0 C16.67 10, 83.33 50, 100 60" stroke="#1e1e1e" stroke-width="2" fill="none"></path></g></g><mask></mask><g stroke-linecap="round"><g transform="translate(704.4529011275131 779.3777827927092) rotate(0 -50 30)"><path d="M0 0 C-16.67 10, -83.33 50, -100 60 M0 0 C-16.67 10, -83.33 50, -100 60" stroke="#1e1e1e" stroke-width="2" fill="none"></path></g></g><mask></mask><g transform="translate(445.5697965382494 770) rotate(0 70.69140625 9.199999999999989)"><text x="141.3828125" y="0" font-family="Helvetica, Segoe UI Emoji" font-size="16px" fill="#1e1e1e" text-anchor="end" style="white-space: pre;" direction="ltr" dominant-baseline="text-before-edge">`0..0` &amp; checksum_i</text></g><g stroke-linecap="round"><g transform="translate(604.4529011275131 759.3777827927092) rotate(0 -50.99649777550712 0)"><path d="M0 0 C-17 0, -84.99 0, -101.99 0 M0 0 C-17 0, -84.99 0, -101.99 0" stroke="#1e1e1e" stroke-width="2" fill="none"></path></g></g><mask></mask><g stroke-linecap="round"><g transform="translate(604.4529011275131 799.3777827927092) rotate(0 -50.99649777550712 0)"><path d="M0 0 C-17 0, -84.99 0, -101.99 0 M0 0 C-17 0, -84.99 0, -101.99 0" stroke="#1e1e1e" stroke-width="2" fill="none"></path></g></g><mask></mask><g stroke-linecap="round"><g transform="translate(672.1118333362385 759.3777827927092) rotate(0 86.17053389563725 0)"><path d="M0 0 C28.72 0, 143.62 0, 172.34 0 M0 0 C28.72 0, 143.62 0, 172.34 0" stroke="#1e1e1e" stroke-width="2" fill="none"></path></g></g><mask></mask><g stroke-linecap="round"><g transform="translate(671.8237433593326 799.3777827927092) rotate(0 86.31457888409022 0)"><path d="M0 0 C28.77 0, 143.86 0, 172.63 0 M0 0 C28.77 0, 143.86 0, 172.63 0" stroke="#1e1e1e" stroke-width="2" fill="none"></path></g></g><mask></mask><g transform="translate(720.6166581267337 769.3575000209121) rotate(0 55.15625 9.199999999999989)"><text x="110.3125" y="0" font-family="Helvetica, Segoe UI Emoji" font-size="16px" fill="#1e1e1e" text-anchor="end" style="white-space: pre;" direction="ltr" dominant-baseline="text-before-edge">avl_readdata_o</text></g><g stroke-linecap="round"><g transform="translate(644.4529011275131 743.2846414779704) rotate(0 0 -21.9534293426305)"><path d="M0 0 C0 -7.32, 0 -36.59, 0 -43.91 M0 0 C0 -7.32, 0 -36.59, 0 -43.91" stroke="#1e1e1e" stroke-width="2" fill="none"></path></g></g><mask></mask><g stroke-linecap="round"><g transform="translate(644.4529011275131 699.3777827927092) rotate(0 -20 0)"><path d="M0 0 C-6.67 0, -33.33 0, -40 0 M0 0 C-6.67 0, -33.33 0, -40 0" stroke="#1e1e1e" stroke-width="2" fill="none"></path></g></g><mask></mask><g transform="translate(481.1244840382494 690) rotate(0 55.57421875 9.199999999999989)"><text x="111.1484375" y="0" font-family="Helvetica, Segoe UI Emoji" font-size="16px" fill="#1e1e1e" text-anchor="end" style="white-space: pre;" direction="ltr" dominant-baseline="text-before-edge">cs_r_checksum</text></g><g transform="translate(41.12448403824942 1030) rotate(0 132.08984375 9.200000000000003)"><text x="264.1796875" y="0" font-family="Helvetica, Segoe UI Emoji" font-size="16px" fill="#1e1e1e" text-anchor="end" style="white-space: pre;" direction="ltr" dominant-baseline="text-before-edge">*same for 5 to 8, 9 to 12 and 13 to 16</text></g></svg>