<svg version="1.1" xmlns="http://www.w3.org/2000/svg" viewBox="0 0 878.2893545892637 1058.4" width="878.2893545892637" height="1058.4">
  <!-- svg-source:excalidraw -->
  
  <defs>
    <style class="style-fonts">
      @font-face {
        font-family: "Virgil";
        src: url("https://file%2B.vscode-resource.vscode-cdn.net/home/aiorio/.vscode/extensions/pomdtr.excalidraw-editor-3.7.4/public//dist/excalidraw-assets/Virgil.woff2");
      }
      @font-face {
        font-family: "Cascadia";
        src: url("https://file%2B.vscode-resource.vscode-cdn.net/home/aiorio/.vscode/extensions/pomdtr.excalidraw-editor-3.7.4/public//dist/excalidraw-assets/Cascadia.woff2");
      }
      @font-face {
        font-family: "Assistant";
        src: url("https://file%2B.vscode-resource.vscode-cdn.net/home/aiorio/.vscode/extensions/pomdtr.excalidraw-editor-3.7.4/public//dist/excalidraw-assets/Assistant-Regular.woff2");
      }
    </style>
    
  </defs>
  <g stroke-linecap="round" transform="translate(164.9609375 10) rotate(0 240 30)"><path d="M15 0 C122.45 0, 229.9 0, 465 0 C475 0, 480 5, 480 15 C480 24.12, 480 33.24, 480 45 C480 55, 475 60, 465 60 C353.77 60, 242.55 60, 15 60 C5 60, 0 55, 0 45 C0 34.7, 0 24.4, 0 15 C0 5, 5 0, 15 0" stroke="none" stroke-width="0" fill="#ffffff"></path><path d="M15 0 C166.17 0, 317.34 0, 465 0 M15 0 C138.73 0, 262.45 0, 465 0 M465 0 C475 0, 480 5, 480 15 M465 0 C475 0, 480 5, 480 15 M480 15 C480 25.19, 480 35.38, 480 45 M480 15 C480 23.29, 480 31.58, 480 45 M480 45 C480 55, 475 60, 465 60 M480 45 C480 55, 475 60, 465 60 M465 60 C364.12 60, 263.25 60, 15 60 M465 60 C316.11 60, 167.21 60, 15 60 M15 60 C5 60, 0 55, 0 45 M15 60 C5 60, 0 55, 0 45 M0 45 C0 38.18, 0 31.36, 0 15 M0 45 C0 36.81, 0 28.62, 0 15 M0 15 C0 5, 5 0, 15 0 M0 15 C0 5, 5 0, 15 0" stroke="#1971c2" stroke-width="2" fill="none"></path></g><g transform="translate(229.8740234375 19.299999999999997) rotate(0 175.0869140625 20.699999999999996)"><text x="175.0869140625" y="0" font-family="Helvetica, Segoe UI Emoji" font-size="36px" fill="#1971c2" text-anchor="middle" style="white-space: pre;" direction="ltr" dominant-baseline="text-before-edge">read_access: process</text></g><g stroke-linecap="round"><g transform="translate(426.95393305101413 179.37778279270935) rotate(0 0 60)"><path d="M0 0 C0 20, 0 100, 0 120 M0 0 C0 20, 0 100, 0 120" stroke="#1e1e1e" stroke-width="2" fill="none"></path></g></g><mask></mask><g stroke-linecap="round"><g transform="translate(426.95393305101413 179.37778279270935) rotate(0 50 30)"><path d="M0 0 C16.67 10, 83.33 50, 100 60 M0 0 C16.67 10, 83.33 50, 100 60" stroke="#1e1e1e" stroke-width="2" fill="none"></path></g></g><mask></mask><g stroke-linecap="round"><g transform="translate(526.9539330510141 239.37778279270935) rotate(0 -50 30)"><path d="M0 0 C-16.67 10, -83.33 50, -100 60 M0 0 C-16.67 10, -83.33 50, -100 60" stroke="#1e1e1e" stroke-width="2" fill="none"></path></g></g><mask></mask><g transform="translate(84.9609375 228.30444516626721) rotate(0 160.984375 9.199999999999989)"><text x="321.96875" y="0" font-family="Helvetica, Segoe UI Emoji" font-size="16px" fill="#1e1e1e" text-anchor="end" style="white-space: pre;" direction="ltr" dominant-baseline="text-before-edge">char_1_s &amp; char_2_s &amp; char_3_s &amp; char_4_s</text></g><g stroke-linecap="round"><g transform="translate(426.95393305101413 219.37778279270935) rotate(0 -170 0)"><path d="M0 0 C-56.67 0, -283.33 0, -340 0 M0 0 C-56.67 0, -283.33 0, -340 0" stroke="#1e1e1e" stroke-width="2" fill="none"></path></g></g><mask></mask><g stroke-linecap="round"><g transform="translate(426.95393305101413 259.37778279270935) rotate(0 -170 0)"><path d="M0 0 C-56.67 0, -283.33 0, -340 0 M0 0 C-56.67 0, -283.33 0, -340 0" stroke="#1e1e1e" stroke-width="2" fill="none"></path></g></g><mask></mask><g stroke-linecap="round"><g transform="translate(494.61286525973964 219.37778279270935) rotate(0 86.17053389563725 0)"><path d="M0 0 C28.72 0, 143.62 0, 172.34 0 M0 0 C28.72 0, 143.62 0, 172.34 0" stroke="#1e1e1e" stroke-width="2" fill="none"></path></g></g><mask></mask><g stroke-linecap="round"><g transform="translate(494.3247752828337 259.37778279270935) rotate(0 86.31457888409022 0)"><path d="M0 0 C28.77 0, 143.86 0, 172.63 0 M0 0 C28.77 0, 143.86 0, 172.63 0" stroke="#1e1e1e" stroke-width="2" fill="none"></path></g></g><mask></mask><g transform="translate(543.1176900502348 229.35750002091225) rotate(0 55.15625 9.199999999999989)"><text x="110.3125" y="0" font-family="Helvetica, Segoe UI Emoji" font-size="16px" fill="#1e1e1e" text-anchor="end" style="white-space: pre;" direction="ltr" dominant-baseline="text-before-edge">avl_readdata_o</text></g><g stroke-linecap="round"><g transform="translate(466.95393305101413 203.28464147797035) rotate(0 0 -21.9534293426305)"><path d="M0 0 C0 -7.32, 0 -36.59, 0 -43.91 M0 0 C0 -7.32, 0 -36.59, 0 -43.91" stroke="#1e1e1e" stroke-width="2" fill="none"></path></g></g><mask></mask><g stroke-linecap="round"><g transform="translate(466.95393305101413 159.37778279270935) rotate(0 -20 0)"><path d="M0 0 C-6.67 0, -33.33 0, -40 0 M0 0 C-6.67 0, -33.33 0, -40 0" stroke="#1e1e1e" stroke-width="2" fill="none"></path></g></g><mask></mask><g transform="translate(280.46145346175047 150) rotate(0 67.15625 9.200000000000003)"><text x="134.3125" y="0" font-family="Helvetica, Segoe UI Emoji" font-size="16px" fill="#1e1e1e" text-anchor="end" style="white-space: pre;" direction="ltr" dominant-baseline="text-before-edge">*cs_r_char_1_to_4</text></g><g stroke-linecap="round"><g transform="translate(168.74247958926367 359.37778279270935) rotate(0 0 60)"><path d="M0 0 C0 20, 0 100, 0 120 M0 0 C0 20, 0 100, 0 120" stroke="#1e1e1e" stroke-width="2" fill="none"></path></g></g><mask></mask><g stroke-linecap="round"><g transform="translate(168.74247958926367 359.37778279270935) rotate(0 50 30)"><path d="M0 0 C16.67 10, 83.33 50, 100 60 M0 0 C16.67 10, 83.33 50, 100 60" stroke="#1e1e1e" stroke-width="2" fill="none"></path></g></g><mask></mask><g stroke-linecap="round"><g transform="translate(268.74247958926367 419.37778279270935) rotate(0 -50 30)"><path d="M0 0 C-16.67 10, -83.33 50, -100 60 M0 0 C-16.67 10, -83.33 50, -100 60" stroke="#1e1e1e" stroke-width="2" fill="none"></path></g></g><mask></mask><g transform="translate(65.98385903824942 408.3044451662672) rotate(0 41.3671875 9.199999999999989)"><text x="82.734375" y="0" font-family="Helvetica, Segoe UI Emoji" font-size="16px" fill="#1e1e1e" text-anchor="end" style="white-space: pre;" direction="ltr" dominant-baseline="text-before-edge">0x1234cafe</text></g><g stroke-linecap="round"><g transform="translate(168.74247958926367 399.37778279270935) rotate(0 -50.99649777550712 0)"><path d="M0 0 C-17 0, -84.99 0, -101.99 0 M0 0 C-17 0, -84.99 0, -101.99 0" stroke="#1e1e1e" stroke-width="2" fill="none"></path></g></g><mask></mask><g stroke-linecap="round"><g transform="translate(168.74247958926367 439.37778279270935) rotate(0 -50.99649777550712 0)"><path d="M0 0 C-17 0, -84.99 0, -101.99 0 M0 0 C-17 0, -84.99 0, -101.99 0" stroke="#1e1e1e" stroke-width="2" fill="none"></path></g></g><mask></mask><g stroke-linecap="round"><g transform="translate(236.4014117979891 399.37778279270935) rotate(0 86.17053389563725 0)"><path d="M0 0 C28.72 0, 143.62 0, 172.34 0 M0 0 C28.72 0, 143.62 0, 172.34 0" stroke="#1e1e1e" stroke-width="2" fill="none"></path></g></g><mask></mask><g stroke-linecap="round"><g transform="translate(236.11332182108322 439.37778279270935) rotate(0 86.31457888409022 0)"><path d="M0 0 C28.77 0, 143.86 0, 172.63 0 M0 0 C28.77 0, 143.86 0, 172.63 0" stroke="#1e1e1e" stroke-width="2" fill="none"></path></g></g><mask></mask><g transform="translate(284.90623658848426 409.3575000209122) rotate(0 55.15625 9.199999999999989)"><text x="110.3125" y="0" font-family="Helvetica, Segoe UI Emoji" font-size="16px" fill="#1e1e1e" text-anchor="end" style="white-space: pre;" direction="ltr" dominant-baseline="text-before-edge">avl_readdata_o</text></g><g stroke-linecap="round"><g transform="translate(208.74247958926367 383.28464147797035) rotate(0 0 -21.9534293426305)"><path d="M0 0 C0 -7.32, 0 -36.59, 0 -43.91 M0 0 C0 -7.32, 0 -36.59, 0 -43.91" stroke="#1e1e1e" stroke-width="2" fill="none"></path></g></g><mask></mask><g stroke-linecap="round"><g transform="translate(208.74247958926367 339.37778279270935) rotate(0 -20 0)"><path d="M0 0 C-6.67 0, -33.33 0, -40 0 M0 0 C-6.67 0, -33.33 0, -40 0" stroke="#1e1e1e" stroke-width="2" fill="none"></path></g></g><mask></mask><g transform="translate(64.9609375 330) rotate(0 45.80078125 9.199999999999989)"><text x="91.6015625" y="0" font-family="Helvetica, Segoe UI Emoji" font-size="16px" fill="#1e1e1e" text-anchor="end" style="white-space: pre;" direction="ltr" dominant-baseline="text-before-edge">cs_r_user_id</text></g><g stroke-linecap="round"><g transform="translate(613.3284170892637 359.37778279270935) rotate(0 0 60)"><path d="M0 0 C0 20, 0 100, 0 120 M0 0 C0 20, 0 100, 0 120" stroke="#1e1e1e" stroke-width="2" fill="none"></path></g></g><mask></mask><g stroke-linecap="round"><g transform="translate(613.3284170892637 359.37778279270935) rotate(0 50 30)"><path d="M0 0 C16.67 10, 83.33 50, 100 60 M0 0 C16.67 10, 83.33 50, 100 60" stroke="#1e1e1e" stroke-width="2" fill="none"></path></g></g><mask></mask><g stroke-linecap="round"><g transform="translate(713.3284170892637 419.37778279270935) rotate(0 -50 30)"><path d="M0 0 C-16.67 10, -83.33 50, -100 60 M0 0 C-16.67 10, -83.33 50, -100 60" stroke="#1e1e1e" stroke-width="2" fill="none"></path></g></g><mask></mask><g transform="translate(531.9213590382494 408.3044451662672) rotate(0 30.69140625 9.199999999999989)"><text x="61.3828125" y="0" font-family="Helvetica, Segoe UI Emoji" font-size="16px" fill="#1e1e1e" text-anchor="end" style="white-space: pre;" direction="ltr" dominant-baseline="text-before-edge">button_s</text></g><g stroke-linecap="round"><g transform="translate(613.3284170892637 399.37778279270935) rotate(0 -50.99649777550712 0)"><path d="M0 0 C-17 0, -84.99 0, -101.99 0 M0 0 C-17 0, -84.99 0, -101.99 0" stroke="#1e1e1e" stroke-width="2" fill="none"></path></g></g><mask></mask><g stroke-linecap="round"><g transform="translate(613.3284170892637 439.37778279270935) rotate(0 -50.99649777550712 0)"><path d="M0 0 C-17 0, -84.99 0, -101.99 0 M0 0 C-17 0, -84.99 0, -101.99 0" stroke="#1e1e1e" stroke-width="2" fill="none"></path></g></g><mask></mask><g stroke-linecap="round"><g transform="translate(680.9873492979891 399.37778279270935) rotate(0 86.17053389563725 0)"><path d="M0 0 C28.72 0, 143.62 0, 172.34 0 M0 0 C28.72 0, 143.62 0, 172.34 0" stroke="#1e1e1e" stroke-width="2" fill="none"></path></g></g><mask></mask><g stroke-linecap="round"><g transform="translate(680.6992593210832 439.37778279270935) rotate(0 86.31457888409022 0)"><path d="M0 0 C28.77 0, 143.86 0, 172.63 0 M0 0 C28.77 0, 143.86 0, 172.63 0" stroke="#1e1e1e" stroke-width="2" fill="none"></path></g></g><mask></mask><g transform="translate(729.4921740884843 409.3575000209122) rotate(0 55.15625 9.199999999999989)"><text x="110.3125" y="0" font-family="Helvetica, Segoe UI Emoji" font-size="16px" fill="#1e1e1e" text-anchor="end" style="white-space: pre;" direction="ltr" dominant-baseline="text-before-edge">avl_readdata_o</text></g><g stroke-linecap="round"><g transform="translate(653.3284170892637 383.28464147797035) rotate(0 0 -21.9534293426305)"><path d="M0 0 C0 -7.32, 0 -36.59, 0 -43.91 M0 0 C0 -7.32, 0 -36.59, 0 -43.91" stroke="#1e1e1e" stroke-width="2" fill="none"></path></g></g><mask></mask><g stroke-linecap="round"><g transform="translate(653.3284170892637 339.37778279270935) rotate(0 -20 0)"><path d="M0 0 C-6.67 0, -33.33 0, -40 0 M0 0 C-6.67 0, -33.33 0, -40 0" stroke="#1e1e1e" stroke-width="2" fill="none"></path></g></g><mask></mask><g transform="translate(539.78125 330) rotate(0 30.68359375 9.199999999999989)"><text x="61.3671875" y="0" font-family="Helvetica, Segoe UI Emoji" font-size="16px" fill="#1e1e1e" text-anchor="end" style="white-space: pre;" direction="ltr" dominant-baseline="text-before-edge">cs_r_btn</text></g><g stroke-linecap="round"><g transform="translate(168.74247958926367 539.3777827927094) rotate(0 0 60)"><path d="M0 0 C0 20, 0 100, 0 120 M0 0 C0 20, 0 100, 0 120" stroke="#1e1e1e" stroke-width="2" fill="none"></path></g></g><mask></mask><g stroke-linecap="round"><g transform="translate(168.74247958926367 539.3777827927094) rotate(0 50 30)"><path d="M0 0 C16.67 10, 83.33 50, 100 60 M0 0 C16.67 10, 83.33 50, 100 60" stroke="#1e1e1e" stroke-width="2" fill="none"></path></g></g><mask></mask><g stroke-linecap="round"><g transform="translate(268.74247958926367 599.3777827927094) rotate(0 -50 30)"><path d="M0 0 C-16.67 10, -83.33 50, -100 60 M0 0 C-16.67 10, -83.33 50, -100 60" stroke="#1e1e1e" stroke-width="2" fill="none"></path></g></g><mask></mask><g transform="translate(87.36667153824942 588.3044451662672) rotate(0 30.67578125 9.199999999999989)"><text x="61.3515625" y="0" font-family="Helvetica, Segoe UI Emoji" font-size="16px" fill="#1e1e1e" text-anchor="end" style="white-space: pre;" direction="ltr" dominant-baseline="text-before-edge">switch_s</text></g><g stroke-linecap="round"><g transform="translate(168.74247958926367 579.3777827927094) rotate(0 -50.99649777550712 0)"><path d="M0 0 C-17 0, -84.99 0, -101.99 0 M0 0 C-17 0, -84.99 0, -101.99 0" stroke="#1e1e1e" stroke-width="2" fill="none"></path></g></g><mask></mask><g stroke-linecap="round"><g transform="translate(168.74247958926367 619.3777827927094) rotate(0 -50.99649777550712 0)"><path d="M0 0 C-17 0, -84.99 0, -101.99 0 M0 0 C-17 0, -84.99 0, -101.99 0" stroke="#1e1e1e" stroke-width="2" fill="none"></path></g></g><mask></mask><g stroke-linecap="round"><g transform="translate(236.4014117979891 579.3777827927094) rotate(0 86.17053389563725 0)"><path d="M0 0 C28.72 0, 143.62 0, 172.34 0 M0 0 C28.72 0, 143.62 0, 172.34 0" stroke="#1e1e1e" stroke-width="2" fill="none"></path></g></g><mask></mask><g stroke-linecap="round"><g transform="translate(236.11332182108322 619.3777827927094) rotate(0 86.31457888409022 0)"><path d="M0 0 C28.77 0, 143.86 0, 172.63 0 M0 0 C28.77 0, 143.86 0, 172.63 0" stroke="#1e1e1e" stroke-width="2" fill="none"></path></g></g><mask></mask><g transform="translate(284.90623658848426 589.3575000209122) rotate(0 55.15625 9.199999999999989)"><text x="110.3125" y="0" font-family="Helvetica, Segoe UI Emoji" font-size="16px" fill="#1e1e1e" text-anchor="end" style="white-space: pre;" direction="ltr" dominant-baseline="text-before-edge">avl_readdata_o</text></g><g stroke-linecap="round"><g transform="translate(208.74247958926367 563.2846414779704) rotate(0 0 -21.9534293426305)"><path d="M0 0 C0 -7.32, 0 -36.59, 0 -43.91 M0 0 C0 -7.32, 0 -36.59, 0 -43.91" stroke="#1e1e1e" stroke-width="2" fill="none"></path></g></g><mask></mask><g stroke-linecap="round"><g transform="translate(208.74247958926367 519.3777827927094) rotate(0 -20 0)"><path d="M0 0 C-6.67 0, -33.33 0, -40 0 M0 0 C-6.67 0, -33.33 0, -40 0" stroke="#1e1e1e" stroke-width="2" fill="none"></path></g></g><mask></mask><g transform="translate(72.984375 510) rotate(0 41.7890625 9.199999999999989)"><text x="83.578125" y="0" font-family="Helvetica, Segoe UI Emoji" font-size="16px" fill="#1e1e1e" text-anchor="end" style="white-space: pre;" direction="ltr" dominant-baseline="text-before-edge">cs_r_switch</text></g><g stroke-linecap="round"><g transform="translate(613.3284170892637 539.3777827927094) rotate(0 0 60)"><path d="M0 0 C0 20, 0 100, 0 120 M0 0 C0 20, 0 100, 0 120" stroke="#1e1e1e" stroke-width="2" fill="none"></path></g></g><mask></mask><g stroke-linecap="round"><g transform="translate(613.3284170892637 539.3777827927094) rotate(0 50 30)"><path d="M0 0 C16.67 10, 83.33 50, 100 60 M0 0 C16.67 10, 83.33 50, 100 60" stroke="#1e1e1e" stroke-width="2" fill="none"></path></g></g><mask></mask><g stroke-linecap="round"><g transform="translate(713.3284170892637 599.3777827927094) rotate(0 -50 30)"><path d="M0 0 C-16.67 10, -83.33 50, -100 60 M0 0 C-16.67 10, -83.33 50, -100 60" stroke="#1e1e1e" stroke-width="2" fill="none"></path></g></g><mask></mask><g transform="translate(547.0541715382494 588.3044451662672) rotate(0 23.125 9.199999999999989)"><text x="46.25" y="0" font-family="Helvetica, Segoe UI Emoji" font-size="16px" fill="#1e1e1e" text-anchor="end" style="white-space: pre;" direction="ltr" dominant-baseline="text-before-edge">leds_s</text></g><g stroke-linecap="round"><g transform="translate(613.3284170892637 579.3777827927094) rotate(0 -50.99649777550712 0)"><path d="M0 0 C-17 0, -84.99 0, -101.99 0 M0 0 C-17 0, -84.99 0, -101.99 0" stroke="#1e1e1e" stroke-width="2" fill="none"></path></g></g><mask></mask><g stroke-linecap="round"><g transform="translate(613.3284170892637 619.3777827927094) rotate(0 -50.99649777550712 0)"><path d="M0 0 C-17 0, -84.99 0, -101.99 0 M0 0 C-17 0, -84.99 0, -101.99 0" stroke="#1e1e1e" stroke-width="2" fill="none"></path></g></g><mask></mask><g stroke-linecap="round"><g transform="translate(680.9873492979891 579.3777827927094) rotate(0 86.17053389563725 0)"><path d="M0 0 C28.72 0, 143.62 0, 172.34 0 M0 0 C28.72 0, 143.62 0, 172.34 0" stroke="#1e1e1e" stroke-width="2" fill="none"></path></g></g><mask></mask><g stroke-linecap="round"><g transform="translate(680.6992593210832 619.3777827927094) rotate(0 86.31457888409022 0)"><path d="M0 0 C28.77 0, 143.86 0, 172.63 0 M0 0 C28.77 0, 143.86 0, 172.63 0" stroke="#1e1e1e" stroke-width="2" fill="none"></path></g></g><mask></mask><g transform="translate(729.4921740884843 589.3575000209122) rotate(0 55.15625 9.199999999999989)"><text x="110.3125" y="0" font-family="Helvetica, Segoe UI Emoji" font-size="16px" fill="#1e1e1e" text-anchor="end" style="white-space: pre;" direction="ltr" dominant-baseline="text-before-edge">avl_readdata_o</text></g><g stroke-linecap="round"><g transform="translate(653.3284170892637 563.2846414779704) rotate(0 0 -21.9534293426305)"><path d="M0 0 C0 -7.32, 0 -36.59, 0 -43.91 M0 0 C0 -7.32, 0 -36.59, 0 -43.91" stroke="#1e1e1e" stroke-width="2" fill="none"></path></g></g><mask></mask><g stroke-linecap="round"><g transform="translate(653.3284170892637 519.3777827927094) rotate(0 -20 0)"><path d="M0 0 C-6.67 0, -33.33 0, -40 0 M0 0 C-6.67 0, -33.33 0, -40 0" stroke="#1e1e1e" stroke-width="2" fill="none"></path></g></g><mask></mask><g transform="translate(540.671875 510) rotate(0 30.23828125 9.199999999999989)"><text x="60.4765625" y="0" font-family="Helvetica, Segoe UI Emoji" font-size="16px" fill="#1e1e1e" text-anchor="end" style="white-space: pre;" direction="ltr" dominant-baseline="text-before-edge">cs_r_led</text></g><g stroke-linecap="round"><g transform="translate(166.95393305101425 719.3777827927092) rotate(0 0 60)"><path d="M0 0 C0 20, 0 100, 0 120 M0 0 C0 20, 0 100, 0 120" stroke="#1e1e1e" stroke-width="2" fill="none"></path></g></g><mask></mask><g stroke-linecap="round"><g transform="translate(166.95393305101425 719.3777827927092) rotate(0 50 30)"><path d="M0 0 C16.67 10, 83.33 50, 100 60 M0 0 C16.67 10, 83.33 50, 100 60" stroke="#1e1e1e" stroke-width="2" fill="none"></path></g></g><mask></mask><g stroke-linecap="round"><g transform="translate(266.95393305101425 779.3777827927092) rotate(0 -50 30)"><path d="M0 0 C-16.67 10, -83.33 50, -100 60 M0 0 C-16.67 10, -83.33 50, -100 60" stroke="#1e1e1e" stroke-width="2" fill="none"></path></g></g><mask></mask><g transform="translate(10 768.3044451662672) rotate(0 68.46484375 9.199999999999989)"><text x="136.9296875" y="0" font-family="Helvetica, Segoe UI Emoji" font-size="16px" fill="#1e1e1e" text-anchor="end" style="white-space: pre;" direction="ltr" dominant-baseline="text-before-edge">`0..0` &amp;`1` &amp; lock_s</text></g><g stroke-linecap="round"><g transform="translate(166.95393305101425 759.3777827927092) rotate(0 -50.99649777550712 0)"><path d="M0 0 C-17 0, -84.99 0, -101.99 0 M0 0 C-17 0, -84.99 0, -101.99 0" stroke="#1e1e1e" stroke-width="2" fill="none"></path></g></g><mask></mask><g stroke-linecap="round"><g transform="translate(166.95393305101425 799.3777827927092) rotate(0 -50.99649777550712 0)"><path d="M0 0 C-17 0, -84.99 0, -101.99 0 M0 0 C-17 0, -84.99 0, -101.99 0" stroke="#1e1e1e" stroke-width="2" fill="none"></path></g></g><mask></mask><g stroke-linecap="round"><g transform="translate(234.6128652597397 759.3777827927092) rotate(0 86.17053389563725 0)"><path d="M0 0 C28.72 0, 143.62 0, 172.34 0 M0 0 C28.72 0, 143.62 0, 172.34 0" stroke="#1e1e1e" stroke-width="2" fill="none"></path></g></g><mask></mask><g stroke-linecap="round"><g transform="translate(234.3247752828338 799.3777827927092) rotate(0 86.31457888409022 0)"><path d="M0 0 C28.77 0, 143.86 0, 172.63 0 M0 0 C28.77 0, 143.86 0, 172.63 0" stroke="#1e1e1e" stroke-width="2" fill="none"></path></g></g><mask></mask><g transform="translate(283.11769005023484 769.3575000209121) rotate(0 55.15625 9.199999999999989)"><text x="110.3125" y="0" font-family="Helvetica, Segoe UI Emoji" font-size="16px" fill="#1e1e1e" text-anchor="end" style="white-space: pre;" direction="ltr" dominant-baseline="text-before-edge">avl_readdata_o</text></g><g stroke-linecap="round"><g transform="translate(206.95393305101425 743.2846414779704) rotate(0 0 -21.9534293426305)"><path d="M0 0 C0 -7.32, 0 -36.59, 0 -43.91 M0 0 C0 -7.32, 0 -36.59, 0 -43.91" stroke="#1e1e1e" stroke-width="2" fill="none"></path></g></g><mask></mask><g stroke-linecap="round"><g transform="translate(206.95393305101425 699.3777827927092) rotate(0 -20 0)"><path d="M0 0 C-6.67 0, -33.33 0, -40 0 M0 0 C-6.67 0, -33.33 0, -40 0" stroke="#1e1e1e" stroke-width="2" fill="none"></path></g></g><mask></mask><g transform="translate(33.83645346175058 690) rotate(0 60.46875 9.199999999999989)"><text x="120.9375" y="0" font-family="Helvetica, Segoe UI Emoji" font-size="16px" fill="#1e1e1e" text-anchor="end" style="white-space: pre;" direction="ltr" dominant-baseline="text-before-edge">cs_r_status_cmd</text></g><g stroke-linecap="round"><g transform="translate(372.65705805101425 879.3777827927092) rotate(0 0 60)"><path d="M0 0 C0 20, 0 100, 0 120 M0 0 C0 20, 0 100, 0 120" stroke="#1e1e1e" stroke-width="2" fill="none"></path></g></g><mask></mask><g stroke-linecap="round"><g transform="translate(372.65705805101425 879.3777827927092) rotate(0 50 30)"><path d="M0 0 C16.67 10, 83.33 50, 100 60 M0 0 C16.67 10, 83.33 50, 100 60" stroke="#1e1e1e" stroke-width="2" fill="none"></path></g></g><mask></mask><g stroke-linecap="round"><g transform="translate(472.65705805101425 939.3777827927092) rotate(0 -50 30)"><path d="M0 0 C-16.67 10, -83.33 50, -100 60 M0 0 C-16.67 10, -83.33 50, -100 60" stroke="#1e1e1e" stroke-width="2" fill="none"></path></g></g><mask></mask><g transform="translate(130.381394282344 929.388536522736) rotate(0 113.8359375 9.199999999999989)"><text x="227.671875" y="0" font-family="Helvetica, Segoe UI Emoji" font-size="16px" fill="#1e1e1e" text-anchor="end" style="white-space: pre;" direction="ltr" dominant-baseline="text-before-edge">`0..0` &amp; auto_s &amp; `00` &amp; delay_s</text></g><g stroke-linecap="round"><g transform="translate(372.65705805101425 919.3777827927092) rotate(0 -50.99649777550712 0)"><path d="M0 0 C-17 0, -84.99 0, -101.99 0 M0 0 C-17 0, -84.99 0, -101.99 0" stroke="#1e1e1e" stroke-width="2" fill="none"></path></g></g><mask></mask><g stroke-linecap="round"><g transform="translate(372.65705805101425 959.3777827927092) rotate(0 -50.99649777550712 0)"><path d="M0 0 C-17 0, -84.99 0, -101.99 0 M0 0 C-17 0, -84.99 0, -101.99 0" stroke="#1e1e1e" stroke-width="2" fill="none"></path></g></g><mask></mask><g stroke-linecap="round"><g transform="translate(440.3159902597397 919.3777827927092) rotate(0 86.17053389563725 0)"><path d="M0 0 C28.72 0, 143.62 0, 172.34 0 M0 0 C28.72 0, 143.62 0, 172.34 0" stroke="#1e1e1e" stroke-width="2" fill="none"></path></g></g><mask></mask><g stroke-linecap="round"><g transform="translate(440.0279002828338 959.3777827927092) rotate(0 86.31457888409022 0)"><path d="M0 0 C28.77 0, 143.86 0, 172.63 0 M0 0 C28.77 0, 143.86 0, 172.63 0" stroke="#1e1e1e" stroke-width="2" fill="none"></path></g></g><mask></mask><g transform="translate(488.82081505023484 929.3575000209121) rotate(0 55.15625 9.199999999999989)"><text x="110.3125" y="0" font-family="Helvetica, Segoe UI Emoji" font-size="16px" fill="#1e1e1e" text-anchor="end" style="white-space: pre;" direction="ltr" dominant-baseline="text-before-edge">avl_readdata_o</text></g><g stroke-linecap="round"><g transform="translate(412.65705805101425 903.2846414779704) rotate(0 0 -21.9534293426305)"><path d="M0 0 C0 -7.32, 0 -36.59, 0 -43.91 M0 0 C0 -7.32, 0 -36.59, 0 -43.91" stroke="#1e1e1e" stroke-width="2" fill="none"></path></g></g><mask></mask><g stroke-linecap="round"><g transform="translate(412.65705805101425 859.3777827927092) rotate(0 -20 0)"><path d="M0 0 C-6.67 0, -33.33 0, -40 0 M0 0 C-6.67 0, -33.33 0, -40 0" stroke="#1e1e1e" stroke-width="2" fill="none"></path></g></g><mask></mask><g transform="translate(198.58645346175058 850) rotate(0 80.9453125 9.199999999999989)"><text x="161.890625" y="0" font-family="Helvetica, Segoe UI Emoji" font-size="16px" fill="#1e1e1e" text-anchor="end" style="white-space: pre;" direction="ltr" dominant-baseline="text-before-edge">cs_r_mode_delay_gen</text></g><g stroke-linecap="round"><g transform="translate(628.2893545892637 719.3777827927092) rotate(0 0 60)"><path d="M0 0 C0 20, 0 100, 0 120 M0 0 C0 20, 0 100, 0 120" stroke="#1e1e1e" stroke-width="2" fill="none"></path></g></g><mask></mask><g stroke-linecap="round"><g transform="translate(628.2893545892637 719.3777827927092) rotate(0 50 30)"><path d="M0 0 C16.67 10, 83.33 50, 100 60 M0 0 C16.67 10, 83.33 50, 100 60" stroke="#1e1e1e" stroke-width="2" fill="none"></path></g></g><mask></mask><g stroke-linecap="round"><g transform="translate(728.2893545892637 779.3777827927092) rotate(0 -50 30)"><path d="M0 0 C-16.67 10, -83.33 50, -100 60 M0 0 C-16.67 10, -83.33 50, -100 60" stroke="#1e1e1e" stroke-width="2" fill="none"></path></g></g><mask></mask><g transform="translate(464.9609375 770) rotate(0 72.9140625 9.199999999999989)"><text x="145.828125" y="0" font-family="Helvetica, Segoe UI Emoji" font-size="16px" fill="#1e1e1e" text-anchor="end" style="white-space: pre;" direction="ltr" dominant-baseline="text-before-edge">`0..0` &amp; checksum_s</text></g><g stroke-linecap="round"><g transform="translate(628.2893545892637 759.3777827927092) rotate(0 -50.99649777550712 0)"><path d="M0 0 C-17 0, -84.99 0, -101.99 0 M0 0 C-17 0, -84.99 0, -101.99 0" stroke="#1e1e1e" stroke-width="2" fill="none"></path></g></g><mask></mask><g stroke-linecap="round"><g transform="translate(628.2893545892637 799.3777827927092) rotate(0 -50.99649777550712 0)"><path d="M0 0 C-17 0, -84.99 0, -101.99 0 M0 0 C-17 0, -84.99 0, -101.99 0" stroke="#1e1e1e" stroke-width="2" fill="none"></path></g></g><mask></mask><g stroke-linecap="round"><g transform="translate(695.9482867979891 759.3777827927092) rotate(0 86.17053389563725 0)"><path d="M0 0 C28.72 0, 143.62 0, 172.34 0 M0 0 C28.72 0, 143.62 0, 172.34 0" stroke="#1e1e1e" stroke-width="2" fill="none"></path></g></g><mask></mask><g stroke-linecap="round"><g transform="translate(695.6601968210832 799.3777827927092) rotate(0 86.31457888409022 0)"><path d="M0 0 C28.77 0, 143.86 0, 172.63 0 M0 0 C28.77 0, 143.86 0, 172.63 0" stroke="#1e1e1e" stroke-width="2" fill="none"></path></g></g><mask></mask><g transform="translate(744.4531115884843 769.3575000209121) rotate(0 55.15625 9.199999999999989)"><text x="110.3125" y="0" font-family="Helvetica, Segoe UI Emoji" font-size="16px" fill="#1e1e1e" text-anchor="end" style="white-space: pre;" direction="ltr" dominant-baseline="text-before-edge">avl_readdata_o</text></g><g stroke-linecap="round"><g transform="translate(668.2893545892637 743.2846414779704) rotate(0 0 -21.9534293426305)"><path d="M0 0 C0 -7.32, 0 -36.59, 0 -43.91 M0 0 C0 -7.32, 0 -36.59, 0 -43.91" stroke="#1e1e1e" stroke-width="2" fill="none"></path></g></g><mask></mask><g stroke-linecap="round"><g transform="translate(668.2893545892637 699.3777827927092) rotate(0 -20 0)"><path d="M0 0 C-6.67 0, -33.33 0, -40 0 M0 0 C-6.67 0, -33.33 0, -40 0" stroke="#1e1e1e" stroke-width="2" fill="none"></path></g></g><mask></mask><g transform="translate(504.9609375 690) rotate(0 55.57421875 9.199999999999989)"><text x="111.1484375" y="0" font-family="Helvetica, Segoe UI Emoji" font-size="16px" fill="#1e1e1e" text-anchor="end" style="white-space: pre;" direction="ltr" dominant-baseline="text-before-edge">cs_r_checksum</text></g><g transform="translate(64.9609375 1030) rotate(0 132.08984375 9.200000000000045)"><text x="264.1796875" y="0" font-family="Helvetica, Segoe UI Emoji" font-size="16px" fill="#1e1e1e" text-anchor="end" style="white-space: pre;" direction="ltr" dominant-baseline="text-before-edge">*same for 5 to 8, 9 to 12 and 13 to 16</text></g></svg>