<svg version="1.1" xmlns="http://www.w3.org/2000/svg" viewBox="0 0 720 389.93827423573623" width="720" height="389.93827423573623">
  <!-- svg-source:excalidraw -->
  
  <defs>
    <style class="style-fonts">
      @font-face {
        font-family: "Virgil";
        src: url("https://file%2B.vscode-resource.vscode-cdn.net/home/aiorio/.vscode/extensions/pomdtr.excalidraw-editor-3.7.4/public//dist/excalidraw-assets/Virgil.woff2");
      }
      @font-face {
        font-family: "Cascadia";
        src: url("https://file%2B.vscode-resource.vscode-cdn.net/home/aiorio/.vscode/extensions/pomdtr.excalidraw-editor-3.7.4/public//dist/excalidraw-assets/Cascadia.woff2");
      }
      @font-face {
        font-family: "Assistant";
        src: url("https://file%2B.vscode-resource.vscode-cdn.net/home/aiorio/.vscode/extensions/pomdtr.excalidraw-editor-3.7.4/public//dist/excalidraw-assets/Assistant-Regular.woff2");
      }
    </style>
    
  </defs>
  <rect x="0" y="0" width="720" height="389.93827423573623" fill="#ffffff"></rect><g stroke-linecap="round"><g transform="translate(130 130) rotate(0 0 30)"><path d="M0 0 C0 10, 0 50, 0 60 M0 0 C0 10, 0 50, 0 60" stroke="#1e1e1e" stroke-width="2" fill="none"></path></g></g><mask></mask><g stroke-linecap="round"><g transform="translate(130 190) rotate(0 10 0)"><path d="M0 0 C3.33 0, 16.67 0, 20 0 M0 0 C3.33 0, 16.67 0, 20 0" stroke="#1e1e1e" stroke-width="2" fill="none"></path></g></g><mask></mask><g stroke-linecap="round"><g transform="translate(150 190) rotate(0 0 10)"><path d="M0 0 C0 3.33, 0 16.67, 0 20 M0 0 C0 3.33, 0 16.67, 0 20" stroke="#1e1e1e" stroke-width="2" fill="none"></path></g></g><mask></mask><g stroke-linecap="round"><g transform="translate(130 210) rotate(0 10 0)"><path d="M0 0 C3.33 0, 16.67 0, 20 0 M0 0 C3.33 0, 16.67 0, 20 0" stroke="#1e1e1e" stroke-width="2" fill="none"></path></g></g><mask></mask><g stroke-linecap="round"><g transform="translate(130 210) rotate(0 0 70)"><path d="M0 0 C0 23.33, 0 116.67, 0 140 M0 0 C0 23.33, 0 116.67, 0 140" stroke="#1e1e1e" stroke-width="2" fill="none"></path></g></g><mask></mask><g stroke-linecap="round"><g transform="translate(130 350) rotate(0 50 0)"><path d="M0 0 C16.67 0, 83.33 0, 100 0 M0 0 C16.67 0, 83.33 0, 100 0" stroke="#1e1e1e" stroke-width="2" fill="none"></path></g></g><mask></mask><g stroke-linecap="round"><g transform="translate(228.65477239225356 210) rotate(0 0 70)"><path d="M0 0 C0 23.33, 0 116.67, 0 140 M0 0 C0 23.33, 0 116.67, 0 140" stroke="#1e1e1e" stroke-width="2" fill="none"></path></g></g><mask></mask><g stroke-linecap="round"><g transform="translate(228.65477239225356 210) rotate(0 -10 0)"><path d="M0 0 C-3.33 0, -16.67 0, -20 0 M0 0 C-3.33 0, -16.67 0, -20 0" stroke="#1e1e1e" stroke-width="2" fill="none"></path></g></g><mask></mask><g stroke-linecap="round"><g transform="translate(208.65477239225356 190) rotate(0 0 10)"><path d="M0 0 C0 3.33, 0 16.67, 0 20 M0 0 C0 3.33, 0 16.67, 0 20" stroke="#1e1e1e" stroke-width="2" fill="none"></path></g></g><mask></mask><g stroke-linecap="round"><g transform="translate(208.65477239225356 190) rotate(0 10 0)"><path d="M0 0 C3.33 0, 16.67 0, 20 0 M0 0 C3.33 0, 16.67 0, 20 0" stroke="#1e1e1e" stroke-width="2" fill="none"></path></g></g><mask></mask><g stroke-linecap="round"><g transform="translate(228.65477239225356 130) rotate(0 0 30)"><path d="M0 0 C0 10, 0 50, 0 60 M0 0 C0 10, 0 50, 0 60" stroke="#1e1e1e" stroke-width="2" fill="none"></path></g></g><mask></mask><g stroke-linecap="round"><g transform="translate(230 130) rotate(0 -50 0)"><path d="M0 0 C-16.67 0, -83.33 0, -100 0 M0 0 C-16.67 0, -83.33 0, -100 0" stroke="#1e1e1e" stroke-width="2" fill="none"></path></g></g><mask></mask><g transform="translate(173.0700253719774 147.72221246707636) rotate(0 5.383384704589844 11.13889376646182)"><text x="0" y="0" font-family="Helvetica, Segoe UI Emoji" font-size="19.371989159064015px" fill="#1e1e1e" text-anchor="start" style="white-space: pre;" direction="ltr" dominant-baseline="text-before-edge">4</text></g><g transform="translate(143.57976449639 230.60790097665085) rotate(0 5.77734375 9.199999999999989)"><text x="0" y="0" font-family="Helvetica, Segoe UI Emoji" font-size="16px" fill="#1e1e1e" text-anchor="start" style="white-space: pre;" direction="ltr" dominant-baseline="text-before-edge">D</text></g><g transform="translate(210 230.8349539111025) rotate(0 6.22265625 9.199999999999989)"><text x="0" y="0" font-family="Helvetica, Segoe UI Emoji" font-size="16px" fill="#1e1e1e" text-anchor="start" style="white-space: pre;" direction="ltr" dominant-baseline="text-before-edge">Q</text></g><g stroke-linecap="round"><g transform="translate(219.87818048822646 230) rotate(0 4.38829595201355 0)"><path d="M0 0 C1.46 0, 7.31 0, 8.78 0 M0 0 C1.46 0, 7.31 0, 8.78 0" stroke="#1e1e1e" stroke-width="2" fill="none"></path></g></g><mask></mask><g stroke-linecap="round"><g transform="translate(130 230) rotate(0 4.238730547340083 0)"><path d="M0 0 C1.41 0, 7.06 0, 8.48 0 M0 0 C1.41 0, 7.06 0, 8.48 0" stroke="#1e1e1e" stroke-width="2" fill="none"></path></g></g><mask></mask><g stroke-linecap="round"><g transform="translate(130 290) rotate(0 9.689781269631965 4.9317932959814925)"><path d="M0 0 C3.23 1.64, 16.15 8.22, 19.38 9.86 M0 0 C3.23 1.64, 16.15 8.22, 19.38 9.86" stroke="#1e1e1e" stroke-width="2" fill="none"></path></g></g><mask></mask><g stroke-linecap="round"><g transform="translate(130 310) rotate(0 9.650560844169718 -5.041299885356807)"><path d="M0 0 C3.22 -1.68, 16.08 -8.4, 19.3 -10.08 M0 0 C3.22 -1.68, 16.08 -8.4, 19.3 -10.08" stroke="#1e1e1e" stroke-width="2" fill="none"></path></g></g><mask></mask><g stroke-linecap="round"><g transform="translate(129.8925681547246 301.16368625055884) rotate(0 -6.746929099116414 0)"><path d="M0 0 C-2.25 0, -11.24 0, -13.49 0 M0 0 C-2.25 0, -11.24 0, -13.49 0" stroke="#1e1e1e" stroke-width="2" fill="none"></path></g></g><mask></mask><g transform="translate(90 290) rotate(0 10.617584228515625 10)"><text x="0" y="0" font-family="Helvetica, Segoe UI Emoji" font-size="17.391304347826082px" fill="#1e1e1e" text-anchor="start" style="white-space: pre;" direction="ltr" dominant-baseline="text-before-edge">clk</text></g><g stroke-linecap="round"><g transform="translate(219.99733564503595 250.27944532881565) rotate(0 4.38829595201355 0)"><path d="M0 0 C1.46 0, 7.31 0, 8.78 0 M0 0 C1.46 0, 7.31 0, 8.78 0" stroke="#1e1e1e" stroke-width="2" fill="none"></path></g></g><mask></mask><g transform="translate(270 230) rotate(0 30.69140625 9.199999999999989)"><text x="0" y="0" font-family="Helvetica, Segoe UI Emoji" font-size="16px" fill="#1e1e1e" text-anchor="start" style="white-space: pre;" direction="ltr" dominant-baseline="text-before-edge">button_s</text></g><g transform="translate(14.4375 230) rotate(0 28.46875 9.199999999999989)"><text x="56.9375" y="0" font-family="Helvetica, Segoe UI Emoji" font-size="16px" fill="#1e1e1e" text-anchor="end" style="white-space: pre;" direction="ltr" dominant-baseline="text-before-edge">button_i</text></g><g stroke-linecap="round"><g transform="translate(10 230) rotate(0 60 0)"><path d="M0 0 C20 0, 100 0, 120 0 M0 0 C20 0, 100 0, 120 0" stroke="#1e1e1e" stroke-width="2" fill="none"></path></g></g><mask></mask><g stroke-linecap="round"><g transform="translate(10 250) rotate(0 60 0)"><path d="M0 0 C20 0, 100 0, 120 0 M0 0 C20 0, 100 0, 120 0" stroke="#1e1e1e" stroke-width="2" fill="none"></path></g></g><mask></mask><g stroke-linecap="round"><g transform="translate(130 250) rotate(0 4.238730547340083 0)"><path d="M0 0 C1.41 0, 7.06 0, 8.48 0 M0 0 C1.41 0, 7.06 0, 8.48 0" stroke="#1e1e1e" stroke-width="2" fill="none"></path></g></g><mask></mask><g stroke-linecap="round"><g transform="translate(179.36132619476757 350.91506865425276) rotate(0 0 0.5997064349491552)"><path d="M0 0 C0 -1.71, 0 -12.15, 0 -10.24 C0 -8.34, 0 7.83, 0 11.44 M0 0 C0 -1.71, 0 -12.15, 0 -10.24 C0 -8.34, 0 7.83, 0 11.44" stroke="#1e1e1e" stroke-width="2" fill="none"></path></g></g><mask></mask><g transform="translate(177.36131286964292 321.395844931963) rotate(0 2.6640625 9.199999999999989)"><text x="0" y="0" font-family="Helvetica, Segoe UI Emoji" font-size="16px" fill="#1e1e1e" text-anchor="start" style="white-space: pre;" direction="ltr" dominant-baseline="text-before-edge">r</text></g><g transform="translate(137.54323818508078 361.53827423573625) rotate(0 38.6875 9.199999999999989)"><text x="77.375" y="0" font-family="Helvetica, Segoe UI Emoji" font-size="16px" fill="#1e1e1e" text-anchor="end" style="white-space: pre;" direction="ltr" dominant-baseline="text-before-edge">avl_reset_i</text></g><g stroke-linecap="round"><g transform="translate(230 230) rotate(0 60 0)"><path d="M0 0 C20 0, 100 0, 120 0 M0 0 C20 0, 100 0, 120 0" stroke="#1e1e1e" stroke-width="2" fill="none"></path></g></g><mask></mask><g stroke-linecap="round"><g transform="translate(350 250) rotate(0 -60 0)"><path d="M0 0 C-20 0, -100 0, -120 0 M0 0 C-20 0, -100 0, -120 0" stroke="#1e1e1e" stroke-width="2" fill="none"></path></g></g><mask></mask><g stroke-linecap="round"><g transform="translate(490 130) rotate(0 0 30)"><path d="M0 0 C0 10, 0 50, 0 60 M0 0 C0 10, 0 50, 0 60" stroke="#1e1e1e" stroke-width="2" fill="none"></path></g></g><mask></mask><g stroke-linecap="round"><g transform="translate(490 190) rotate(0 10 0)"><path d="M0 0 C3.33 0, 16.67 0, 20 0 M0 0 C3.33 0, 16.67 0, 20 0" stroke="#1e1e1e" stroke-width="2" fill="none"></path></g></g><mask></mask><g stroke-linecap="round"><g transform="translate(510 190) rotate(0 0 10)"><path d="M0 0 C0 3.33, 0 16.67, 0 20 M0 0 C0 3.33, 0 16.67, 0 20" stroke="#1e1e1e" stroke-width="2" fill="none"></path></g></g><mask></mask><g stroke-linecap="round"><g transform="translate(490 210) rotate(0 10 0)"><path d="M0 0 C3.33 0, 16.67 0, 20 0 M0 0 C3.33 0, 16.67 0, 20 0" stroke="#1e1e1e" stroke-width="2" fill="none"></path></g></g><mask></mask><g stroke-linecap="round"><g transform="translate(490 210) rotate(0 0 70)"><path d="M0 0 C0 23.33, 0 116.67, 0 140 M0 0 C0 23.33, 0 116.67, 0 140" stroke="#1e1e1e" stroke-width="2" fill="none"></path></g></g><mask></mask><g stroke-linecap="round"><g transform="translate(490 350) rotate(0 50 0)"><path d="M0 0 C16.67 0, 83.33 0, 100 0 M0 0 C16.67 0, 83.33 0, 100 0" stroke="#1e1e1e" stroke-width="2" fill="none"></path></g></g><mask></mask><g stroke-linecap="round"><g transform="translate(588.6547723922536 210) rotate(0 0 70)"><path d="M0 0 C0 23.33, 0 116.67, 0 140 M0 0 C0 23.33, 0 116.67, 0 140" stroke="#1e1e1e" stroke-width="2" fill="none"></path></g></g><mask></mask><g stroke-linecap="round"><g transform="translate(588.6547723922536 210) rotate(0 -10 0)"><path d="M0 0 C-3.33 0, -16.67 0, -20 0 M0 0 C-3.33 0, -16.67 0, -20 0" stroke="#1e1e1e" stroke-width="2" fill="none"></path></g></g><mask></mask><g stroke-linecap="round"><g transform="translate(568.6547723922536 190) rotate(0 0 10)"><path d="M0 0 C0 3.33, 0 16.67, 0 20 M0 0 C0 3.33, 0 16.67, 0 20" stroke="#1e1e1e" stroke-width="2" fill="none"></path></g></g><mask></mask><g stroke-linecap="round"><g transform="translate(568.6547723922536 190) rotate(0 10 0)"><path d="M0 0 C3.33 0, 16.67 0, 20 0 M0 0 C3.33 0, 16.67 0, 20 0" stroke="#1e1e1e" stroke-width="2" fill="none"></path></g></g><mask></mask><g stroke-linecap="round"><g transform="translate(588.6547723922536 130) rotate(0 0 30)"><path d="M0 0 C0 10, 0 50, 0 60 M0 0 C0 10, 0 50, 0 60" stroke="#1e1e1e" stroke-width="2" fill="none"></path></g></g><mask></mask><g stroke-linecap="round"><g transform="translate(590 130) rotate(0 -50 0)"><path d="M0 0 C-16.67 0, -83.33 0, -100 0 M0 0 C-16.67 0, -83.33 0, -100 0" stroke="#1e1e1e" stroke-width="2" fill="none"></path></g></g><mask></mask><g transform="translate(533.0700253719774 147.72221246707636) rotate(0 10.766769409179688 11.13889376646182)"><text x="0" y="0" font-family="Helvetica, Segoe UI Emoji" font-size="19.371989159064015px" fill="#1e1e1e" text-anchor="start" style="white-space: pre;" direction="ltr" dominant-baseline="text-before-edge">10</text></g><g transform="translate(503.57976449639 230.60790097665085) rotate(0 5.77734375 9.199999999999989)"><text x="0" y="0" font-family="Helvetica, Segoe UI Emoji" font-size="16px" fill="#1e1e1e" text-anchor="start" style="white-space: pre;" direction="ltr" dominant-baseline="text-before-edge">D</text></g><g transform="translate(570 230.8349539111025) rotate(0 6.22265625 9.199999999999989)"><text x="0" y="0" font-family="Helvetica, Segoe UI Emoji" font-size="16px" fill="#1e1e1e" text-anchor="start" style="white-space: pre;" direction="ltr" dominant-baseline="text-before-edge">Q</text></g><g stroke-linecap="round"><g transform="translate(579.8781804882265 230) rotate(0 4.38829595201355 0)"><path d="M0 0 C1.46 0, 7.31 0, 8.78 0 M0 0 C1.46 0, 7.31 0, 8.78 0" stroke="#1e1e1e" stroke-width="2" fill="none"></path></g></g><mask></mask><g stroke-linecap="round"><g transform="translate(490 230) rotate(0 4.238730547340083 0)"><path d="M0 0 C1.41 0, 7.06 0, 8.48 0 M0 0 C1.41 0, 7.06 0, 8.48 0" stroke="#1e1e1e" stroke-width="2" fill="none"></path></g></g><mask></mask><g stroke-linecap="round"><g transform="translate(490 290) rotate(0 9.689781269631965 4.9317932959814925)"><path d="M0 0 C3.23 1.64, 16.15 8.22, 19.38 9.86 M0 0 C3.23 1.64, 16.15 8.22, 19.38 9.86" stroke="#1e1e1e" stroke-width="2" fill="none"></path></g></g><mask></mask><g stroke-linecap="round"><g transform="translate(490 310) rotate(0 9.650560844169718 -5.041299885356807)"><path d="M0 0 C3.22 -1.68, 16.08 -8.4, 19.3 -10.08 M0 0 C3.22 -1.68, 16.08 -8.4, 19.3 -10.08" stroke="#1e1e1e" stroke-width="2" fill="none"></path></g></g><mask></mask><g stroke-linecap="round"><g transform="translate(489.8925681547246 301.16368625055884) rotate(0 -6.746929099116414 0)"><path d="M0 0 C-2.25 0, -11.24 0, -13.49 0 M0 0 C-2.25 0, -11.24 0, -13.49 0" stroke="#1e1e1e" stroke-width="2" fill="none"></path></g></g><mask></mask><g transform="translate(450 290) rotate(0 10.617584228515625 10)"><text x="0" y="0" font-family="Helvetica, Segoe UI Emoji" font-size="17.391304347826082px" fill="#1e1e1e" text-anchor="start" style="white-space: pre;" direction="ltr" dominant-baseline="text-before-edge">clk</text></g><g stroke-linecap="round"><g transform="translate(579.997335645036 250.27944532881565) rotate(0 4.38829595201355 0)"><path d="M0 0 C1.46 0, 7.31 0, 8.78 0 M0 0 C1.46 0, 7.31 0, 8.78 0" stroke="#1e1e1e" stroke-width="2" fill="none"></path></g></g><mask></mask><g transform="translate(630 230) rotate(0 30.67578125 9.199999999999989)"><text x="0" y="0" font-family="Helvetica, Segoe UI Emoji" font-size="16px" fill="#1e1e1e" text-anchor="start" style="white-space: pre;" direction="ltr" dominant-baseline="text-before-edge">switch_s</text></g><g transform="translate(374.46875 230) rotate(0 28.453125 9.199999999999989)"><text x="56.90625" y="0" font-family="Helvetica, Segoe UI Emoji" font-size="16px" fill="#1e1e1e" text-anchor="end" style="white-space: pre;" direction="ltr" dominant-baseline="text-before-edge">switch_i</text></g><g stroke-linecap="round"><g transform="translate(370 230) rotate(0 60 0)"><path d="M0 0 C20 0, 100 0, 120 0 M0 0 C20 0, 100 0, 120 0" stroke="#1e1e1e" stroke-width="2" fill="none"></path></g></g><mask></mask><g stroke-linecap="round"><g transform="translate(370 250) rotate(0 60 0)"><path d="M0 0 C20 0, 100 0, 120 0 M0 0 C20 0, 100 0, 120 0" stroke="#1e1e1e" stroke-width="2" fill="none"></path></g></g><mask></mask><g stroke-linecap="round"><g transform="translate(490 250) rotate(0 4.238730547340083 0)"><path d="M0 0 C1.41 0, 7.06 0, 8.48 0 M0 0 C1.41 0, 7.06 0, 8.48 0" stroke="#1e1e1e" stroke-width="2" fill="none"></path></g></g><mask></mask><g stroke-linecap="round"><g transform="translate(539.3613261947676 350.91506865425276) rotate(0 0 0.5997064349491552)"><path d="M0 0 C0 -1.71, 0 -12.15, 0 -10.24 C0 -8.34, 0 7.83, 0 11.44 M0 0 C0 -1.71, 0 -12.15, 0 -10.24 C0 -8.34, 0 7.83, 0 11.44" stroke="#1e1e1e" stroke-width="2" fill="none"></path></g></g><mask></mask><g transform="translate(537.3613128696429 321.395844931963) rotate(0 2.6640625 9.199999999999989)"><text x="0" y="0" font-family="Helvetica, Segoe UI Emoji" font-size="16px" fill="#1e1e1e" text-anchor="start" style="white-space: pre;" direction="ltr" dominant-baseline="text-before-edge">r</text></g><g transform="translate(497.5432381850808 361.53827423573625) rotate(0 38.6875 9.199999999999989)"><text x="77.375" y="0" font-family="Helvetica, Segoe UI Emoji" font-size="16px" fill="#1e1e1e" text-anchor="end" style="white-space: pre;" direction="ltr" dominant-baseline="text-before-edge">avl_reset_i</text></g><g stroke-linecap="round"><g transform="translate(590 230) rotate(0 60 0)"><path d="M0 0 C20 0, 100 0, 120 0 M0 0 C20 0, 100 0, 120 0" stroke="#1e1e1e" stroke-width="2" fill="none"></path></g></g><mask></mask><g stroke-linecap="round"><g transform="translate(710 250) rotate(0 -60 0)"><path d="M0 0 C-20 0, -100 0, -120 0 M0 0 C-20 0, -100 0, -120 0" stroke="#1e1e1e" stroke-width="2" fill="none"></path></g></g><mask></mask><g stroke-linecap="round" transform="translate(110 10) rotate(0 240 30)"><path d="M15 0 C106.96 0, 198.92 0, 465 0 C475 0, 480 5, 480 15 C480 26.52, 480 38.03, 480 45 C480 55, 475 60, 465 60 C293.71 60, 122.42 60, 15 60 C5 60, 0 55, 0 45 C0 34.03, 0 23.07, 0 15 C0 5, 5 0, 15 0" stroke="none" stroke-width="0" fill="#ffffff"></path><path d="M15 0 C117.49 0, 219.98 0, 465 0 M15 0 C184.27 0, 353.55 0, 465 0 M465 0 C475 0, 480 5, 480 15 M465 0 C475 0, 480 5, 480 15 M480 15 C480 25.06, 480 35.12, 480 45 M480 15 C480 21.54, 480 28.08, 480 45 M480 45 C480 55, 475 60, 465 60 M480 45 C480 55, 475 60, 465 60 M465 60 C330.85 60, 196.7 60, 15 60 M465 60 C301.93 60, 138.86 60, 15 60 M15 60 C5 60, 0 55, 0 45 M15 60 C5 60, 0 55, 0 45 M0 45 C0 33.24, 0 21.48, 0 15 M0 45 C0 35.41, 0 25.82, 0 15 M0 15 C0 5, 5 0, 15 0 M0 15 C0 5, 5 0, 15 0" stroke="#1971c2" stroke-width="2" fill="none"></path></g><g transform="translate(154.8916015625 19.299999999999955) rotate(0 195.1083984375 20.700000000000045)"><text x="195.1083984375" y="0" font-family="Helvetica, Segoe UI Emoji" font-size="36px" fill="#1971c2" text-anchor="middle" style="white-space: pre;" direction="ltr" dominant-baseline="text-before-edge">sync_input_reg: process</text></g></svg>