<svg version="1.1" xmlns="http://www.w3.org/2000/svg" viewBox="0 0 763.1015625 669.9382742357362" width="763.1015625" height="669.9382742357362">
  <!-- svg-source:excalidraw -->
  
  <defs>
    <style class="style-fonts">
      @font-face {
        font-family: "Virgil";
        src: url("https://file%2B.vscode-resource.vscode-cdn.net/home/aiorio/.vscode/extensions/pomdtr.excalidraw-editor-3.7.4/public//dist/excalidraw-assets/Virgil.woff2");
      }
      @font-face {
        font-family: "Cascadia";
        src: url("https://file%2B.vscode-resource.vscode-cdn.net/home/aiorio/.vscode/extensions/pomdtr.excalidraw-editor-3.7.4/public//dist/excalidraw-assets/Cascadia.woff2");
      }
      @font-face {
        font-family: "Assistant";
        src: url("https://file%2B.vscode-resource.vscode-cdn.net/home/aiorio/.vscode/extensions/pomdtr.excalidraw-editor-3.7.4/public//dist/excalidraw-assets/Assistant-Regular.woff2");
      }
    </style>
    
  </defs>
  <g stroke-linecap="round"><g transform="translate(153.1015625 130) rotate(0 0 30)"><path d="M0 0 C0 10, 0 50, 0 60 M0 0 C0 10, 0 50, 0 60" stroke="#1e1e1e" stroke-width="2" fill="none"></path></g></g><mask></mask><g stroke-linecap="round"><g transform="translate(153.1015625 190) rotate(0 10 0)"><path d="M0 0 C3.33 0, 16.67 0, 20 0 M0 0 C3.33 0, 16.67 0, 20 0" stroke="#1e1e1e" stroke-width="2" fill="none"></path></g></g><mask></mask><g stroke-linecap="round"><g transform="translate(173.1015625 190) rotate(0 0 10)"><path d="M0 0 C0 3.33, 0 16.67, 0 20 M0 0 C0 3.33, 0 16.67, 0 20" stroke="#1e1e1e" stroke-width="2" fill="none"></path></g></g><mask></mask><g stroke-linecap="round"><g transform="translate(153.1015625 210) rotate(0 10 0)"><path d="M0 0 C3.33 0, 16.67 0, 20 0 M0 0 C3.33 0, 16.67 0, 20 0" stroke="#1e1e1e" stroke-width="2" fill="none"></path></g></g><mask></mask><g stroke-linecap="round"><g transform="translate(153.1015625 210) rotate(0 0 70)"><path d="M0 0 C0 23.33, 0 116.67, 0 140 M0 0 C0 23.33, 0 116.67, 0 140" stroke="#1e1e1e" stroke-width="2" fill="none"></path></g></g><mask></mask><g stroke-linecap="round"><g transform="translate(153.1015625 350) rotate(0 50 0)"><path d="M0 0 C16.67 0, 83.33 0, 100 0 M0 0 C16.67 0, 83.33 0, 100 0" stroke="#1e1e1e" stroke-width="2" fill="none"></path></g></g><mask></mask><g stroke-linecap="round"><g transform="translate(251.75633489225356 210) rotate(0 0 70)"><path d="M0 0 C0 23.33, 0 116.67, 0 140 M0 0 C0 23.33, 0 116.67, 0 140" stroke="#1e1e1e" stroke-width="2" fill="none"></path></g></g><mask></mask><g stroke-linecap="round"><g transform="translate(251.75633489225356 210) rotate(0 -10 0)"><path d="M0 0 C-3.33 0, -16.67 0, -20 0 M0 0 C-3.33 0, -16.67 0, -20 0" stroke="#1e1e1e" stroke-width="2" fill="none"></path></g></g><mask></mask><g stroke-linecap="round"><g transform="translate(231.75633489225356 190) rotate(0 0 10)"><path d="M0 0 C0 3.33, 0 16.67, 0 20 M0 0 C0 3.33, 0 16.67, 0 20" stroke="#1e1e1e" stroke-width="2" fill="none"></path></g></g><mask></mask><g stroke-linecap="round"><g transform="translate(231.75633489225356 190) rotate(0 10 0)"><path d="M0 0 C3.33 0, 16.67 0, 20 0 M0 0 C3.33 0, 16.67 0, 20 0" stroke="#1e1e1e" stroke-width="2" fill="none"></path></g></g><mask></mask><g stroke-linecap="round"><g transform="translate(251.75633489225356 130) rotate(0 0 30)"><path d="M0 0 C0 10, 0 50, 0 60 M0 0 C0 10, 0 50, 0 60" stroke="#1e1e1e" stroke-width="2" fill="none"></path></g></g><mask></mask><g stroke-linecap="round"><g transform="translate(253.1015625 130) rotate(0 -50 0)"><path d="M0 0 C-16.67 0, -83.33 0, -100 0 M0 0 C-16.67 0, -83.33 0, -100 0" stroke="#1e1e1e" stroke-width="2" fill="none"></path></g></g><mask></mask><g transform="translate(196.1715878719774 147.72221246707636) rotate(0 5.383384704589844 11.138893766461806)"><text x="0" y="0" font-family="Helvetica, Segoe UI Emoji" font-size="19.371989159064015px" fill="#1e1e1e" text-anchor="start" style="white-space: pre;" direction="ltr" dominant-baseline="text-before-edge">8</text></g><g transform="translate(166.68132699639 230.60790097665085) rotate(0 5.77734375 9.199999999999989)"><text x="0" y="0" font-family="Helvetica, Segoe UI Emoji" font-size="16px" fill="#1e1e1e" text-anchor="start" style="white-space: pre;" direction="ltr" dominant-baseline="text-before-edge">D</text></g><g transform="translate(233.1015625 230.8349539111025) rotate(0 6.22265625 9.199999999999989)"><text x="0" y="0" font-family="Helvetica, Segoe UI Emoji" font-size="16px" fill="#1e1e1e" text-anchor="start" style="white-space: pre;" direction="ltr" dominant-baseline="text-before-edge">Q</text></g><g stroke-linecap="round"><g transform="translate(242.97974298822646 230) rotate(0 4.38829595201355 0)"><path d="M0 0 C1.46 0, 7.31 0, 8.78 0 M0 0 C1.46 0, 7.31 0, 8.78 0" stroke="#1e1e1e" stroke-width="2" fill="none"></path></g></g><mask></mask><g stroke-linecap="round"><g transform="translate(153.1015625 230) rotate(0 4.238730547340083 0)"><path d="M0 0 C1.41 0, 7.06 0, 8.48 0 M0 0 C1.41 0, 7.06 0, 8.48 0" stroke="#1e1e1e" stroke-width="2" fill="none"></path></g></g><mask></mask><g stroke-linecap="round"><g transform="translate(153.1015625 290) rotate(0 9.689781269631965 4.9317932959814925)"><path d="M0 0 C3.23 1.64, 16.15 8.22, 19.38 9.86 M0 0 C3.23 1.64, 16.15 8.22, 19.38 9.86" stroke="#1e1e1e" stroke-width="2" fill="none"></path></g></g><mask></mask><g stroke-linecap="round"><g transform="translate(153.1015625 310) rotate(0 9.650560844169718 -5.041299885356807)"><path d="M0 0 C3.22 -1.68, 16.08 -8.4, 19.3 -10.08 M0 0 C3.22 -1.68, 16.08 -8.4, 19.3 -10.08" stroke="#1e1e1e" stroke-width="2" fill="none"></path></g></g><mask></mask><g stroke-linecap="round"><g transform="translate(152.9941306547246 301.16368625055895) rotate(0 -6.746929099116414 0)"><path d="M0 0 C-2.25 0, -11.24 0, -13.49 0 M0 0 C-2.25 0, -11.24 0, -13.49 0" stroke="#1e1e1e" stroke-width="2" fill="none"></path></g></g><mask></mask><g transform="translate(113.1015625 290) rotate(0 10.617584228515625 10)"><text x="0" y="0" font-family="Helvetica, Segoe UI Emoji" font-size="17.391304347826082px" fill="#1e1e1e" text-anchor="start" style="white-space: pre;" direction="ltr" dominant-baseline="text-before-edge">clk</text></g><g stroke-linecap="round"><g transform="translate(153.1015625 330) rotate(0 4.848220126825879 0)"><path d="M0 0 C1.62 0, 8.08 0, 9.7 0 M0 0 C1.62 0, 8.08 0, 9.7 0" stroke="#1e1e1e" stroke-width="2" fill="none"></path></g></g><mask></mask><g transform="translate(166.3059947163947 320.04999516187536) rotate(0 8.8984375 9.199999999999989)"><text x="0" y="0" font-family="Helvetica, Segoe UI Emoji" font-size="16px" fill="#1e1e1e" text-anchor="start" style="white-space: pre;" direction="ltr" dominant-baseline="text-before-edge">en</text></g><g stroke-linecap="round" transform="translate(146.40809472310184 326.95058636553915) rotate(0 3.222419751114103 3.222419751114103)"><path d="M6.44 3.22 C6.44 3.41, 6.43 3.6, 6.4 3.78 C6.36 3.97, 6.31 4.15, 6.25 4.32 C6.19 4.5, 6.11 4.67, 6.01 4.83 C5.92 5, 5.81 5.15, 5.69 5.29 C5.57 5.44, 5.44 5.57, 5.29 5.69 C5.15 5.81, 5 5.92, 4.83 6.01 C4.67 6.11, 4.5 6.19, 4.32 6.25 C4.15 6.31, 3.97 6.36, 3.78 6.4 C3.6 6.43, 3.41 6.44, 3.22 6.44 C3.04 6.44, 2.85 6.43, 2.66 6.4 C2.48 6.36, 2.3 6.31, 2.12 6.25 C1.95 6.19, 1.77 6.11, 1.61 6.01 C1.45 5.92, 1.29 5.81, 1.15 5.69 C1.01 5.57, 0.87 5.44, 0.75 5.29 C0.63 5.15, 0.52 5, 0.43 4.83 C0.34 4.67, 0.26 4.5, 0.19 4.32 C0.13 4.15, 0.08 3.97, 0.05 3.78 C0.02 3.6, 0 3.41, 0 3.22 C0 3.04, 0.02 2.85, 0.05 2.66 C0.08 2.48, 0.13 2.3, 0.19 2.12 C0.26 1.95, 0.34 1.77, 0.43 1.61 C0.52 1.45, 0.63 1.29, 0.75 1.15 C0.87 1.01, 1.01 0.87, 1.15 0.75 C1.29 0.63, 1.45 0.52, 1.61 0.43 C1.77 0.34, 1.95 0.26, 2.12 0.19 C2.3 0.13, 2.48 0.08, 2.66 0.05 C2.85 0.02, 3.04 0, 3.22 0 C3.41 0, 3.6 0.02, 3.78 0.05 C3.97 0.08, 4.15 0.13, 4.32 0.19 C4.5 0.26, 4.67 0.34, 4.83 0.43 C5 0.52, 5.15 0.63, 5.29 0.75 C5.44 0.87, 5.57 1.01, 5.69 1.15 C5.81 1.29, 5.92 1.45, 6.01 1.61 C6.11 1.77, 6.19 1.95, 6.25 2.12 C6.31 2.3, 6.36 2.48, 6.4 2.66 C6.43 2.85, 6.44 3.13, 6.44 3.22 C6.45 3.32, 6.45 3.13, 6.44 3.22" stroke="none" stroke-width="0" fill="#ffffff"></path><path d="M6.44 3.22 C6.44 3.41, 6.43 3.6, 6.4 3.78 C6.36 3.97, 6.31 4.15, 6.25 4.32 C6.19 4.5, 6.11 4.67, 6.01 4.83 C5.92 5, 5.81 5.15, 5.69 5.29 C5.57 5.44, 5.44 5.57, 5.29 5.69 C5.15 5.81, 5 5.92, 4.83 6.01 C4.67 6.11, 4.5 6.19, 4.32 6.25 C4.15 6.31, 3.97 6.36, 3.78 6.4 C3.6 6.43, 3.41 6.44, 3.22 6.44 C3.04 6.44, 2.85 6.43, 2.66 6.4 C2.48 6.36, 2.3 6.31, 2.12 6.25 C1.95 6.19, 1.77 6.11, 1.61 6.01 C1.45 5.92, 1.29 5.81, 1.15 5.69 C1.01 5.57, 0.87 5.44, 0.75 5.29 C0.63 5.15, 0.52 5, 0.43 4.83 C0.34 4.67, 0.26 4.5, 0.19 4.32 C0.13 4.15, 0.08 3.97, 0.05 3.78 C0.02 3.6, 0 3.41, 0 3.22 C0 3.04, 0.02 2.85, 0.05 2.66 C0.08 2.48, 0.13 2.3, 0.19 2.12 C0.26 1.95, 0.34 1.77, 0.43 1.61 C0.52 1.45, 0.63 1.29, 0.75 1.15 C0.87 1.01, 1.01 0.87, 1.15 0.75 C1.29 0.63, 1.45 0.52, 1.61 0.43 C1.77 0.34, 1.95 0.26, 2.12 0.19 C2.3 0.13, 2.48 0.08, 2.66 0.05 C2.85 0.02, 3.04 0, 3.22 0 C3.41 0, 3.6 0.02, 3.78 0.05 C3.97 0.08, 4.15 0.13, 4.32 0.19 C4.5 0.26, 4.67 0.34, 4.83 0.43 C5 0.52, 5.15 0.63, 5.29 0.75 C5.44 0.87, 5.57 1.01, 5.69 1.15 C5.81 1.29, 5.92 1.45, 6.01 1.61 C6.11 1.77, 6.19 1.95, 6.25 2.12 C6.31 2.3, 6.36 2.48, 6.4 2.66 C6.43 2.85, 6.44 3.13, 6.44 3.22 C6.45 3.32, 6.45 3.13, 6.44 3.22" stroke="#1e1e1e" stroke-width="2" fill="none"></path></g><g stroke-linecap="round"><g transform="translate(139.01397834338468 330) rotate(0 3.639048122083011 0)"><path d="M0 0 C1.21 0, 6.07 0, 7.28 0 M0 0 C1.21 0, 6.07 0, 7.28 0" stroke="#1e1e1e" stroke-width="2" fill="none"></path></g></g><mask></mask><g transform="translate(85.19957225887606 319.5331850012981) rotate(0 24.624481201171875 10)"><text x="49.24896240234375" y="0" font-family="Helvetica, Segoe UI Emoji" font-size="17.391304347826082px" fill="#1e1e1e" text-anchor="end" style="white-space: pre;" direction="ltr" dominant-baseline="text-before-edge">lock_s</text></g><g stroke-linecap="round"><g transform="translate(243.09889814503595 250.27944532881565) rotate(0 4.38829595201355 0)"><path d="M0 0 C1.46 0, 7.31 0, 8.78 0 M0 0 C1.46 0, 7.31 0, 8.78 0" stroke="#1e1e1e" stroke-width="2" fill="none"></path></g></g><mask></mask><g transform="translate(293.1015625 230) rotate(0 32.91015625 9.199999999999989)"><text x="65.8203125" y="0" font-family="Helvetica, Segoe UI Emoji" font-size="16px" fill="#1e1e1e" text-anchor="end" style="white-space: pre;" direction="ltr" dominant-baseline="text-before-edge">char_n_s</text></g><g transform="translate(33.1015625 230) rotate(0 30.6875 9.199999999999989)"><text x="61.375" y="0" font-family="Helvetica, Segoe UI Emoji" font-size="16px" fill="#1e1e1e" text-anchor="end" style="white-space: pre;" direction="ltr" dominant-baseline="text-before-edge">char_n_i</text></g><g stroke-linecap="round"><g transform="translate(33.1015625 230) rotate(0 60 0)"><path d="M0 0 C20 0, 100 0, 120 0 M0 0 C20 0, 100 0, 120 0" stroke="#1e1e1e" stroke-width="2" fill="none"></path></g></g><mask></mask><g stroke-linecap="round"><g transform="translate(33.1015625 250) rotate(0 60 0)"><path d="M0 0 C20 0, 100 0, 120 0 M0 0 C20 0, 100 0, 120 0" stroke="#1e1e1e" stroke-width="2" fill="none"></path></g></g><mask></mask><g stroke-linecap="round"><g transform="translate(153.1015625 250) rotate(0 4.238730547340083 0)"><path d="M0 0 C1.41 0, 7.06 0, 8.48 0 M0 0 C1.41 0, 7.06 0, 8.48 0" stroke="#1e1e1e" stroke-width="2" fill="none"></path></g></g><mask></mask><g stroke-linecap="round"><g transform="translate(202.46288869476757 350.91506865425276) rotate(0 0 0.5997064349491552)"><path d="M0 0 C0 -1.71, 0 -12.15, 0 -10.24 C0 -8.34, 0 7.83, 0 11.44 M0 0 C0 -1.71, 0 -12.15, 0 -10.24 C0 -8.34, 0 7.83, 0 11.44" stroke="#1e1e1e" stroke-width="2" fill="none"></path></g></g><mask></mask><g transform="translate(200.46287536964292 321.395844931963) rotate(0 2.6640625 9.199999999999989)"><text x="0" y="0" font-family="Helvetica, Segoe UI Emoji" font-size="16px" fill="#1e1e1e" text-anchor="start" style="white-space: pre;" direction="ltr" dominant-baseline="text-before-edge">r</text></g><g transform="translate(160.64480068508078 361.53827423573625) rotate(0 38.6875 9.199999999999989)"><text x="77.375" y="0" font-family="Helvetica, Segoe UI Emoji" font-size="16px" fill="#1e1e1e" text-anchor="end" style="white-space: pre;" direction="ltr" dominant-baseline="text-before-edge">avl_reset_i</text></g><g stroke-linecap="round"><g transform="translate(253.1015625 230) rotate(0 60 0)"><path d="M0 0 C20 0, 100 0, 120 0 M0 0 C20 0, 100 0, 120 0" stroke="#1e1e1e" stroke-width="2" fill="none"></path></g></g><mask></mask><g stroke-linecap="round"><g transform="translate(373.1015625 250) rotate(0 -60 0)"><path d="M0 0 C-20 0, -100 0, -120 0 M0 0 C-20 0, -100 0, -120 0" stroke="#1e1e1e" stroke-width="2" fill="none"></path></g></g><mask></mask><g stroke-linecap="round"><g transform="translate(153.1015625 410) rotate(0 0 30)"><path d="M0 0 C0 10, 0 50, 0 60 M0 0 C0 10, 0 50, 0 60" stroke="#1e1e1e" stroke-width="2" fill="none"></path></g></g><mask></mask><g stroke-linecap="round"><g transform="translate(153.1015625 470) rotate(0 10 0)"><path d="M0 0 C3.33 0, 16.67 0, 20 0 M0 0 C3.33 0, 16.67 0, 20 0" stroke="#1e1e1e" stroke-width="2" fill="none"></path></g></g><mask></mask><g stroke-linecap="round"><g transform="translate(173.1015625 470) rotate(0 0 10)"><path d="M0 0 C0 3.33, 0 16.67, 0 20 M0 0 C0 3.33, 0 16.67, 0 20" stroke="#1e1e1e" stroke-width="2" fill="none"></path></g></g><mask></mask><g stroke-linecap="round"><g transform="translate(153.1015625 490) rotate(0 10 0)"><path d="M0 0 C3.33 0, 16.67 0, 20 0 M0 0 C3.33 0, 16.67 0, 20 0" stroke="#1e1e1e" stroke-width="2" fill="none"></path></g></g><mask></mask><g stroke-linecap="round"><g transform="translate(153.1015625 490) rotate(0 0 70)"><path d="M0 0 C0 23.33, 0 116.67, 0 140 M0 0 C0 23.33, 0 116.67, 0 140" stroke="#1e1e1e" stroke-width="2" fill="none"></path></g></g><mask></mask><g stroke-linecap="round"><g transform="translate(153.1015625 630) rotate(0 50 0)"><path d="M0 0 C16.67 0, 83.33 0, 100 0 M0 0 C16.67 0, 83.33 0, 100 0" stroke="#1e1e1e" stroke-width="2" fill="none"></path></g></g><mask></mask><g stroke-linecap="round"><g transform="translate(251.75633489225356 490) rotate(0 0 70)"><path d="M0 0 C0 23.33, 0 116.67, 0 140 M0 0 C0 23.33, 0 116.67, 0 140" stroke="#1e1e1e" stroke-width="2" fill="none"></path></g></g><mask></mask><g stroke-linecap="round"><g transform="translate(251.75633489225356 490) rotate(0 -10 0)"><path d="M0 0 C-3.33 0, -16.67 0, -20 0 M0 0 C-3.33 0, -16.67 0, -20 0" stroke="#1e1e1e" stroke-width="2" fill="none"></path></g></g><mask></mask><g stroke-linecap="round"><g transform="translate(231.75633489225356 470) rotate(0 0 10)"><path d="M0 0 C0 3.33, 0 16.67, 0 20 M0 0 C0 3.33, 0 16.67, 0 20" stroke="#1e1e1e" stroke-width="2" fill="none"></path></g></g><mask></mask><g stroke-linecap="round"><g transform="translate(231.75633489225356 470) rotate(0 10 0)"><path d="M0 0 C3.33 0, 16.67 0, 20 0 M0 0 C3.33 0, 16.67 0, 20 0" stroke="#1e1e1e" stroke-width="2" fill="none"></path></g></g><mask></mask><g stroke-linecap="round"><g transform="translate(251.75633489225356 410) rotate(0 0 30)"><path d="M0 0 C0 10, 0 50, 0 60 M0 0 C0 10, 0 50, 0 60" stroke="#1e1e1e" stroke-width="2" fill="none"></path></g></g><mask></mask><g stroke-linecap="round"><g transform="translate(253.1015625 410) rotate(0 -50 0)"><path d="M0 0 C-16.67 0, -83.33 0, -100 0 M0 0 C-16.67 0, -83.33 0, -100 0" stroke="#1e1e1e" stroke-width="2" fill="none"></path></g></g><mask></mask><g transform="translate(196.1715878719774 427.72221246707636) rotate(0 5.383384704589844 11.13889376646182)"><text x="0" y="0" font-family="Helvetica, Segoe UI Emoji" font-size="19.371989159064015px" fill="#1e1e1e" text-anchor="start" style="white-space: pre;" direction="ltr" dominant-baseline="text-before-edge">8</text></g><g transform="translate(166.68132699639 510.60790097665085) rotate(0 5.77734375 9.199999999999989)"><text x="0" y="0" font-family="Helvetica, Segoe UI Emoji" font-size="16px" fill="#1e1e1e" text-anchor="start" style="white-space: pre;" direction="ltr" dominant-baseline="text-before-edge">D</text></g><g transform="translate(233.1015625 510.8349539111025) rotate(0 6.22265625 9.199999999999989)"><text x="0" y="0" font-family="Helvetica, Segoe UI Emoji" font-size="16px" fill="#1e1e1e" text-anchor="start" style="white-space: pre;" direction="ltr" dominant-baseline="text-before-edge">Q</text></g><g stroke-linecap="round"><g transform="translate(242.97974298822646 510) rotate(0 4.38829595201355 0)"><path d="M0 0 C1.46 0, 7.31 0, 8.78 0 M0 0 C1.46 0, 7.31 0, 8.78 0" stroke="#1e1e1e" stroke-width="2" fill="none"></path></g></g><mask></mask><g stroke-linecap="round"><g transform="translate(153.1015625 510) rotate(0 4.238730547340083 0)"><path d="M0 0 C1.41 0, 7.06 0, 8.48 0 M0 0 C1.41 0, 7.06 0, 8.48 0" stroke="#1e1e1e" stroke-width="2" fill="none"></path></g></g><mask></mask><g stroke-linecap="round"><g transform="translate(153.1015625 570) rotate(0 9.689781269631965 4.9317932959814925)"><path d="M0 0 C3.23 1.64, 16.15 8.22, 19.38 9.86 M0 0 C3.23 1.64, 16.15 8.22, 19.38 9.86" stroke="#1e1e1e" stroke-width="2" fill="none"></path></g></g><mask></mask><g stroke-linecap="round"><g transform="translate(153.1015625 590) rotate(0 9.650560844169718 -5.041299885356807)"><path d="M0 0 C3.22 -1.68, 16.08 -8.4, 19.3 -10.08 M0 0 C3.22 -1.68, 16.08 -8.4, 19.3 -10.08" stroke="#1e1e1e" stroke-width="2" fill="none"></path></g></g><mask></mask><g stroke-linecap="round"><g transform="translate(152.9941306547246 581.163686250559) rotate(0 -6.746929099116414 0)"><path d="M0 0 C-2.25 0, -11.24 0, -13.49 0 M0 0 C-2.25 0, -11.24 0, -13.49 0" stroke="#1e1e1e" stroke-width="2" fill="none"></path></g></g><mask></mask><g transform="translate(113.1015625 570) rotate(0 10.617584228515625 10)"><text x="0" y="0" font-family="Helvetica, Segoe UI Emoji" font-size="17.391304347826082px" fill="#1e1e1e" text-anchor="start" style="white-space: pre;" direction="ltr" dominant-baseline="text-before-edge">clk</text></g><g stroke-linecap="round"><g transform="translate(153.1015625 610) rotate(0 4.848220126825879 0)"><path d="M0 0 C1.62 0, 8.08 0, 9.7 0 M0 0 C1.62 0, 8.08 0, 9.7 0" stroke="#1e1e1e" stroke-width="2" fill="none"></path></g></g><mask></mask><g transform="translate(166.3059947163947 600.0499951618754) rotate(0 8.8984375 9.199999999999989)"><text x="0" y="0" font-family="Helvetica, Segoe UI Emoji" font-size="16px" fill="#1e1e1e" text-anchor="start" style="white-space: pre;" direction="ltr" dominant-baseline="text-before-edge">en</text></g><g stroke-linecap="round" transform="translate(146.40809472310184 606.9505863655392) rotate(0 3.222419751114103 3.222419751114103)"><path d="M6.44 3.22 C6.44 3.41, 6.43 3.6, 6.4 3.78 C6.36 3.97, 6.31 4.15, 6.25 4.32 C6.19 4.5, 6.11 4.67, 6.01 4.83 C5.92 5, 5.81 5.15, 5.69 5.29 C5.57 5.44, 5.44 5.57, 5.29 5.69 C5.15 5.81, 5 5.92, 4.83 6.01 C4.67 6.11, 4.5 6.19, 4.32 6.25 C4.15 6.31, 3.97 6.36, 3.78 6.4 C3.6 6.43, 3.41 6.44, 3.22 6.44 C3.04 6.44, 2.85 6.43, 2.66 6.4 C2.48 6.36, 2.3 6.31, 2.12 6.25 C1.95 6.19, 1.77 6.11, 1.61 6.01 C1.45 5.92, 1.29 5.81, 1.15 5.69 C1.01 5.57, 0.87 5.44, 0.75 5.29 C0.63 5.15, 0.52 5, 0.43 4.83 C0.34 4.67, 0.26 4.5, 0.19 4.32 C0.13 4.15, 0.08 3.97, 0.05 3.78 C0.02 3.6, 0 3.41, 0 3.22 C0 3.04, 0.02 2.85, 0.05 2.66 C0.08 2.48, 0.13 2.3, 0.19 2.12 C0.26 1.95, 0.34 1.77, 0.43 1.61 C0.52 1.45, 0.63 1.29, 0.75 1.15 C0.87 1.01, 1.01 0.87, 1.15 0.75 C1.29 0.63, 1.45 0.52, 1.61 0.43 C1.77 0.34, 1.95 0.26, 2.12 0.19 C2.3 0.13, 2.48 0.08, 2.66 0.05 C2.85 0.02, 3.04 0, 3.22 0 C3.41 0, 3.6 0.02, 3.78 0.05 C3.97 0.08, 4.15 0.13, 4.32 0.19 C4.5 0.26, 4.67 0.34, 4.83 0.43 C5 0.52, 5.15 0.63, 5.29 0.75 C5.44 0.87, 5.57 1.01, 5.69 1.15 C5.81 1.29, 5.92 1.45, 6.01 1.61 C6.11 1.77, 6.19 1.95, 6.25 2.12 C6.31 2.3, 6.36 2.48, 6.4 2.66 C6.43 2.85, 6.44 3.13, 6.44 3.22 C6.45 3.32, 6.45 3.13, 6.44 3.22" stroke="none" stroke-width="0" fill="#ffffff"></path><path d="M6.44 3.22 C6.44 3.41, 6.43 3.6, 6.4 3.78 C6.36 3.97, 6.31 4.15, 6.25 4.32 C6.19 4.5, 6.11 4.67, 6.01 4.83 C5.92 5, 5.81 5.15, 5.69 5.29 C5.57 5.44, 5.44 5.57, 5.29 5.69 C5.15 5.81, 5 5.92, 4.83 6.01 C4.67 6.11, 4.5 6.19, 4.32 6.25 C4.15 6.31, 3.97 6.36, 3.78 6.4 C3.6 6.43, 3.41 6.44, 3.22 6.44 C3.04 6.44, 2.85 6.43, 2.66 6.4 C2.48 6.36, 2.3 6.31, 2.12 6.25 C1.95 6.19, 1.77 6.11, 1.61 6.01 C1.45 5.92, 1.29 5.81, 1.15 5.69 C1.01 5.57, 0.87 5.44, 0.75 5.29 C0.63 5.15, 0.52 5, 0.43 4.83 C0.34 4.67, 0.26 4.5, 0.19 4.32 C0.13 4.15, 0.08 3.97, 0.05 3.78 C0.02 3.6, 0 3.41, 0 3.22 C0 3.04, 0.02 2.85, 0.05 2.66 C0.08 2.48, 0.13 2.3, 0.19 2.12 C0.26 1.95, 0.34 1.77, 0.43 1.61 C0.52 1.45, 0.63 1.29, 0.75 1.15 C0.87 1.01, 1.01 0.87, 1.15 0.75 C1.29 0.63, 1.45 0.52, 1.61 0.43 C1.77 0.34, 1.95 0.26, 2.12 0.19 C2.3 0.13, 2.48 0.08, 2.66 0.05 C2.85 0.02, 3.04 0, 3.22 0 C3.41 0, 3.6 0.02, 3.78 0.05 C3.97 0.08, 4.15 0.13, 4.32 0.19 C4.5 0.26, 4.67 0.34, 4.83 0.43 C5 0.52, 5.15 0.63, 5.29 0.75 C5.44 0.87, 5.57 1.01, 5.69 1.15 C5.81 1.29, 5.92 1.45, 6.01 1.61 C6.11 1.77, 6.19 1.95, 6.25 2.12 C6.31 2.3, 6.36 2.48, 6.4 2.66 C6.43 2.85, 6.44 3.13, 6.44 3.22 C6.45 3.32, 6.45 3.13, 6.44 3.22" stroke="#1e1e1e" stroke-width="2" fill="none"></path></g><g stroke-linecap="round"><g transform="translate(139.01397834338468 610) rotate(0 3.639048122083011 0)"><path d="M0 0 C1.21 0, 6.07 0, 7.28 0 M0 0 C1.21 0, 6.07 0, 7.28 0" stroke="#1e1e1e" stroke-width="2" fill="none"></path></g></g><mask></mask><g transform="translate(85.19957225887606 599.5331850012981) rotate(0 24.624481201171875 10)"><text x="49.24896240234375" y="0" font-family="Helvetica, Segoe UI Emoji" font-size="17.391304347826082px" fill="#1e1e1e" text-anchor="end" style="white-space: pre;" direction="ltr" dominant-baseline="text-before-edge">lock_s</text></g><g stroke-linecap="round"><g transform="translate(243.09889814503595 530.2794453288157) rotate(0 4.38829595201355 0)"><path d="M0 0 C1.46 0, 7.31 0, 8.78 0 M0 0 C1.46 0, 7.31 0, 8.78 0" stroke="#1e1e1e" stroke-width="2" fill="none"></path></g></g><mask></mask><g transform="translate(293.1015625 510) rotate(0 44.4609375 9.199999999999989)"><text x="0" y="0" font-family="Helvetica, Segoe UI Emoji" font-size="16px" fill="#1e1e1e" text-anchor="start" style="white-space: pre;" direction="ltr" dominant-baseline="text-before-edge">checksum_s</text></g><g transform="translate(10 510) rotate(0 42.23828125 9.199999999999989)"><text x="84.4765625" y="0" font-family="Helvetica, Segoe UI Emoji" font-size="16px" fill="#1e1e1e" text-anchor="end" style="white-space: pre;" direction="ltr" dominant-baseline="text-before-edge">checksum_i</text></g><g stroke-linecap="round"><g transform="translate(33.1015625 510) rotate(0 60 0)"><path d="M0 0 C20 0, 100 0, 120 0 M0 0 C20 0, 100 0, 120 0" stroke="#1e1e1e" stroke-width="2" fill="none"></path></g></g><mask></mask><g stroke-linecap="round"><g transform="translate(33.1015625 530) rotate(0 60 0)"><path d="M0 0 C20 0, 100 0, 120 0 M0 0 C20 0, 100 0, 120 0" stroke="#1e1e1e" stroke-width="2" fill="none"></path></g></g><mask></mask><g stroke-linecap="round"><g transform="translate(153.1015625 530) rotate(0 4.238730547340083 0)"><path d="M0 0 C1.41 0, 7.06 0, 8.48 0 M0 0 C1.41 0, 7.06 0, 8.48 0" stroke="#1e1e1e" stroke-width="2" fill="none"></path></g></g><mask></mask><g stroke-linecap="round"><g transform="translate(202.46288869476757 630.9150686542528) rotate(0 0 0.5997064349491552)"><path d="M0 0 C0 -1.71, 0 -12.15, 0 -10.24 C0 -8.34, 0 7.83, 0 11.44 M0 0 C0 -1.71, 0 -12.15, 0 -10.24 C0 -8.34, 0 7.83, 0 11.44" stroke="#1e1e1e" stroke-width="2" fill="none"></path></g></g><mask></mask><g transform="translate(200.46287536964292 601.395844931963) rotate(0 2.6640625 9.199999999999989)"><text x="0" y="0" font-family="Helvetica, Segoe UI Emoji" font-size="16px" fill="#1e1e1e" text-anchor="start" style="white-space: pre;" direction="ltr" dominant-baseline="text-before-edge">r</text></g><g transform="translate(160.64480068508078 641.5382742357363) rotate(0 38.6875 9.199999999999989)"><text x="77.375" y="0" font-family="Helvetica, Segoe UI Emoji" font-size="16px" fill="#1e1e1e" text-anchor="end" style="white-space: pre;" direction="ltr" dominant-baseline="text-before-edge">avl_reset_i</text></g><g stroke-linecap="round"><g transform="translate(253.1015625 510) rotate(0 60 0)"><path d="M0 0 C20 0, 100 0, 120 0 M0 0 C20 0, 100 0, 120 0" stroke="#1e1e1e" stroke-width="2" fill="none"></path></g></g><mask></mask><g stroke-linecap="round"><g transform="translate(373.1015625 530) rotate(0 -60 0)"><path d="M0 0 C-20 0, -100 0, -120 0 M0 0 C-20 0, -100 0, -120 0" stroke="#1e1e1e" stroke-width="2" fill="none"></path></g></g><mask></mask><g stroke-linecap="round"><g transform="translate(533.1015625 130) rotate(0 0 30)"><path d="M0 0 C0 10, 0 50, 0 60 M0 0 C0 10, 0 50, 0 60" stroke="#1e1e1e" stroke-width="2" fill="none"></path></g></g><mask></mask><g stroke-linecap="round"><g transform="translate(533.1015625 190) rotate(0 10 0)"><path d="M0 0 C3.33 0, 16.67 0, 20 0 M0 0 C3.33 0, 16.67 0, 20 0" stroke="#1e1e1e" stroke-width="2" fill="none"></path></g></g><mask></mask><g stroke-linecap="round"><g transform="translate(553.1015625 190) rotate(0 0 10)"><path d="M0 0 C0 3.33, 0 16.67, 0 20 M0 0 C0 3.33, 0 16.67, 0 20" stroke="#1e1e1e" stroke-width="2" fill="none"></path></g></g><mask></mask><g stroke-linecap="round"><g transform="translate(533.1015625 210) rotate(0 10 0)"><path d="M0 0 C3.33 0, 16.67 0, 20 0 M0 0 C3.33 0, 16.67 0, 20 0" stroke="#1e1e1e" stroke-width="2" fill="none"></path></g></g><mask></mask><g stroke-linecap="round"><g transform="translate(533.1015625 210) rotate(0 0 70)"><path d="M0 0 C0 23.33, 0 116.67, 0 140 M0 0 C0 23.33, 0 116.67, 0 140" stroke="#1e1e1e" stroke-width="2" fill="none"></path></g></g><mask></mask><g stroke-linecap="round"><g transform="translate(533.1015625 350) rotate(0 50 0)"><path d="M0 0 C16.67 0, 83.33 0, 100 0 M0 0 C16.67 0, 83.33 0, 100 0" stroke="#1e1e1e" stroke-width="2" fill="none"></path></g></g><mask></mask><g stroke-linecap="round"><g transform="translate(631.7563348922536 210) rotate(0 0 70)"><path d="M0 0 C0 23.33, 0 116.67, 0 140 M0 0 C0 23.33, 0 116.67, 0 140" stroke="#1e1e1e" stroke-width="2" fill="none"></path></g></g><mask></mask><g stroke-linecap="round"><g transform="translate(631.7563348922536 210) rotate(0 -10 0)"><path d="M0 0 C-3.33 0, -16.67 0, -20 0 M0 0 C-3.33 0, -16.67 0, -20 0" stroke="#1e1e1e" stroke-width="2" fill="none"></path></g></g><mask></mask><g stroke-linecap="round"><g transform="translate(611.7563348922536 190) rotate(0 0 10)"><path d="M0 0 C0 3.33, 0 16.67, 0 20 M0 0 C0 3.33, 0 16.67, 0 20" stroke="#1e1e1e" stroke-width="2" fill="none"></path></g></g><mask></mask><g stroke-linecap="round"><g transform="translate(611.7563348922536 190) rotate(0 10 0)"><path d="M0 0 C3.33 0, 16.67 0, 20 0 M0 0 C3.33 0, 16.67 0, 20 0" stroke="#1e1e1e" stroke-width="2" fill="none"></path></g></g><mask></mask><g stroke-linecap="round"><g transform="translate(631.7563348922536 130) rotate(0 0 30)"><path d="M0 0 C0 10, 0 50, 0 60 M0 0 C0 10, 0 50, 0 60" stroke="#1e1e1e" stroke-width="2" fill="none"></path></g></g><mask></mask><g stroke-linecap="round"><g transform="translate(633.1015625 130) rotate(0 -50 0)"><path d="M0 0 C-16.67 0, -83.33 0, -100 0 M0 0 C-16.67 0, -83.33 0, -100 0" stroke="#1e1e1e" stroke-width="2" fill="none"></path></g></g><mask></mask><g transform="translate(576.1715878719774 147.72221246707636) rotate(0 5.383384704589844 11.138893766461806)"><text x="0" y="0" font-family="Helvetica, Segoe UI Emoji" font-size="19.371989159064015px" fill="#1e1e1e" text-anchor="start" style="white-space: pre;" direction="ltr" dominant-baseline="text-before-edge">4</text></g><g transform="translate(546.68132699639 230.60790097665085) rotate(0 5.77734375 9.199999999999989)"><text x="0" y="0" font-family="Helvetica, Segoe UI Emoji" font-size="16px" fill="#1e1e1e" text-anchor="start" style="white-space: pre;" direction="ltr" dominant-baseline="text-before-edge">D</text></g><g transform="translate(613.1015625 230.8349539111025) rotate(0 6.22265625 9.199999999999989)"><text x="0" y="0" font-family="Helvetica, Segoe UI Emoji" font-size="16px" fill="#1e1e1e" text-anchor="start" style="white-space: pre;" direction="ltr" dominant-baseline="text-before-edge">Q</text></g><g stroke-linecap="round"><g transform="translate(622.9797429882265 230) rotate(0 4.38829595201355 0)"><path d="M0 0 C1.46 0, 7.31 0, 8.78 0 M0 0 C1.46 0, 7.31 0, 8.78 0" stroke="#1e1e1e" stroke-width="2" fill="none"></path></g></g><mask></mask><g stroke-linecap="round"><g transform="translate(533.1015625 230) rotate(0 4.238730547340083 0)"><path d="M0 0 C1.41 0, 7.06 0, 8.48 0 M0 0 C1.41 0, 7.06 0, 8.48 0" stroke="#1e1e1e" stroke-width="2" fill="none"></path></g></g><mask></mask><g stroke-linecap="round"><g transform="translate(533.1015625 290) rotate(0 9.689781269631965 4.9317932959814925)"><path d="M0 0 C3.23 1.64, 16.15 8.22, 19.38 9.86 M0 0 C3.23 1.64, 16.15 8.22, 19.38 9.86" stroke="#1e1e1e" stroke-width="2" fill="none"></path></g></g><mask></mask><g stroke-linecap="round"><g transform="translate(533.1015625 310) rotate(0 9.650560844169718 -5.041299885356807)"><path d="M0 0 C3.22 -1.68, 16.08 -8.4, 19.3 -10.08 M0 0 C3.22 -1.68, 16.08 -8.4, 19.3 -10.08" stroke="#1e1e1e" stroke-width="2" fill="none"></path></g></g><mask></mask><g stroke-linecap="round"><g transform="translate(532.9941306547246 301.16368625055884) rotate(0 -6.746929099116414 0)"><path d="M0 0 C-2.25 0, -11.24 0, -13.49 0 M0 0 C-2.25 0, -11.24 0, -13.49 0" stroke="#1e1e1e" stroke-width="2" fill="none"></path></g></g><mask></mask><g transform="translate(493.1015625 290) rotate(0 10.617584228515625 10)"><text x="0" y="0" font-family="Helvetica, Segoe UI Emoji" font-size="17.391304347826082px" fill="#1e1e1e" text-anchor="start" style="white-space: pre;" direction="ltr" dominant-baseline="text-before-edge">clk</text></g><g stroke-linecap="round"><g transform="translate(533.1015625 330) rotate(0 4.848220126825879 0)"><path d="M0 0 C1.62 0, 8.08 0, 9.7 0 M0 0 C1.62 0, 8.08 0, 9.7 0" stroke="#1e1e1e" stroke-width="2" fill="none"></path></g></g><mask></mask><g transform="translate(546.3059947163947 320.04999516187536) rotate(0 8.8984375 9.199999999999989)"><text x="0" y="0" font-family="Helvetica, Segoe UI Emoji" font-size="16px" fill="#1e1e1e" text-anchor="start" style="white-space: pre;" direction="ltr" dominant-baseline="text-before-edge">en</text></g><g stroke-linecap="round" transform="translate(526.4080947231018 326.95058636553904) rotate(0 3.222419751114103 3.222419751114103)"><path d="M6.44 3.22 C6.44 3.41, 6.43 3.6, 6.4 3.78 C6.36 3.97, 6.31 4.15, 6.25 4.32 C6.19 4.5, 6.11 4.67, 6.01 4.83 C5.92 5, 5.81 5.15, 5.69 5.29 C5.57 5.44, 5.44 5.57, 5.29 5.69 C5.15 5.81, 5 5.92, 4.83 6.01 C4.67 6.11, 4.5 6.19, 4.32 6.25 C4.15 6.31, 3.97 6.36, 3.78 6.4 C3.6 6.43, 3.41 6.44, 3.22 6.44 C3.04 6.44, 2.85 6.43, 2.66 6.4 C2.48 6.36, 2.3 6.31, 2.12 6.25 C1.95 6.19, 1.77 6.11, 1.61 6.01 C1.45 5.92, 1.29 5.81, 1.15 5.69 C1.01 5.57, 0.87 5.44, 0.75 5.29 C0.63 5.15, 0.52 5, 0.43 4.83 C0.34 4.67, 0.26 4.5, 0.19 4.32 C0.13 4.15, 0.08 3.97, 0.05 3.78 C0.02 3.6, 0 3.41, 0 3.22 C0 3.04, 0.02 2.85, 0.05 2.66 C0.08 2.48, 0.13 2.3, 0.19 2.12 C0.26 1.95, 0.34 1.77, 0.43 1.61 C0.52 1.45, 0.63 1.29, 0.75 1.15 C0.87 1.01, 1.01 0.87, 1.15 0.75 C1.29 0.63, 1.45 0.52, 1.61 0.43 C1.77 0.34, 1.95 0.26, 2.12 0.19 C2.3 0.13, 2.48 0.08, 2.66 0.05 C2.85 0.02, 3.04 0, 3.22 0 C3.41 0, 3.6 0.02, 3.78 0.05 C3.97 0.08, 4.15 0.13, 4.32 0.19 C4.5 0.26, 4.67 0.34, 4.83 0.43 C5 0.52, 5.15 0.63, 5.29 0.75 C5.44 0.87, 5.57 1.01, 5.69 1.15 C5.81 1.29, 5.92 1.45, 6.01 1.61 C6.11 1.77, 6.19 1.95, 6.25 2.12 C6.31 2.3, 6.36 2.48, 6.4 2.66 C6.43 2.85, 6.44 3.13, 6.44 3.22 C6.45 3.32, 6.45 3.13, 6.44 3.22" stroke="none" stroke-width="0" fill="#ffffff"></path><path d="M6.44 3.22 C6.44 3.41, 6.43 3.6, 6.4 3.78 C6.36 3.97, 6.31 4.15, 6.25 4.32 C6.19 4.5, 6.11 4.67, 6.01 4.83 C5.92 5, 5.81 5.15, 5.69 5.29 C5.57 5.44, 5.44 5.57, 5.29 5.69 C5.15 5.81, 5 5.92, 4.83 6.01 C4.67 6.11, 4.5 6.19, 4.32 6.25 C4.15 6.31, 3.97 6.36, 3.78 6.4 C3.6 6.43, 3.41 6.44, 3.22 6.44 C3.04 6.44, 2.85 6.43, 2.66 6.4 C2.48 6.36, 2.3 6.31, 2.12 6.25 C1.95 6.19, 1.77 6.11, 1.61 6.01 C1.45 5.92, 1.29 5.81, 1.15 5.69 C1.01 5.57, 0.87 5.44, 0.75 5.29 C0.63 5.15, 0.52 5, 0.43 4.83 C0.34 4.67, 0.26 4.5, 0.19 4.32 C0.13 4.15, 0.08 3.97, 0.05 3.78 C0.02 3.6, 0 3.41, 0 3.22 C0 3.04, 0.02 2.85, 0.05 2.66 C0.08 2.48, 0.13 2.3, 0.19 2.12 C0.26 1.95, 0.34 1.77, 0.43 1.61 C0.52 1.45, 0.63 1.29, 0.75 1.15 C0.87 1.01, 1.01 0.87, 1.15 0.75 C1.29 0.63, 1.45 0.52, 1.61 0.43 C1.77 0.34, 1.95 0.26, 2.12 0.19 C2.3 0.13, 2.48 0.08, 2.66 0.05 C2.85 0.02, 3.04 0, 3.22 0 C3.41 0, 3.6 0.02, 3.78 0.05 C3.97 0.08, 4.15 0.13, 4.32 0.19 C4.5 0.26, 4.67 0.34, 4.83 0.43 C5 0.52, 5.15 0.63, 5.29 0.75 C5.44 0.87, 5.57 1.01, 5.69 1.15 C5.81 1.29, 5.92 1.45, 6.01 1.61 C6.11 1.77, 6.19 1.95, 6.25 2.12 C6.31 2.3, 6.36 2.48, 6.4 2.66 C6.43 2.85, 6.44 3.13, 6.44 3.22 C6.45 3.32, 6.45 3.13, 6.44 3.22" stroke="#1e1e1e" stroke-width="2" fill="none"></path></g><g stroke-linecap="round"><g transform="translate(519.0139783433847 330) rotate(0 3.639048122083011 0)"><path d="M0 0 C1.21 0, 6.07 0, 7.28 0 M0 0 C1.21 0, 6.07 0, 7.28 0" stroke="#1e1e1e" stroke-width="2" fill="none"></path></g></g><mask></mask><g transform="translate(465.19957225887606 319.5331850012981) rotate(0 24.624481201171875 10)"><text x="49.24896240234375" y="0" font-family="Helvetica, Segoe UI Emoji" font-size="17.391304347826082px" fill="#1e1e1e" text-anchor="end" style="white-space: pre;" direction="ltr" dominant-baseline="text-before-edge">lock_s</text></g><g stroke-linecap="round"><g transform="translate(623.098898145036 250.27944532881565) rotate(0 4.38829595201355 0)"><path d="M0 0 C1.46 0, 7.31 0, 8.78 0 M0 0 C1.46 0, 7.31 0, 8.78 0" stroke="#1e1e1e" stroke-width="2" fill="none"></path></g></g><mask></mask><g transform="translate(673.1015625 230) rotate(0 30.69140625 9.199999999999989)"><text x="0" y="0" font-family="Helvetica, Segoe UI Emoji" font-size="16px" fill="#1e1e1e" text-anchor="start" style="white-space: pre;" direction="ltr" dominant-baseline="text-before-edge">button_s</text></g><g transform="translate(417.5390625 230) rotate(0 28.46875 9.199999999999989)"><text x="56.9375" y="0" font-family="Helvetica, Segoe UI Emoji" font-size="16px" fill="#1e1e1e" text-anchor="end" style="white-space: pre;" direction="ltr" dominant-baseline="text-before-edge">button_i</text></g><g stroke-linecap="round"><g transform="translate(413.1015625 230) rotate(0 60 0)"><path d="M0 0 C20 0, 100 0, 120 0 M0 0 C20 0, 100 0, 120 0" stroke="#1e1e1e" stroke-width="2" fill="none"></path></g></g><mask></mask><g stroke-linecap="round"><g transform="translate(413.1015625 250) rotate(0 60 0)"><path d="M0 0 C20 0, 100 0, 120 0 M0 0 C20 0, 100 0, 120 0" stroke="#1e1e1e" stroke-width="2" fill="none"></path></g></g><mask></mask><g stroke-linecap="round"><g transform="translate(533.1015625 250) rotate(0 4.238730547340083 0)"><path d="M0 0 C1.41 0, 7.06 0, 8.48 0 M0 0 C1.41 0, 7.06 0, 8.48 0" stroke="#1e1e1e" stroke-width="2" fill="none"></path></g></g><mask></mask><g stroke-linecap="round"><g transform="translate(582.4628886947676 350.91506865425276) rotate(0 0 0.5997064349491552)"><path d="M0 0 C0 -1.71, 0 -12.15, 0 -10.24 C0 -8.34, 0 7.83, 0 11.44 M0 0 C0 -1.71, 0 -12.15, 0 -10.24 C0 -8.34, 0 7.83, 0 11.44" stroke="#1e1e1e" stroke-width="2" fill="none"></path></g></g><mask></mask><g transform="translate(580.4628753696429 321.395844931963) rotate(0 2.6640625 9.199999999999989)"><text x="0" y="0" font-family="Helvetica, Segoe UI Emoji" font-size="16px" fill="#1e1e1e" text-anchor="start" style="white-space: pre;" direction="ltr" dominant-baseline="text-before-edge">r</text></g><g transform="translate(540.6448006850808 361.53827423573625) rotate(0 38.6875 9.199999999999989)"><text x="77.375" y="0" font-family="Helvetica, Segoe UI Emoji" font-size="16px" fill="#1e1e1e" text-anchor="end" style="white-space: pre;" direction="ltr" dominant-baseline="text-before-edge">avl_reset_i</text></g><g stroke-linecap="round"><g transform="translate(633.1015625 230) rotate(0 60 0)"><path d="M0 0 C20 0, 100 0, 120 0 M0 0 C20 0, 100 0, 120 0" stroke="#1e1e1e" stroke-width="2" fill="none"></path></g></g><mask></mask><g stroke-linecap="round"><g transform="translate(753.1015625 250) rotate(0 -60 0)"><path d="M0 0 C-20 0, -100 0, -120 0 M0 0 C-20 0, -100 0, -120 0" stroke="#1e1e1e" stroke-width="2" fill="none"></path></g></g><mask></mask><g stroke-linecap="round"><g transform="translate(533.1015625 410) rotate(0 0 30)"><path d="M0 0 C0 10, 0 50, 0 60 M0 0 C0 10, 0 50, 0 60" stroke="#1e1e1e" stroke-width="2" fill="none"></path></g></g><mask></mask><g stroke-linecap="round"><g transform="translate(533.1015625 470) rotate(0 10 0)"><path d="M0 0 C3.33 0, 16.67 0, 20 0 M0 0 C3.33 0, 16.67 0, 20 0" stroke="#1e1e1e" stroke-width="2" fill="none"></path></g></g><mask></mask><g stroke-linecap="round"><g transform="translate(553.1015625 470) rotate(0 0 10)"><path d="M0 0 C0 3.33, 0 16.67, 0 20 M0 0 C0 3.33, 0 16.67, 0 20" stroke="#1e1e1e" stroke-width="2" fill="none"></path></g></g><mask></mask><g stroke-linecap="round"><g transform="translate(533.1015625 490) rotate(0 10 0)"><path d="M0 0 C3.33 0, 16.67 0, 20 0 M0 0 C3.33 0, 16.67 0, 20 0" stroke="#1e1e1e" stroke-width="2" fill="none"></path></g></g><mask></mask><g stroke-linecap="round"><g transform="translate(533.1015625 490) rotate(0 0 70)"><path d="M0 0 C0 23.33, 0 116.67, 0 140 M0 0 C0 23.33, 0 116.67, 0 140" stroke="#1e1e1e" stroke-width="2" fill="none"></path></g></g><mask></mask><g stroke-linecap="round"><g transform="translate(533.1015625 630) rotate(0 50 0)"><path d="M0 0 C16.67 0, 83.33 0, 100 0 M0 0 C16.67 0, 83.33 0, 100 0" stroke="#1e1e1e" stroke-width="2" fill="none"></path></g></g><mask></mask><g stroke-linecap="round"><g transform="translate(631.7563348922536 490) rotate(0 0 70)"><path d="M0 0 C0 23.33, 0 116.67, 0 140 M0 0 C0 23.33, 0 116.67, 0 140" stroke="#1e1e1e" stroke-width="2" fill="none"></path></g></g><mask></mask><g stroke-linecap="round"><g transform="translate(631.7563348922536 490) rotate(0 -10 0)"><path d="M0 0 C-3.33 0, -16.67 0, -20 0 M0 0 C-3.33 0, -16.67 0, -20 0" stroke="#1e1e1e" stroke-width="2" fill="none"></path></g></g><mask></mask><g stroke-linecap="round"><g transform="translate(611.7563348922536 470) rotate(0 0 10)"><path d="M0 0 C0 3.33, 0 16.67, 0 20 M0 0 C0 3.33, 0 16.67, 0 20" stroke="#1e1e1e" stroke-width="2" fill="none"></path></g></g><mask></mask><g stroke-linecap="round"><g transform="translate(611.7563348922536 470) rotate(0 10 0)"><path d="M0 0 C3.33 0, 16.67 0, 20 0 M0 0 C3.33 0, 16.67 0, 20 0" stroke="#1e1e1e" stroke-width="2" fill="none"></path></g></g><mask></mask><g stroke-linecap="round"><g transform="translate(631.7563348922536 410) rotate(0 0 30)"><path d="M0 0 C0 10, 0 50, 0 60 M0 0 C0 10, 0 50, 0 60" stroke="#1e1e1e" stroke-width="2" fill="none"></path></g></g><mask></mask><g stroke-linecap="round"><g transform="translate(633.1015625 410) rotate(0 -50 0)"><path d="M0 0 C-16.67 0, -83.33 0, -100 0 M0 0 C-16.67 0, -83.33 0, -100 0" stroke="#1e1e1e" stroke-width="2" fill="none"></path></g></g><mask></mask><g transform="translate(576.1715878719774 427.72221246707636) rotate(0 10.766769409179688 11.13889376646182)"><text x="0" y="0" font-family="Helvetica, Segoe UI Emoji" font-size="19.371989159064015px" fill="#1e1e1e" text-anchor="start" style="white-space: pre;" direction="ltr" dominant-baseline="text-before-edge">10</text></g><g transform="translate(546.68132699639 510.60790097665085) rotate(0 5.77734375 9.199999999999989)"><text x="0" y="0" font-family="Helvetica, Segoe UI Emoji" font-size="16px" fill="#1e1e1e" text-anchor="start" style="white-space: pre;" direction="ltr" dominant-baseline="text-before-edge">D</text></g><g transform="translate(613.1015625 510.8349539111025) rotate(0 6.22265625 9.199999999999989)"><text x="0" y="0" font-family="Helvetica, Segoe UI Emoji" font-size="16px" fill="#1e1e1e" text-anchor="start" style="white-space: pre;" direction="ltr" dominant-baseline="text-before-edge">Q</text></g><g stroke-linecap="round"><g transform="translate(622.9797429882265 510) rotate(0 4.38829595201355 0)"><path d="M0 0 C1.46 0, 7.31 0, 8.78 0 M0 0 C1.46 0, 7.31 0, 8.78 0" stroke="#1e1e1e" stroke-width="2" fill="none"></path></g></g><mask></mask><g stroke-linecap="round"><g transform="translate(533.1015625 510) rotate(0 4.238730547340083 0)"><path d="M0 0 C1.41 0, 7.06 0, 8.48 0 M0 0 C1.41 0, 7.06 0, 8.48 0" stroke="#1e1e1e" stroke-width="2" fill="none"></path></g></g><mask></mask><g stroke-linecap="round"><g transform="translate(533.1015625 570) rotate(0 9.689781269631965 4.9317932959814925)"><path d="M0 0 C3.23 1.64, 16.15 8.22, 19.38 9.86 M0 0 C3.23 1.64, 16.15 8.22, 19.38 9.86" stroke="#1e1e1e" stroke-width="2" fill="none"></path></g></g><mask></mask><g stroke-linecap="round"><g transform="translate(533.1015625 590) rotate(0 9.650560844169718 -5.041299885356807)"><path d="M0 0 C3.22 -1.68, 16.08 -8.4, 19.3 -10.08 M0 0 C3.22 -1.68, 16.08 -8.4, 19.3 -10.08" stroke="#1e1e1e" stroke-width="2" fill="none"></path></g></g><mask></mask><g stroke-linecap="round"><g transform="translate(532.9941306547246 581.1636862505588) rotate(0 -6.746929099116414 0)"><path d="M0 0 C-2.25 0, -11.24 0, -13.49 0 M0 0 C-2.25 0, -11.24 0, -13.49 0" stroke="#1e1e1e" stroke-width="2" fill="none"></path></g></g><mask></mask><g transform="translate(493.1015625 570) rotate(0 10.617584228515625 10)"><text x="0" y="0" font-family="Helvetica, Segoe UI Emoji" font-size="17.391304347826082px" fill="#1e1e1e" text-anchor="start" style="white-space: pre;" direction="ltr" dominant-baseline="text-before-edge">clk</text></g><g stroke-linecap="round"><g transform="translate(533.1015625 610) rotate(0 4.848220126825879 0)"><path d="M0 0 C1.62 0, 8.08 0, 9.7 0 M0 0 C1.62 0, 8.08 0, 9.7 0" stroke="#1e1e1e" stroke-width="2" fill="none"></path></g></g><mask></mask><g transform="translate(546.3059947163947 600.0499951618754) rotate(0 8.8984375 9.199999999999989)"><text x="0" y="0" font-family="Helvetica, Segoe UI Emoji" font-size="16px" fill="#1e1e1e" text-anchor="start" style="white-space: pre;" direction="ltr" dominant-baseline="text-before-edge">en</text></g><g stroke-linecap="round" transform="translate(526.4080947231018 606.950586365539) rotate(0 3.222419751114103 3.222419751114103)"><path d="M6.44 3.22 C6.44 3.41, 6.43 3.6, 6.4 3.78 C6.36 3.97, 6.31 4.15, 6.25 4.32 C6.19 4.5, 6.11 4.67, 6.01 4.83 C5.92 5, 5.81 5.15, 5.69 5.29 C5.57 5.44, 5.44 5.57, 5.29 5.69 C5.15 5.81, 5 5.92, 4.83 6.01 C4.67 6.11, 4.5 6.19, 4.32 6.25 C4.15 6.31, 3.97 6.36, 3.78 6.4 C3.6 6.43, 3.41 6.44, 3.22 6.44 C3.04 6.44, 2.85 6.43, 2.66 6.4 C2.48 6.36, 2.3 6.31, 2.12 6.25 C1.95 6.19, 1.77 6.11, 1.61 6.01 C1.45 5.92, 1.29 5.81, 1.15 5.69 C1.01 5.57, 0.87 5.44, 0.75 5.29 C0.63 5.15, 0.52 5, 0.43 4.83 C0.34 4.67, 0.26 4.5, 0.19 4.32 C0.13 4.15, 0.08 3.97, 0.05 3.78 C0.02 3.6, 0 3.41, 0 3.22 C0 3.04, 0.02 2.85, 0.05 2.66 C0.08 2.48, 0.13 2.3, 0.19 2.12 C0.26 1.95, 0.34 1.77, 0.43 1.61 C0.52 1.45, 0.63 1.29, 0.75 1.15 C0.87 1.01, 1.01 0.87, 1.15 0.75 C1.29 0.63, 1.45 0.52, 1.61 0.43 C1.77 0.34, 1.95 0.26, 2.12 0.19 C2.3 0.13, 2.48 0.08, 2.66 0.05 C2.85 0.02, 3.04 0, 3.22 0 C3.41 0, 3.6 0.02, 3.78 0.05 C3.97 0.08, 4.15 0.13, 4.32 0.19 C4.5 0.26, 4.67 0.34, 4.83 0.43 C5 0.52, 5.15 0.63, 5.29 0.75 C5.44 0.87, 5.57 1.01, 5.69 1.15 C5.81 1.29, 5.92 1.45, 6.01 1.61 C6.11 1.77, 6.19 1.95, 6.25 2.12 C6.31 2.3, 6.36 2.48, 6.4 2.66 C6.43 2.85, 6.44 3.13, 6.44 3.22 C6.45 3.32, 6.45 3.13, 6.44 3.22" stroke="none" stroke-width="0" fill="#ffffff"></path><path d="M6.44 3.22 C6.44 3.41, 6.43 3.6, 6.4 3.78 C6.36 3.97, 6.31 4.15, 6.25 4.32 C6.19 4.5, 6.11 4.67, 6.01 4.83 C5.92 5, 5.81 5.15, 5.69 5.29 C5.57 5.44, 5.44 5.57, 5.29 5.69 C5.15 5.81, 5 5.92, 4.83 6.01 C4.67 6.11, 4.5 6.19, 4.32 6.25 C4.15 6.31, 3.97 6.36, 3.78 6.4 C3.6 6.43, 3.41 6.44, 3.22 6.44 C3.04 6.44, 2.85 6.43, 2.66 6.4 C2.48 6.36, 2.3 6.31, 2.12 6.25 C1.95 6.19, 1.77 6.11, 1.61 6.01 C1.45 5.92, 1.29 5.81, 1.15 5.69 C1.01 5.57, 0.87 5.44, 0.75 5.29 C0.63 5.15, 0.52 5, 0.43 4.83 C0.34 4.67, 0.26 4.5, 0.19 4.32 C0.13 4.15, 0.08 3.97, 0.05 3.78 C0.02 3.6, 0 3.41, 0 3.22 C0 3.04, 0.02 2.85, 0.05 2.66 C0.08 2.48, 0.13 2.3, 0.19 2.12 C0.26 1.95, 0.34 1.77, 0.43 1.61 C0.52 1.45, 0.63 1.29, 0.75 1.15 C0.87 1.01, 1.01 0.87, 1.15 0.75 C1.29 0.63, 1.45 0.52, 1.61 0.43 C1.77 0.34, 1.95 0.26, 2.12 0.19 C2.3 0.13, 2.48 0.08, 2.66 0.05 C2.85 0.02, 3.04 0, 3.22 0 C3.41 0, 3.6 0.02, 3.78 0.05 C3.97 0.08, 4.15 0.13, 4.32 0.19 C4.5 0.26, 4.67 0.34, 4.83 0.43 C5 0.52, 5.15 0.63, 5.29 0.75 C5.44 0.87, 5.57 1.01, 5.69 1.15 C5.81 1.29, 5.92 1.45, 6.01 1.61 C6.11 1.77, 6.19 1.95, 6.25 2.12 C6.31 2.3, 6.36 2.48, 6.4 2.66 C6.43 2.85, 6.44 3.13, 6.44 3.22 C6.45 3.32, 6.45 3.13, 6.44 3.22" stroke="#1e1e1e" stroke-width="2" fill="none"></path></g><g stroke-linecap="round"><g transform="translate(519.0139783433847 610) rotate(0 3.639048122083011 0)"><path d="M0 0 C1.21 0, 6.07 0, 7.28 0 M0 0 C1.21 0, 6.07 0, 7.28 0" stroke="#1e1e1e" stroke-width="2" fill="none"></path></g></g><mask></mask><g transform="translate(465.19957225887606 599.5331850012981) rotate(0 24.624481201171875 10)"><text x="49.24896240234375" y="0" font-family="Helvetica, Segoe UI Emoji" font-size="17.391304347826082px" fill="#1e1e1e" text-anchor="end" style="white-space: pre;" direction="ltr" dominant-baseline="text-before-edge">lock_s</text></g><g stroke-linecap="round"><g transform="translate(623.098898145036 530.2794453288157) rotate(0 4.38829595201355 0)"><path d="M0 0 C1.46 0, 7.31 0, 8.78 0 M0 0 C1.46 0, 7.31 0, 8.78 0" stroke="#1e1e1e" stroke-width="2" fill="none"></path></g></g><mask></mask><g transform="translate(673.1015625 510) rotate(0 30.67578125 9.199999999999989)"><text x="0" y="0" font-family="Helvetica, Segoe UI Emoji" font-size="16px" fill="#1e1e1e" text-anchor="start" style="white-space: pre;" direction="ltr" dominant-baseline="text-before-edge">switch_s</text></g><g transform="translate(417.5703125 510) rotate(0 28.453125 9.199999999999989)"><text x="56.90625" y="0" font-family="Helvetica, Segoe UI Emoji" font-size="16px" fill="#1e1e1e" text-anchor="end" style="white-space: pre;" direction="ltr" dominant-baseline="text-before-edge">switch_i</text></g><g stroke-linecap="round"><g transform="translate(413.1015625 510) rotate(0 60 0)"><path d="M0 0 C20 0, 100 0, 120 0 M0 0 C20 0, 100 0, 120 0" stroke="#1e1e1e" stroke-width="2" fill="none"></path></g></g><mask></mask><g stroke-linecap="round"><g transform="translate(413.1015625 530) rotate(0 60 0)"><path d="M0 0 C20 0, 100 0, 120 0 M0 0 C20 0, 100 0, 120 0" stroke="#1e1e1e" stroke-width="2" fill="none"></path></g></g><mask></mask><g stroke-linecap="round"><g transform="translate(533.1015625 530) rotate(0 4.238730547340083 0)"><path d="M0 0 C1.41 0, 7.06 0, 8.48 0 M0 0 C1.41 0, 7.06 0, 8.48 0" stroke="#1e1e1e" stroke-width="2" fill="none"></path></g></g><mask></mask><g stroke-linecap="round"><g transform="translate(582.4628886947676 630.9150686542528) rotate(0 0 0.5997064349491552)"><path d="M0 0 C0 -1.71, 0 -12.15, 0 -10.24 C0 -8.34, 0 7.83, 0 11.44 M0 0 C0 -1.71, 0 -12.15, 0 -10.24 C0 -8.34, 0 7.83, 0 11.44" stroke="#1e1e1e" stroke-width="2" fill="none"></path></g></g><mask></mask><g transform="translate(580.4628753696429 601.395844931963) rotate(0 2.6640625 9.199999999999989)"><text x="0" y="0" font-family="Helvetica, Segoe UI Emoji" font-size="16px" fill="#1e1e1e" text-anchor="start" style="white-space: pre;" direction="ltr" dominant-baseline="text-before-edge">r</text></g><g transform="translate(540.6448006850808 641.5382742357363) rotate(0 38.6875 9.199999999999989)"><text x="77.375" y="0" font-family="Helvetica, Segoe UI Emoji" font-size="16px" fill="#1e1e1e" text-anchor="end" style="white-space: pre;" direction="ltr" dominant-baseline="text-before-edge">avl_reset_i</text></g><g stroke-linecap="round"><g transform="translate(633.1015625 510) rotate(0 60 0)"><path d="M0 0 C20 0, 100 0, 120 0 M0 0 C20 0, 100 0, 120 0" stroke="#1e1e1e" stroke-width="2" fill="none"></path></g></g><mask></mask><g stroke-linecap="round"><g transform="translate(753.1015625 530) rotate(0 -60 0)"><path d="M0 0 C-20 0, -100 0, -120 0 M0 0 C-20 0, -100 0, -120 0" stroke="#1e1e1e" stroke-width="2" fill="none"></path></g></g><mask></mask><g stroke-linecap="round" transform="translate(153.1015625 10) rotate(0 240 30)"><path d="M15 0 C184.69 0, 354.38 0, 465 0 C475 0, 480 5, 480 15 C480 23.93, 480 32.86, 480 45 C480 55, 475 60, 465 60 C320.44 60, 175.88 60, 15 60 C5 60, 0 55, 0 45 C0 34.86, 0 24.71, 0 15 C0 5, 5 0, 15 0" stroke="none" stroke-width="0" fill="#ffffff"></path><path d="M15 0 C108.71 0, 202.41 0, 465 0 M15 0 C179.33 0, 343.65 0, 465 0 M465 0 C475 0, 480 5, 480 15 M465 0 C475 0, 480 5, 480 15 M480 15 C480 25.72, 480 36.45, 480 45 M480 15 C480 21.31, 480 27.61, 480 45 M480 45 C480 55, 475 60, 465 60 M480 45 C480 55, 475 60, 465 60 M465 60 C367.5 60, 269.99 60, 15 60 M465 60 C325.1 60, 185.2 60, 15 60 M15 60 C5 60, 0 55, 0 45 M15 60 C5 60, 0 55, 0 45 M0 45 C0 35.54, 0 26.07, 0 15 M0 45 C0 35.38, 0 25.76, 0 15 M0 15 C0 5, 5 0, 15 0 M0 15 C0 5, 5 0, 15 0" stroke="#1971c2" stroke-width="2" fill="none"></path></g><g transform="translate(197.9931640625 19.299999999999997) rotate(0 195.1083984375 20.699999999999996)"><text x="195.1083984375" y="0" font-family="Helvetica, Segoe UI Emoji" font-size="36px" fill="#1971c2" text-anchor="middle" style="white-space: pre;" direction="ltr" dominant-baseline="text-before-edge">sync_input_reg: process</text></g></svg>