<svg version="1.1" xmlns="http://www.w3.org/2000/svg" viewBox="0 0 821.5725835028425 669.9382742357362" width="821.5725835028425" height="669.9382742357362">
  <!-- svg-source:excalidraw -->
  
  <defs>
    <style class="style-fonts">
      @font-face {
        font-family: "Virgil";
        src: url("https://file%2B.vscode-resource.vscode-cdn.net/home/aiorio/.vscode/extensions/pomdtr.excalidraw-editor-3.7.4/public//dist/excalidraw-assets/Virgil.woff2");
      }
      @font-face {
        font-family: "Cascadia";
        src: url("https://file%2B.vscode-resource.vscode-cdn.net/home/aiorio/.vscode/extensions/pomdtr.excalidraw-editor-3.7.4/public//dist/excalidraw-assets/Cascadia.woff2");
      }
      @font-face {
        font-family: "Assistant";
        src: url("https://file%2B.vscode-resource.vscode-cdn.net/home/aiorio/.vscode/extensions/pomdtr.excalidraw-editor-3.7.4/public//dist/excalidraw-assets/Assistant-Regular.woff2");
      }
    </style>
    
  </defs>
  <rect x="0" y="0" width="821.5725835028425" height="669.9382742357362" fill="#ffffff"></rect><g stroke-linecap="round" transform="translate(190 10) rotate(0 240 30)"><path d="M15 0 C162.18 0, 309.35 0, 465 0 C475 0, 480 5, 480 15 C480 26.77, 480 38.53, 480 45 C480 55, 475 60, 465 60 C364.62 60, 264.23 60, 15 60 C5 60, 0 55, 0 45 C0 34.44, 0 23.87, 0 15 C0 5, 5 0, 15 0" stroke="none" stroke-width="0" fill="#ffffff"></path><path d="M15 0 C142.6 0, 270.19 0, 465 0 M15 0 C134.27 0, 253.55 0, 465 0 M465 0 C475 0, 480 5, 480 15 M465 0 C475 0, 480 5, 480 15 M480 15 C480 24.81, 480 34.63, 480 45 M480 15 C480 22.92, 480 30.85, 480 45 M480 45 C480 55, 475 60, 465 60 M480 45 C480 55, 475 60, 465 60 M465 60 C335.94 60, 206.89 60, 15 60 M465 60 C338.5 60, 212 60, 15 60 M15 60 C5 60, 0 55, 0 45 M15 60 C5 60, 0 55, 0 45 M0 45 C0 33.51, 0 22.01, 0 15 M0 45 C0 37.53, 0 30.07, 0 15 M0 15 C0 5, 5 0, 15 0 M0 15 C0 5, 5 0, 15 0" stroke="#1971c2" stroke-width="2" fill="none"></path></g><g transform="translate(252.935546875 19.299999999999997) rotate(0 177.064453125 20.699999999999996)"><text x="177.064453125" y="0" font-family="Helvetica, Segoe UI Emoji" font-size="36px" fill="#1971c2" text-anchor="middle" style="white-space: pre;" direction="ltr" dominant-baseline="text-before-edge">write_access: process</text></g><g stroke-linecap="round"><g transform="translate(170 130) rotate(0 0 30)"><path d="M0 0 C0 10, 0 50, 0 60 M0 0 C0 10, 0 50, 0 60" stroke="#1e1e1e" stroke-width="2" fill="none"></path></g></g><mask></mask><g stroke-linecap="round"><g transform="translate(170 190) rotate(0 10 0)"><path d="M0 0 C3.33 0, 16.67 0, 20 0 M0 0 C3.33 0, 16.67 0, 20 0" stroke="#1e1e1e" stroke-width="2" fill="none"></path></g></g><mask></mask><g stroke-linecap="round"><g transform="translate(190 190) rotate(0 0 10)"><path d="M0 0 C0 3.33, 0 16.67, 0 20 M0 0 C0 3.33, 0 16.67, 0 20" stroke="#1e1e1e" stroke-width="2" fill="none"></path></g></g><mask></mask><g stroke-linecap="round"><g transform="translate(170 210) rotate(0 10 0)"><path d="M0 0 C3.33 0, 16.67 0, 20 0 M0 0 C3.33 0, 16.67 0, 20 0" stroke="#1e1e1e" stroke-width="2" fill="none"></path></g></g><mask></mask><g stroke-linecap="round"><g transform="translate(170 210) rotate(0 0 70)"><path d="M0 0 C0 23.33, 0 116.67, 0 140 M0 0 C0 23.33, 0 116.67, 0 140" stroke="#1e1e1e" stroke-width="2" fill="none"></path></g></g><mask></mask><g stroke-linecap="round"><g transform="translate(170 350) rotate(0 50 0)"><path d="M0 0 C16.67 0, 83.33 0, 100 0 M0 0 C16.67 0, 83.33 0, 100 0" stroke="#1e1e1e" stroke-width="2" fill="none"></path></g></g><mask></mask><g stroke-linecap="round"><g transform="translate(268.65477239225356 210) rotate(0 0 70)"><path d="M0 0 C0 23.33, 0 116.67, 0 140 M0 0 C0 23.33, 0 116.67, 0 140" stroke="#1e1e1e" stroke-width="2" fill="none"></path></g></g><mask></mask><g stroke-linecap="round"><g transform="translate(268.65477239225356 210) rotate(0 -10 0)"><path d="M0 0 C-3.33 0, -16.67 0, -20 0 M0 0 C-3.33 0, -16.67 0, -20 0" stroke="#1e1e1e" stroke-width="2" fill="none"></path></g></g><mask></mask><g stroke-linecap="round"><g transform="translate(248.65477239225356 190) rotate(0 0 10)"><path d="M0 0 C0 3.33, 0 16.67, 0 20 M0 0 C0 3.33, 0 16.67, 0 20" stroke="#1e1e1e" stroke-width="2" fill="none"></path></g></g><mask></mask><g stroke-linecap="round"><g transform="translate(248.65477239225356 190) rotate(0 10 0)"><path d="M0 0 C3.33 0, 16.67 0, 20 0 M0 0 C3.33 0, 16.67 0, 20 0" stroke="#1e1e1e" stroke-width="2" fill="none"></path></g></g><mask></mask><g stroke-linecap="round"><g transform="translate(268.65477239225356 130) rotate(0 0 30)"><path d="M0 0 C0 10, 0 50, 0 60 M0 0 C0 10, 0 50, 0 60" stroke="#1e1e1e" stroke-width="2" fill="none"></path></g></g><mask></mask><g stroke-linecap="round"><g transform="translate(270 130) rotate(0 -50 0)"><path d="M0 0 C-16.67 0, -83.33 0, -100 0 M0 0 C-16.67 0, -83.33 0, -100 0" stroke="#1e1e1e" stroke-width="2" fill="none"></path></g></g><mask></mask><g transform="translate(204.48582566550385 147.72221246707636) rotate(0 10.766769409179688 11.138893766461806)"><text x="0" y="0" font-family="Helvetica, Segoe UI Emoji" font-size="19.371989159064015px" fill="#1e1e1e" text-anchor="start" style="white-space: pre;" direction="ltr" dominant-baseline="text-before-edge">10</text></g><g transform="translate(183.57976449639 230.60790097665085) rotate(0 5.77734375 9.199999999999989)"><text x="0" y="0" font-family="Helvetica, Segoe UI Emoji" font-size="16px" fill="#1e1e1e" text-anchor="start" style="white-space: pre;" direction="ltr" dominant-baseline="text-before-edge">D</text></g><g transform="translate(250 230.8349539111025) rotate(0 6.22265625 9.199999999999989)"><text x="0" y="0" font-family="Helvetica, Segoe UI Emoji" font-size="16px" fill="#1e1e1e" text-anchor="start" style="white-space: pre;" direction="ltr" dominant-baseline="text-before-edge">Q</text></g><g stroke-linecap="round"><g transform="translate(259.87818048822646 230) rotate(0 4.38829595201355 0)"><path d="M0 0 C1.46 0, 7.31 0, 8.78 0 M0 0 C1.46 0, 7.31 0, 8.78 0" stroke="#1e1e1e" stroke-width="2" fill="none"></path></g></g><mask></mask><g stroke-linecap="round"><g transform="translate(170 230) rotate(0 4.238730547340083 0)"><path d="M0 0 C1.41 0, 7.06 0, 8.48 0 M0 0 C1.41 0, 7.06 0, 8.48 0" stroke="#1e1e1e" stroke-width="2" fill="none"></path></g></g><mask></mask><g stroke-linecap="round"><g transform="translate(170 290) rotate(0 9.689781269632022 4.9317932959814925)"><path d="M0 0 C3.23 1.64, 16.15 8.22, 19.38 9.86 M0 0 C3.23 1.64, 16.15 8.22, 19.38 9.86" stroke="#1e1e1e" stroke-width="2" fill="none"></path></g></g><mask></mask><g stroke-linecap="round"><g transform="translate(170 310) rotate(0 9.650560844169718 -5.041299885356807)"><path d="M0 0 C3.22 -1.68, 16.08 -8.4, 19.3 -10.08 M0 0 C3.22 -1.68, 16.08 -8.4, 19.3 -10.08" stroke="#1e1e1e" stroke-width="2" fill="none"></path></g></g><mask></mask><g stroke-linecap="round"><g transform="translate(169.8925681547246 301.16368625055895) rotate(0 -6.746929099116414 0)"><path d="M0 0 C-2.25 0, -11.24 0, -13.49 0 M0 0 C-2.25 0, -11.24 0, -13.49 0" stroke="#1e1e1e" stroke-width="2" fill="none"></path></g></g><mask></mask><g transform="translate(130 290) rotate(0 10.617584228515625 10)"><text x="0" y="0" font-family="Helvetica, Segoe UI Emoji" font-size="17.391304347826082px" fill="#1e1e1e" text-anchor="start" style="white-space: pre;" direction="ltr" dominant-baseline="text-before-edge">clk</text></g><g stroke-linecap="round"><g transform="translate(170 330) rotate(0 4.848220126825936 0)"><path d="M0 0 C1.62 0, 8.08 0, 9.7 0 M0 0 C1.62 0, 8.08 0, 9.7 0" stroke="#1e1e1e" stroke-width="2" fill="none"></path></g></g><mask></mask><g transform="translate(183.2044322163947 320.04999516187536) rotate(0 8.8984375 9.199999999999989)"><text x="0" y="0" font-family="Helvetica, Segoe UI Emoji" font-size="16px" fill="#1e1e1e" text-anchor="start" style="white-space: pre;" direction="ltr" dominant-baseline="text-before-edge">en</text></g><g stroke-linecap="round"><g transform="translate(155.91241584338468 330) rotate(0 7.043792078307661 0)"><path d="M0 0 C2.35 0, 11.74 0, 14.09 0 M0 0 C2.35 0, 11.74 0, 14.09 0" stroke="#1e1e1e" stroke-width="2" fill="none"></path></g></g><mask></mask><g transform="translate(70.22404735653231 319.5331850012981) rotate(0 40.56146240234375 10)"><text x="81.1229248046875" y="0" font-family="Helvetica, Segoe UI Emoji" font-size="17.391304347826082px" fill="#1e1e1e" text-anchor="end" style="white-space: pre;" direction="ltr" dominant-baseline="text-before-edge">cs_w_leds</text></g><g stroke-linecap="round"><g transform="translate(259.99733564503595 250.27944532881565) rotate(0 4.38829595201355 0)"><path d="M0 0 C1.46 0, 7.31 0, 8.78 0 M0 0 C1.46 0, 7.31 0, 8.78 0" stroke="#1e1e1e" stroke-width="2" fill="none"></path></g></g><mask></mask><g transform="translate(329.5703125 230) rotate(0 23.125 9.199999999999989)"><text x="46.25" y="0" font-family="Helvetica, Segoe UI Emoji" font-size="16px" fill="#1e1e1e" text-anchor="end" style="white-space: pre;" direction="ltr" dominant-baseline="text-before-edge">leds_s</text></g><g transform="translate(10 230) rotate(0 73.375 9.199999999999989)"><text x="146.75" y="0" font-family="Helvetica, Segoe UI Emoji" font-size="16px" fill="#1e1e1e" text-anchor="end" style="white-space: pre;" direction="ltr" dominant-baseline="text-before-edge">avl_writedata_i [9..0]</text></g><g stroke-linecap="round"><g transform="translate(10 230) rotate(0 80 0)"><path d="M0 0 C26.67 0, 133.33 0, 160 0 M0 0 C26.67 0, 133.33 0, 160 0" stroke="#1e1e1e" stroke-width="2" fill="none"></path></g></g><mask></mask><g stroke-linecap="round"><g transform="translate(10 250) rotate(0 80 0)"><path d="M0 0 C26.67 0, 133.33 0, 160 0 M0 0 C26.67 0, 133.33 0, 160 0" stroke="#1e1e1e" stroke-width="2" fill="none"></path></g></g><mask></mask><g stroke-linecap="round"><g transform="translate(170 250) rotate(0 4.238730547340083 0)"><path d="M0 0 C1.41 0, 7.06 0, 8.48 0 M0 0 C1.41 0, 7.06 0, 8.48 0" stroke="#1e1e1e" stroke-width="2" fill="none"></path></g></g><mask></mask><g stroke-linecap="round"><g transform="translate(219.36132619476757 350.91506865425276) rotate(0 0 0.5997064349491552)"><path d="M0 0 C0 -1.71, 0 -12.15, 0 -10.24 C0 -8.34, 0 7.83, 0 11.44 M0 0 C0 -1.71, 0 -12.15, 0 -10.24 C0 -8.34, 0 7.83, 0 11.44" stroke="#1e1e1e" stroke-width="2" fill="none"></path></g></g><mask></mask><g transform="translate(217.36131286964292 321.395844931963) rotate(0 2.6640625 9.199999999999989)"><text x="0" y="0" font-family="Helvetica, Segoe UI Emoji" font-size="16px" fill="#1e1e1e" text-anchor="start" style="white-space: pre;" direction="ltr" dominant-baseline="text-before-edge">r</text></g><g transform="translate(177.54323818508078 361.53827423573625) rotate(0 38.6875 9.199999999999989)"><text x="77.375" y="0" font-family="Helvetica, Segoe UI Emoji" font-size="16px" fill="#1e1e1e" text-anchor="end" style="white-space: pre;" direction="ltr" dominant-baseline="text-before-edge">avl_reset_i</text></g><g stroke-linecap="round"><g transform="translate(270 230) rotate(0 60 0)"><path d="M0 0 C20 0, 100 0, 120 0 M0 0 C20 0, 100 0, 120 0" stroke="#1e1e1e" stroke-width="2" fill="none"></path></g></g><mask></mask><g stroke-linecap="round"><g transform="translate(390 250) rotate(0 -60 0)"><path d="M0 0 C-20 0, -100 0, -120 0 M0 0 C-20 0, -100 0, -120 0" stroke="#1e1e1e" stroke-width="2" fill="none"></path></g></g><mask></mask><g stroke-linecap="round"><g transform="translate(590 130) rotate(0 0 30)"><path d="M0 0 C0 10, 0 50, 0 60 M0 0 C0 10, 0 50, 0 60" stroke="#1e1e1e" stroke-width="2" fill="none"></path></g></g><mask></mask><g stroke-linecap="round"><g transform="translate(590 190) rotate(0 10 0)"><path d="M0 0 C3.33 0, 16.67 0, 20 0 M0 0 C3.33 0, 16.67 0, 20 0" stroke="#1e1e1e" stroke-width="2" fill="none"></path></g></g><mask></mask><g stroke-linecap="round"><g transform="translate(610 190) rotate(0 0 10)"><path d="M0 0 C0 3.33, 0 16.67, 0 20 M0 0 C0 3.33, 0 16.67, 0 20" stroke="#1e1e1e" stroke-width="2" fill="none"></path></g></g><mask></mask><g stroke-linecap="round"><g transform="translate(590 210) rotate(0 10 0)"><path d="M0 0 C3.33 0, 16.67 0, 20 0 M0 0 C3.33 0, 16.67 0, 20 0" stroke="#1e1e1e" stroke-width="2" fill="none"></path></g></g><mask></mask><g stroke-linecap="round"><g transform="translate(590 210) rotate(0 0 70)"><path d="M0 0 C0 23.33, 0 116.67, 0 140 M0 0 C0 23.33, 0 116.67, 0 140" stroke="#1e1e1e" stroke-width="2" fill="none"></path></g></g><mask></mask><g stroke-linecap="round"><g transform="translate(590 350) rotate(0 50 0)"><path d="M0 0 C16.67 0, 83.33 0, 100 0 M0 0 C16.67 0, 83.33 0, 100 0" stroke="#1e1e1e" stroke-width="2" fill="none"></path></g></g><mask></mask><g stroke-linecap="round"><g transform="translate(688.6547723922536 210) rotate(0 0 70)"><path d="M0 0 C0 23.33, 0 116.67, 0 140 M0 0 C0 23.33, 0 116.67, 0 140" stroke="#1e1e1e" stroke-width="2" fill="none"></path></g></g><mask></mask><g stroke-linecap="round"><g transform="translate(688.6547723922536 210) rotate(0 -10 0)"><path d="M0 0 C-3.33 0, -16.67 0, -20 0 M0 0 C-3.33 0, -16.67 0, -20 0" stroke="#1e1e1e" stroke-width="2" fill="none"></path></g></g><mask></mask><g stroke-linecap="round"><g transform="translate(668.6547723922536 190) rotate(0 0 10)"><path d="M0 0 C0 3.33, 0 16.67, 0 20 M0 0 C0 3.33, 0 16.67, 0 20" stroke="#1e1e1e" stroke-width="2" fill="none"></path></g></g><mask></mask><g stroke-linecap="round"><g transform="translate(668.6547723922536 190) rotate(0 10 0)"><path d="M0 0 C3.33 0, 16.67 0, 20 0 M0 0 C3.33 0, 16.67 0, 20 0" stroke="#1e1e1e" stroke-width="2" fill="none"></path></g></g><mask></mask><g stroke-linecap="round"><g transform="translate(688.6547723922536 130) rotate(0 0 30)"><path d="M0 0 C0 10, 0 50, 0 60 M0 0 C0 10, 0 50, 0 60" stroke="#1e1e1e" stroke-width="2" fill="none"></path></g></g><mask></mask><g stroke-linecap="round"><g transform="translate(690 130) rotate(0 -50 0)"><path d="M0 0 C-16.67 0, -83.33 0, -100 0 M0 0 C-16.67 0, -83.33 0, -100 0" stroke="#1e1e1e" stroke-width="2" fill="none"></path></g></g><mask></mask><g transform="translate(630 150) rotate(0 5.383384704589844 11.138893766461806)"><text x="0" y="0" font-family="Helvetica, Segoe UI Emoji" font-size="19.371989159064015px" fill="#1e1e1e" text-anchor="start" style="white-space: pre;" direction="ltr" dominant-baseline="text-before-edge">1</text></g><g transform="translate(603.57976449639 230.60790097665085) rotate(0 5.77734375 9.199999999999989)"><text x="0" y="0" font-family="Helvetica, Segoe UI Emoji" font-size="16px" fill="#1e1e1e" text-anchor="start" style="white-space: pre;" direction="ltr" dominant-baseline="text-before-edge">D</text></g><g transform="translate(670 230.8349539111025) rotate(0 6.22265625 9.199999999999989)"><text x="0" y="0" font-family="Helvetica, Segoe UI Emoji" font-size="16px" fill="#1e1e1e" text-anchor="start" style="white-space: pre;" direction="ltr" dominant-baseline="text-before-edge">Q</text></g><g stroke-linecap="round"><g transform="translate(679.8781804882265 230) rotate(0 4.38829595201355 0)"><path d="M0 0 C1.46 0, 7.31 0, 8.78 0 M0 0 C1.46 0, 7.31 0, 8.78 0" stroke="#1e1e1e" stroke-width="2" fill="none"></path></g></g><mask></mask><g stroke-linecap="round"><g transform="translate(590 230) rotate(0 4.238730547340083 0)"><path d="M0 0 C1.41 0, 7.06 0, 8.48 0 M0 0 C1.41 0, 7.06 0, 8.48 0" stroke="#1e1e1e" stroke-width="2" fill="none"></path></g></g><mask></mask><g stroke-linecap="round"><g transform="translate(590 290) rotate(0 9.689781269632022 4.9317932959814925)"><path d="M0 0 C3.23 1.64, 16.15 8.22, 19.38 9.86 M0 0 C3.23 1.64, 16.15 8.22, 19.38 9.86" stroke="#1e1e1e" stroke-width="2" fill="none"></path></g></g><mask></mask><g stroke-linecap="round"><g transform="translate(590 310) rotate(0 9.650560844169718 -5.041299885356807)"><path d="M0 0 C3.22 -1.68, 16.08 -8.4, 19.3 -10.08 M0 0 C3.22 -1.68, 16.08 -8.4, 19.3 -10.08" stroke="#1e1e1e" stroke-width="2" fill="none"></path></g></g><mask></mask><g stroke-linecap="round"><g transform="translate(589.8925681547244 301.16368625055895) rotate(0 -6.746929099116414 0)"><path d="M0 0 C-2.25 0, -11.24 0, -13.49 0 M0 0 C-2.25 0, -11.24 0, -13.49 0" stroke="#1e1e1e" stroke-width="2" fill="none"></path></g></g><mask></mask><g transform="translate(550 290) rotate(0 10.617584228515625 10)"><text x="0" y="0" font-family="Helvetica, Segoe UI Emoji" font-size="17.391304347826082px" fill="#1e1e1e" text-anchor="start" style="white-space: pre;" direction="ltr" dominant-baseline="text-before-edge">clk</text></g><g stroke-linecap="round"><g transform="translate(590 330) rotate(0 4.848220126825936 0)"><path d="M0 0 C1.62 0, 8.08 0, 9.7 0 M0 0 C1.62 0, 8.08 0, 9.7 0" stroke="#1e1e1e" stroke-width="2" fill="none"></path></g></g><mask></mask><g transform="translate(603.2044322163947 320.04999516187536) rotate(0 8.8984375 9.199999999999989)"><text x="0" y="0" font-family="Helvetica, Segoe UI Emoji" font-size="16px" fill="#1e1e1e" text-anchor="start" style="white-space: pre;" direction="ltr" dominant-baseline="text-before-edge">en</text></g><g stroke-linecap="round"><g transform="translate(575.9124158433847 330) rotate(0 7.043792078307661 0)"><path d="M0 0 C2.35 0, 11.74 0, 14.09 0 M0 0 C2.35 0, 11.74 0, 14.09 0" stroke="#1e1e1e" stroke-width="2" fill="none"></path></g></g><mask></mask><g transform="translate(428.42741649715754 319.5331850012981) rotate(0 71.45977783203125 10)"><text x="142.9195556640625" y="0" font-family="Helvetica, Segoe UI Emoji" font-size="17.391304347826082px" fill="#1e1e1e" text-anchor="end" style="white-space: pre;" direction="ltr" dominant-baseline="text-before-edge">cs_w_status_cmd </text></g><g stroke-linecap="round"><g transform="translate(679.997335645036 250.27944532881565) rotate(0 4.38829595201355 0)"><path d="M0 0 C1.46 0, 7.31 0, 8.78 0 M0 0 C1.46 0, 7.31 0, 8.78 0" stroke="#1e1e1e" stroke-width="2" fill="none"></path></g></g><mask></mask><g transform="translate(719.34375 230) rotate(0 38.23828125 9.199999999999989)"><text x="76.4765625" y="0" font-family="Helvetica, Segoe UI Emoji" font-size="16px" fill="#1e1e1e" text-anchor="end" style="white-space: pre;" direction="ltr" dominant-baseline="text-before-edge">cmd_init_s</text></g><g transform="translate(447.7890625 230) rotate(0 64.48046875 9.199999999999989)"><text x="128.9609375" y="0" font-family="Helvetica, Segoe UI Emoji" font-size="16px" fill="#1e1e1e" text-anchor="end" style="white-space: pre;" direction="ltr" dominant-baseline="text-before-edge">avl_writedata_i [0]</text></g><g stroke-linecap="round"><g transform="translate(430 230) rotate(0 80 0)"><path d="M0 0 C26.67 0, 133.33 0, 160 0 M0 0 C26.67 0, 133.33 0, 160 0" stroke="#1e1e1e" stroke-width="2" fill="none"></path></g></g><mask></mask><g stroke-linecap="round"><g transform="translate(430 250) rotate(0 80 0)"><path d="M0 0 C26.67 0, 133.33 0, 160 0 M0 0 C26.67 0, 133.33 0, 160 0" stroke="#1e1e1e" stroke-width="2" fill="none"></path></g></g><mask></mask><g stroke-linecap="round"><g transform="translate(590 250) rotate(0 4.238730547340083 0)"><path d="M0 0 C1.41 0, 7.06 0, 8.48 0 M0 0 C1.41 0, 7.06 0, 8.48 0" stroke="#1e1e1e" stroke-width="2" fill="none"></path></g></g><mask></mask><g stroke-linecap="round"><g transform="translate(639.3613261947676 350.91506865425276) rotate(0 0 0.5997064349491552)"><path d="M0 0 C0 -1.71, 0 -12.15, 0 -10.24 C0 -8.34, 0 7.83, 0 11.44 M0 0 C0 -1.71, 0 -12.15, 0 -10.24 C0 -8.34, 0 7.83, 0 11.44" stroke="#1e1e1e" stroke-width="2" fill="none"></path></g></g><mask></mask><g transform="translate(637.3613128696429 321.395844931963) rotate(0 2.6640625 9.199999999999989)"><text x="0" y="0" font-family="Helvetica, Segoe UI Emoji" font-size="16px" fill="#1e1e1e" text-anchor="start" style="white-space: pre;" direction="ltr" dominant-baseline="text-before-edge">r</text></g><g transform="translate(597.5432381850806 361.53827423573625) rotate(0 38.6875 9.199999999999989)"><text x="77.375" y="0" font-family="Helvetica, Segoe UI Emoji" font-size="16px" fill="#1e1e1e" text-anchor="end" style="white-space: pre;" direction="ltr" dominant-baseline="text-before-edge">avl_reset_i</text></g><g stroke-linecap="round"><g transform="translate(690 230) rotate(0 60 0)"><path d="M0 0 C20 0, 100 0, 120 0 M0 0 C20 0, 100 0, 120 0" stroke="#1e1e1e" stroke-width="2" fill="none"></path></g></g><mask></mask><g stroke-linecap="round"><g transform="translate(810 250) rotate(0 -60 0)"><path d="M0 0 C-20 0, -100 0, -120 0 M0 0 C-20 0, -100 0, -120 0" stroke="#1e1e1e" stroke-width="2" fill="none"></path></g></g><mask></mask><g stroke-linecap="round"><g transform="translate(171.57258350284246 410) rotate(0 0 30)"><path d="M0 0 C0 10, 0 50, 0 60 M0 0 C0 10, 0 50, 0 60" stroke="#1e1e1e" stroke-width="2" fill="none"></path></g></g><mask></mask><g stroke-linecap="round"><g transform="translate(171.57258350284246 470) rotate(0 10 0)"><path d="M0 0 C3.33 0, 16.67 0, 20 0 M0 0 C3.33 0, 16.67 0, 20 0" stroke="#1e1e1e" stroke-width="2" fill="none"></path></g></g><mask></mask><g stroke-linecap="round"><g transform="translate(191.57258350284246 470) rotate(0 0 10)"><path d="M0 0 C0 3.33, 0 16.67, 0 20 M0 0 C0 3.33, 0 16.67, 0 20" stroke="#1e1e1e" stroke-width="2" fill="none"></path></g></g><mask></mask><g stroke-linecap="round"><g transform="translate(171.57258350284246 490) rotate(0 10 0)"><path d="M0 0 C3.33 0, 16.67 0, 20 0 M0 0 C3.33 0, 16.67 0, 20 0" stroke="#1e1e1e" stroke-width="2" fill="none"></path></g></g><mask></mask><g stroke-linecap="round"><g transform="translate(171.57258350284246 490) rotate(0 0 70)"><path d="M0 0 C0 23.33, 0 116.67, 0 140 M0 0 C0 23.33, 0 116.67, 0 140" stroke="#1e1e1e" stroke-width="2" fill="none"></path></g></g><mask></mask><g stroke-linecap="round"><g transform="translate(171.57258350284246 630) rotate(0 50 0)"><path d="M0 0 C16.67 0, 83.33 0, 100 0 M0 0 C16.67 0, 83.33 0, 100 0" stroke="#1e1e1e" stroke-width="2" fill="none"></path></g></g><mask></mask><g stroke-linecap="round"><g transform="translate(270.227355895096 490) rotate(0 0 70)"><path d="M0 0 C0 23.33, 0 116.67, 0 140 M0 0 C0 23.33, 0 116.67, 0 140" stroke="#1e1e1e" stroke-width="2" fill="none"></path></g></g><mask></mask><g stroke-linecap="round"><g transform="translate(270.227355895096 490) rotate(0 -10 0)"><path d="M0 0 C-3.33 0, -16.67 0, -20 0 M0 0 C-3.33 0, -16.67 0, -20 0" stroke="#1e1e1e" stroke-width="2" fill="none"></path></g></g><mask></mask><g stroke-linecap="round"><g transform="translate(250.22735589509603 470) rotate(0 0 10)"><path d="M0 0 C0 3.33, 0 16.67, 0 20 M0 0 C0 3.33, 0 16.67, 0 20" stroke="#1e1e1e" stroke-width="2" fill="none"></path></g></g><mask></mask><g stroke-linecap="round"><g transform="translate(250.22735589509603 470) rotate(0 10 0)"><path d="M0 0 C3.33 0, 16.67 0, 20 0 M0 0 C3.33 0, 16.67 0, 20 0" stroke="#1e1e1e" stroke-width="2" fill="none"></path></g></g><mask></mask><g stroke-linecap="round"><g transform="translate(270.227355895096 410) rotate(0 0 30)"><path d="M0 0 C0 10, 0 50, 0 60 M0 0 C0 10, 0 50, 0 60" stroke="#1e1e1e" stroke-width="2" fill="none"></path></g></g><mask></mask><g stroke-linecap="round"><g transform="translate(271.57258350284246 410) rotate(0 -50 0)"><path d="M0 0 C-16.67 0, -83.33 0, -100 0 M0 0 C-16.67 0, -83.33 0, -100 0" stroke="#1e1e1e" stroke-width="2" fill="none"></path></g></g><mask></mask><g transform="translate(211.57258350284246 430) rotate(0 5.383384704589844 11.13889376646182)"><text x="0" y="0" font-family="Helvetica, Segoe UI Emoji" font-size="19.371989159064015px" fill="#1e1e1e" text-anchor="start" style="white-space: pre;" direction="ltr" dominant-baseline="text-before-edge">1</text></g><g transform="translate(185.15234799923246 510.60790097665085) rotate(0 5.77734375 9.199999999999989)"><text x="0" y="0" font-family="Helvetica, Segoe UI Emoji" font-size="16px" fill="#1e1e1e" text-anchor="start" style="white-space: pre;" direction="ltr" dominant-baseline="text-before-edge">D</text></g><g transform="translate(251.57258350284246 510.8349539111025) rotate(0 6.22265625 9.199999999999989)"><text x="0" y="0" font-family="Helvetica, Segoe UI Emoji" font-size="16px" fill="#1e1e1e" text-anchor="start" style="white-space: pre;" direction="ltr" dominant-baseline="text-before-edge">Q</text></g><g stroke-linecap="round"><g transform="translate(261.4507639910689 510) rotate(0 4.38829595201355 0)"><path d="M0 0 C1.46 0, 7.31 0, 8.78 0 M0 0 C1.46 0, 7.31 0, 8.78 0" stroke="#1e1e1e" stroke-width="2" fill="none"></path></g></g><mask></mask><g stroke-linecap="round"><g transform="translate(171.57258350284246 510) rotate(0 4.238730547340083 0)"><path d="M0 0 C1.41 0, 7.06 0, 8.48 0 M0 0 C1.41 0, 7.06 0, 8.48 0" stroke="#1e1e1e" stroke-width="2" fill="none"></path></g></g><mask></mask><g stroke-linecap="round"><g transform="translate(171.57258350284246 570) rotate(0 9.689781269632022 4.9317932959814925)"><path d="M0 0 C3.23 1.64, 16.15 8.22, 19.38 9.86 M0 0 C3.23 1.64, 16.15 8.22, 19.38 9.86" stroke="#1e1e1e" stroke-width="2" fill="none"></path></g></g><mask></mask><g stroke-linecap="round"><g transform="translate(171.57258350284246 590) rotate(0 9.650560844169718 -5.041299885356807)"><path d="M0 0 C3.22 -1.68, 16.08 -8.4, 19.3 -10.08 M0 0 C3.22 -1.68, 16.08 -8.4, 19.3 -10.08" stroke="#1e1e1e" stroke-width="2" fill="none"></path></g></g><mask></mask><g stroke-linecap="round"><g transform="translate(171.46515165756682 581.163686250559) rotate(0 -6.746929099116414 0)"><path d="M0 0 C-2.25 0, -11.24 0, -13.49 0 M0 0 C-2.25 0, -11.24 0, -13.49 0" stroke="#1e1e1e" stroke-width="2" fill="none"></path></g></g><mask></mask><g transform="translate(131.57258350284246 570) rotate(0 10.617584228515625 10)"><text x="0" y="0" font-family="Helvetica, Segoe UI Emoji" font-size="17.391304347826082px" fill="#1e1e1e" text-anchor="start" style="white-space: pre;" direction="ltr" dominant-baseline="text-before-edge">clk</text></g><g stroke-linecap="round"><g transform="translate(171.57258350284246 610) rotate(0 4.848220126825936 0)"><path d="M0 0 C1.62 0, 8.08 0, 9.7 0 M0 0 C1.62 0, 8.08 0, 9.7 0" stroke="#1e1e1e" stroke-width="2" fill="none"></path></g></g><mask></mask><g transform="translate(184.77701571923717 600.0499951618754) rotate(0 8.8984375 9.199999999999989)"><text x="0" y="0" font-family="Helvetica, Segoe UI Emoji" font-size="16px" fill="#1e1e1e" text-anchor="start" style="white-space: pre;" direction="ltr" dominant-baseline="text-before-edge">en</text></g><g stroke-linecap="round"><g transform="translate(157.48499934622714 610) rotate(0 7.043792078307661 0)"><path d="M0 0 C2.35 0, 11.74 0, 14.09 0 M0 0 C2.35 0, 11.74 0, 14.09 0" stroke="#1e1e1e" stroke-width="2" fill="none"></path></g></g><mask></mask><g transform="translate(10 599.5331850012981) rotate(0 71.45977783203125 10)"><text x="142.9195556640625" y="0" font-family="Helvetica, Segoe UI Emoji" font-size="17.391304347826082px" fill="#1e1e1e" text-anchor="end" style="white-space: pre;" direction="ltr" dominant-baseline="text-before-edge">cs_w_status_cmd </text></g><g stroke-linecap="round"><g transform="translate(261.5699191478784 530.2794453288157) rotate(0 4.38829595201355 0)"><path d="M0 0 C1.46 0, 7.31 0, 8.78 0 M0 0 C1.46 0, 7.31 0, 8.78 0" stroke="#1e1e1e" stroke-width="2" fill="none"></path></g></g><mask></mask><g transform="translate(329.35383350284246 510) rotate(0 24.01953125 9.199999999999989)"><text x="48.0390625" y="0" font-family="Helvetica, Segoe UI Emoji" font-size="16px" fill="#1e1e1e" text-anchor="end" style="white-space: pre;" direction="ltr" dominant-baseline="text-before-edge">auto_s</text></g><g transform="translate(29.361646002842463 510) rotate(0 64.48046875 9.199999999999989)"><text x="128.9609375" y="0" font-family="Helvetica, Segoe UI Emoji" font-size="16px" fill="#1e1e1e" text-anchor="end" style="white-space: pre;" direction="ltr" dominant-baseline="text-before-edge">avl_writedata_i [4]</text></g><g stroke-linecap="round"><g transform="translate(11.572583502842463 510) rotate(0 80 0)"><path d="M0 0 C26.67 0, 133.33 0, 160 0 M0 0 C26.67 0, 133.33 0, 160 0" stroke="#1e1e1e" stroke-width="2" fill="none"></path></g></g><mask></mask><g stroke-linecap="round"><g transform="translate(11.572583502842463 530) rotate(0 80 0)"><path d="M0 0 C26.67 0, 133.33 0, 160 0 M0 0 C26.67 0, 133.33 0, 160 0" stroke="#1e1e1e" stroke-width="2" fill="none"></path></g></g><mask></mask><g stroke-linecap="round"><g transform="translate(171.57258350284246 530) rotate(0 4.238730547340083 0)"><path d="M0 0 C1.41 0, 7.06 0, 8.48 0 M0 0 C1.41 0, 7.06 0, 8.48 0" stroke="#1e1e1e" stroke-width="2" fill="none"></path></g></g><mask></mask><g stroke-linecap="round"><g transform="translate(220.93390969761003 630.9150686542528) rotate(0 0 0.5997064349491552)"><path d="M0 0 C0 -1.71, 0 -12.15, 0 -10.24 C0 -8.34, 0 7.83, 0 11.44 M0 0 C0 -1.71, 0 -12.15, 0 -10.24 C0 -8.34, 0 7.83, 0 11.44" stroke="#1e1e1e" stroke-width="2" fill="none"></path></g></g><mask></mask><g transform="translate(218.93389637248538 601.395844931963) rotate(0 2.6640625 9.199999999999989)"><text x="0" y="0" font-family="Helvetica, Segoe UI Emoji" font-size="16px" fill="#1e1e1e" text-anchor="start" style="white-space: pre;" direction="ltr" dominant-baseline="text-before-edge">r</text></g><g transform="translate(179.11582168792302 641.5382742357363) rotate(0 38.6875 9.199999999999989)"><text x="77.375" y="0" font-family="Helvetica, Segoe UI Emoji" font-size="16px" fill="#1e1e1e" text-anchor="end" style="white-space: pre;" direction="ltr" dominant-baseline="text-before-edge">avl_reset_i</text></g><g stroke-linecap="round"><g transform="translate(271.57258350284246 510) rotate(0 60 0)"><path d="M0 0 C20 0, 100 0, 120 0 M0 0 C20 0, 100 0, 120 0" stroke="#1e1e1e" stroke-width="2" fill="none"></path></g></g><mask></mask><g stroke-linecap="round"><g transform="translate(391.57258350284246 530) rotate(0 -60 0)"><path d="M0 0 C-20 0, -100 0, -120 0 M0 0 C-20 0, -100 0, -120 0" stroke="#1e1e1e" stroke-width="2" fill="none"></path></g></g><mask></mask><g stroke-linecap="round"><g transform="translate(591.5725835028425 410) rotate(0 0 30)"><path d="M0 0 C0 10, 0 50, 0 60 M0 0 C0 10, 0 50, 0 60" stroke="#1e1e1e" stroke-width="2" fill="none"></path></g></g><mask></mask><g stroke-linecap="round"><g transform="translate(591.5725835028425 470) rotate(0 10 0)"><path d="M0 0 C3.33 0, 16.67 0, 20 0 M0 0 C3.33 0, 16.67 0, 20 0" stroke="#1e1e1e" stroke-width="2" fill="none"></path></g></g><mask></mask><g stroke-linecap="round"><g transform="translate(611.5725835028425 470) rotate(0 0 10)"><path d="M0 0 C0 3.33, 0 16.67, 0 20 M0 0 C0 3.33, 0 16.67, 0 20" stroke="#1e1e1e" stroke-width="2" fill="none"></path></g></g><mask></mask><g stroke-linecap="round"><g transform="translate(591.5725835028425 490) rotate(0 10 0)"><path d="M0 0 C3.33 0, 16.67 0, 20 0 M0 0 C3.33 0, 16.67 0, 20 0" stroke="#1e1e1e" stroke-width="2" fill="none"></path></g></g><mask></mask><g stroke-linecap="round"><g transform="translate(591.5725835028425 490) rotate(0 0 70)"><path d="M0 0 C0 23.33, 0 116.67, 0 140 M0 0 C0 23.33, 0 116.67, 0 140" stroke="#1e1e1e" stroke-width="2" fill="none"></path></g></g><mask></mask><g stroke-linecap="round"><g transform="translate(591.5725835028425 630) rotate(0 50 0)"><path d="M0 0 C16.67 0, 83.33 0, 100 0 M0 0 C16.67 0, 83.33 0, 100 0" stroke="#1e1e1e" stroke-width="2" fill="none"></path></g></g><mask></mask><g stroke-linecap="round"><g transform="translate(690.227355895096 490) rotate(0 0 70)"><path d="M0 0 C0 23.33, 0 116.67, 0 140 M0 0 C0 23.33, 0 116.67, 0 140" stroke="#1e1e1e" stroke-width="2" fill="none"></path></g></g><mask></mask><g stroke-linecap="round"><g transform="translate(690.227355895096 490) rotate(0 -10 0)"><path d="M0 0 C-3.33 0, -16.67 0, -20 0 M0 0 C-3.33 0, -16.67 0, -20 0" stroke="#1e1e1e" stroke-width="2" fill="none"></path></g></g><mask></mask><g stroke-linecap="round"><g transform="translate(670.227355895096 470) rotate(0 0 10)"><path d="M0 0 C0 3.33, 0 16.67, 0 20 M0 0 C0 3.33, 0 16.67, 0 20" stroke="#1e1e1e" stroke-width="2" fill="none"></path></g></g><mask></mask><g stroke-linecap="round"><g transform="translate(670.227355895096 470) rotate(0 10 0)"><path d="M0 0 C3.33 0, 16.67 0, 20 0 M0 0 C3.33 0, 16.67 0, 20 0" stroke="#1e1e1e" stroke-width="2" fill="none"></path></g></g><mask></mask><g stroke-linecap="round"><g transform="translate(690.227355895096 410) rotate(0 0 30)"><path d="M0 0 C0 10, 0 50, 0 60 M0 0 C0 10, 0 50, 0 60" stroke="#1e1e1e" stroke-width="2" fill="none"></path></g></g><mask></mask><g stroke-linecap="round"><g transform="translate(691.5725835028425 410) rotate(0 -50 0)"><path d="M0 0 C-16.67 0, -83.33 0, -100 0 M0 0 C-16.67 0, -83.33 0, -100 0" stroke="#1e1e1e" stroke-width="2" fill="none"></path></g></g><mask></mask><g transform="translate(631.5725835028425 430) rotate(0 5.383384704589844 11.13889376646182)"><text x="0" y="0" font-family="Helvetica, Segoe UI Emoji" font-size="19.371989159064015px" fill="#1e1e1e" text-anchor="start" style="white-space: pre;" direction="ltr" dominant-baseline="text-before-edge">1</text></g><g transform="translate(605.1523479992325 510.60790097665085) rotate(0 5.77734375 9.199999999999989)"><text x="0" y="0" font-family="Helvetica, Segoe UI Emoji" font-size="16px" fill="#1e1e1e" text-anchor="start" style="white-space: pre;" direction="ltr" dominant-baseline="text-before-edge">D</text></g><g transform="translate(671.5725835028425 510.8349539111025) rotate(0 6.22265625 9.199999999999989)"><text x="0" y="0" font-family="Helvetica, Segoe UI Emoji" font-size="16px" fill="#1e1e1e" text-anchor="start" style="white-space: pre;" direction="ltr" dominant-baseline="text-before-edge">Q</text></g><g stroke-linecap="round"><g transform="translate(681.4507639910689 510) rotate(0 4.38829595201355 0)"><path d="M0 0 C1.46 0, 7.31 0, 8.78 0 M0 0 C1.46 0, 7.31 0, 8.78 0" stroke="#1e1e1e" stroke-width="2" fill="none"></path></g></g><mask></mask><g stroke-linecap="round"><g transform="translate(591.5725835028425 510) rotate(0 4.238730547340083 0)"><path d="M0 0 C1.41 0, 7.06 0, 8.48 0 M0 0 C1.41 0, 7.06 0, 8.48 0" stroke="#1e1e1e" stroke-width="2" fill="none"></path></g></g><mask></mask><g stroke-linecap="round"><g transform="translate(591.5725835028425 570) rotate(0 9.689781269632022 4.9317932959814925)"><path d="M0 0 C3.23 1.64, 16.15 8.22, 19.38 9.86 M0 0 C3.23 1.64, 16.15 8.22, 19.38 9.86" stroke="#1e1e1e" stroke-width="2" fill="none"></path></g></g><mask></mask><g stroke-linecap="round"><g transform="translate(591.5725835028425 590) rotate(0 9.650560844169718 -5.041299885356807)"><path d="M0 0 C3.22 -1.68, 16.08 -8.4, 19.3 -10.08 M0 0 C3.22 -1.68, 16.08 -8.4, 19.3 -10.08" stroke="#1e1e1e" stroke-width="2" fill="none"></path></g></g><mask></mask><g stroke-linecap="round"><g transform="translate(591.4651516575668 581.1636862505588) rotate(0 -6.746929099116414 0)"><path d="M0 0 C-2.25 0, -11.24 0, -13.49 0 M0 0 C-2.25 0, -11.24 0, -13.49 0" stroke="#1e1e1e" stroke-width="2" fill="none"></path></g></g><mask></mask><g transform="translate(551.5725835028425 570) rotate(0 10.617584228515625 10)"><text x="0" y="0" font-family="Helvetica, Segoe UI Emoji" font-size="17.391304347826082px" fill="#1e1e1e" text-anchor="start" style="white-space: pre;" direction="ltr" dominant-baseline="text-before-edge">clk</text></g><g stroke-linecap="round"><g transform="translate(591.5725835028425 610) rotate(0 4.848220126825936 0)"><path d="M0 0 C1.62 0, 8.08 0, 9.7 0 M0 0 C1.62 0, 8.08 0, 9.7 0" stroke="#1e1e1e" stroke-width="2" fill="none"></path></g></g><mask></mask><g transform="translate(604.7770157192372 600.0499951618754) rotate(0 8.8984375 9.199999999999989)"><text x="0" y="0" font-family="Helvetica, Segoe UI Emoji" font-size="16px" fill="#1e1e1e" text-anchor="start" style="white-space: pre;" direction="ltr" dominant-baseline="text-before-edge">en</text></g><g stroke-linecap="round"><g transform="translate(577.4849993462271 610) rotate(0 7.043792078307661 0)"><path d="M0 0 C2.35 0, 11.74 0, 14.09 0 M0 0 C2.35 0, 11.74 0, 14.09 0" stroke="#1e1e1e" stroke-width="2" fill="none"></path></g></g><mask></mask><g transform="translate(430 599.5331850012981) rotate(0 71.45977783203125 10)"><text x="142.9195556640625" y="0" font-family="Helvetica, Segoe UI Emoji" font-size="17.391304347826082px" fill="#1e1e1e" text-anchor="end" style="white-space: pre;" direction="ltr" dominant-baseline="text-before-edge">cs_w_status_cmd </text></g><g stroke-linecap="round"><g transform="translate(681.5699191478784 530.2794453288157) rotate(0 4.38829595201355 0)"><path d="M0 0 C1.46 0, 7.31 0, 8.78 0 M0 0 C1.46 0, 7.31 0, 8.78 0" stroke="#1e1e1e" stroke-width="2" fill="none"></path></g></g><mask></mask><g transform="translate(752.0413335028425 510) rotate(0 22.67578125 9.199999999999989)"><text x="45.3515625" y="0" font-family="Helvetica, Segoe UI Emoji" font-size="16px" fill="#1e1e1e" text-anchor="end" style="white-space: pre;" direction="ltr" dominant-baseline="text-before-edge">lock_s</text></g><g transform="translate(449.36164600284246 510) rotate(0 64.48046875 9.199999999999989)"><text x="128.9609375" y="0" font-family="Helvetica, Segoe UI Emoji" font-size="16px" fill="#1e1e1e" text-anchor="end" style="white-space: pre;" direction="ltr" dominant-baseline="text-before-edge">avl_writedata_i [0]</text></g><g stroke-linecap="round"><g transform="translate(431.57258350284246 510) rotate(0 80 0)"><path d="M0 0 C26.67 0, 133.33 0, 160 0 M0 0 C26.67 0, 133.33 0, 160 0" stroke="#1e1e1e" stroke-width="2" fill="none"></path></g></g><mask></mask><g stroke-linecap="round"><g transform="translate(431.57258350284246 530) rotate(0 80 0)"><path d="M0 0 C26.67 0, 133.33 0, 160 0 M0 0 C26.67 0, 133.33 0, 160 0" stroke="#1e1e1e" stroke-width="2" fill="none"></path></g></g><mask></mask><g stroke-linecap="round"><g transform="translate(591.5725835028425 530) rotate(0 4.238730547340083 0)"><path d="M0 0 C1.41 0, 7.06 0, 8.48 0 M0 0 C1.41 0, 7.06 0, 8.48 0" stroke="#1e1e1e" stroke-width="2" fill="none"></path></g></g><mask></mask><g stroke-linecap="round"><g transform="translate(640.93390969761 630.9150686542528) rotate(0 0 0.5997064349491552)"><path d="M0 0 C0 -1.71, 0 -12.15, 0 -10.24 C0 -8.34, 0 7.83, 0 11.44 M0 0 C0 -1.71, 0 -12.15, 0 -10.24 C0 -8.34, 0 7.83, 0 11.44" stroke="#1e1e1e" stroke-width="2" fill="none"></path></g></g><mask></mask><g transform="translate(638.9338963724854 601.395844931963) rotate(0 2.6640625 9.199999999999989)"><text x="0" y="0" font-family="Helvetica, Segoe UI Emoji" font-size="16px" fill="#1e1e1e" text-anchor="start" style="white-space: pre;" direction="ltr" dominant-baseline="text-before-edge">r</text></g><g transform="translate(599.115821687923 641.5382742357363) rotate(0 38.6875 9.199999999999989)"><text x="77.375" y="0" font-family="Helvetica, Segoe UI Emoji" font-size="16px" fill="#1e1e1e" text-anchor="end" style="white-space: pre;" direction="ltr" dominant-baseline="text-before-edge">avl_reset_i</text></g><g stroke-linecap="round"><g transform="translate(691.5725835028425 510) rotate(0 60 0)"><path d="M0 0 C20 0, 100 0, 120 0 M0 0 C20 0, 100 0, 120 0" stroke="#1e1e1e" stroke-width="2" fill="none"></path></g></g><mask></mask><g stroke-linecap="round"><g transform="translate(811.5725835028425 530) rotate(0 -60 0)"><path d="M0 0 C-20 0, -100 0, -120 0 M0 0 C-20 0, -100 0, -120 0" stroke="#1e1e1e" stroke-width="2" fill="none"></path></g></g><mask></mask></svg>